<svg width="172" height="31" viewBox="0 0 172 31" fill="none" xmlns="http://www.w3.org/2000/svg">
<g clip-path="url(#clip0_0_97)">
<path opacity="0.6" d="M171.287 24.6869V25.2383H169.092V24.6869H171.287ZM169.732 23.6723H170.382V27.7087C170.382 27.8925 170.409 28.0304 170.462 28.1223C170.518 28.2123 170.587 28.273 170.672 28.3043C170.758 28.3337 170.849 28.3484 170.945 28.3484C171.017 28.3484 171.076 28.3447 171.121 28.3374C171.167 28.3282 171.204 28.3208 171.232 28.3153L171.364 28.8998C171.32 28.9163 171.258 28.9329 171.179 28.9494C171.1 28.9678 171 28.977 170.879 28.977C170.695 28.977 170.515 28.9375 170.338 28.8585C170.164 28.7794 170.018 28.659 169.903 28.4973C169.789 28.3355 169.732 28.1315 169.732 27.8852V23.6723Z" fill="black"/>
<path opacity="0.6" d="M165.787 26.3743V28.9218H165.136V24.6869H165.765V25.3486H165.82C165.919 25.1335 166.07 24.9607 166.272 24.8303C166.474 24.6979 166.735 24.6317 167.055 24.6317C167.342 24.6317 167.593 24.6906 167.808 24.8082C168.023 24.924 168.19 25.1005 168.31 25.3376C168.429 25.5729 168.489 25.8706 168.489 26.2309V28.9218H167.838V26.275C167.838 25.9423 167.752 25.6831 167.579 25.4975C167.406 25.31 167.169 25.2162 166.868 25.2162C166.66 25.2162 166.474 25.2613 166.311 25.3514C166.149 25.4414 166.021 25.5729 165.927 25.7456C165.834 25.9184 165.787 26.128 165.787 26.3743Z" fill="black"/>
<path opacity="0.6" d="M162.626 29.0101C162.218 29.0101 161.866 28.92 161.57 28.7399C161.276 28.5579 161.049 28.3043 160.889 27.9789C160.731 27.6517 160.652 27.2713 160.652 26.8374C160.652 26.4037 160.731 26.0213 160.889 25.6905C161.049 25.3578 161.271 25.0986 161.556 24.913C161.843 24.7255 162.177 24.6317 162.56 24.6317C162.78 24.6317 162.998 24.6685 163.213 24.742C163.428 24.8155 163.624 24.935 163.8 25.1005C163.977 25.2641 164.117 25.4809 164.222 25.7512C164.327 26.0213 164.379 26.354 164.379 26.7492V27.0249H161.115V26.4625H163.718C163.718 26.2235 163.67 26.0103 163.574 25.8228C163.48 25.6353 163.346 25.4874 163.172 25.3789C162.999 25.2705 162.795 25.2162 162.56 25.2162C162.3 25.2162 162.076 25.2806 161.887 25.4093C161.699 25.5361 161.555 25.7015 161.454 25.9055C161.353 26.1096 161.302 26.3283 161.302 26.5617V26.9367C161.302 27.2565 161.357 27.5277 161.468 27.7501C161.58 27.9707 161.735 28.1388 161.934 28.2546C162.132 28.3686 162.363 28.4256 162.626 28.4256C162.797 28.4256 162.951 28.4017 163.089 28.3539C163.229 28.3043 163.349 28.2307 163.45 28.1333C163.551 28.034 163.629 27.9109 163.684 27.7639L164.313 27.9403C164.247 28.1535 164.136 28.341 163.98 28.5028C163.823 28.6627 163.63 28.7877 163.401 28.8777C163.171 28.966 162.912 29.0101 162.626 29.0101Z" fill="black"/>
<path opacity="0.6" d="M154.335 28.9218V24.6869H154.964V25.3486H155.019C155.107 25.1225 155.249 24.947 155.446 24.822C155.643 24.6951 155.879 24.6317 156.155 24.6317C156.434 24.6317 156.667 24.6951 156.852 24.822C157.04 24.947 157.186 25.1225 157.291 25.3486H157.335C157.443 25.1299 157.606 24.9562 157.823 24.8275C158.04 24.697 158.3 24.6317 158.603 24.6317C158.982 24.6317 159.292 24.7503 159.532 24.9874C159.773 25.2227 159.893 25.5894 159.893 26.0875V28.9218H159.243V26.0875C159.243 25.775 159.157 25.5517 158.986 25.4175C158.815 25.2833 158.614 25.2162 158.382 25.2162C158.085 25.2162 157.854 25.3063 157.69 25.4865C157.527 25.6648 157.445 25.8908 157.445 26.1647V28.9218H156.783V26.0213C156.783 25.7805 156.705 25.5866 156.549 25.4396C156.393 25.2907 156.192 25.2162 155.945 25.2162C155.776 25.2162 155.618 25.2613 155.471 25.3514C155.326 25.4414 155.208 25.5664 155.118 25.7263C155.03 25.8844 154.986 26.0673 154.986 26.275V28.9218H154.335Z" fill="black"/>
<path opacity="0.6" d="M151.825 29.0101C151.417 29.0101 151.065 28.92 150.769 28.7399C150.474 28.5579 150.247 28.3043 150.088 27.9789C149.929 27.6517 149.85 27.2713 149.85 26.8374C149.85 26.4037 149.929 26.0213 150.088 25.6905C150.247 25.3578 150.47 25.0986 150.755 24.913C151.042 24.7255 151.376 24.6317 151.758 24.6317C151.979 24.6317 152.197 24.6685 152.412 24.742C152.627 24.8155 152.823 24.935 152.999 25.1005C153.176 25.2641 153.316 25.4809 153.421 25.7512C153.526 26.0213 153.578 26.354 153.578 26.7492V27.0249H150.314V26.4625H152.916C152.916 26.2235 152.869 26.0103 152.773 25.8228C152.679 25.6353 152.545 25.4874 152.37 25.3789C152.198 25.2705 151.994 25.2162 151.758 25.2162C151.499 25.2162 151.275 25.2806 151.086 25.4093C150.898 25.5361 150.754 25.7015 150.653 25.9055C150.552 26.1096 150.501 26.3283 150.501 26.5617V26.9367C150.501 27.2565 150.556 27.5277 150.667 27.7501C150.779 27.9707 150.934 28.1388 151.132 28.2546C151.331 28.3686 151.562 28.4256 151.825 28.4256C151.995 28.4256 152.15 28.4017 152.288 28.3539C152.427 28.3043 152.548 28.2307 152.649 28.1333C152.75 28.034 152.828 27.9109 152.883 27.7639L153.512 27.9403C153.446 28.1535 153.334 28.341 153.178 28.5028C153.022 28.6627 152.829 28.7877 152.599 28.8777C152.369 28.966 152.111 29.0101 151.825 29.0101Z" fill="black"/>
<path opacity="0.6" d="M147.26 30.5983C146.946 30.5983 146.676 30.5576 146.45 30.4769C146.223 30.3978 146.035 30.2931 145.884 30.1626C145.735 30.0339 145.617 29.896 145.528 29.749L146.047 29.3851C146.106 29.4623 146.18 29.5505 146.27 29.6497C146.36 29.7508 146.483 29.8382 146.64 29.9117C146.798 29.987 147.005 30.0247 147.26 30.0247C147.602 30.0247 147.884 29.942 148.106 29.7766C148.329 29.6111 148.44 29.352 148.44 28.999V28.1388H148.385C148.337 28.216 148.269 28.3116 148.181 28.4256C148.094 28.5377 147.969 28.6379 147.806 28.7261C147.644 28.8125 147.425 28.8557 147.15 28.8557C146.808 28.8557 146.501 28.7748 146.229 28.613C145.959 28.4513 145.744 28.216 145.586 27.9072C145.43 27.5984 145.352 27.2234 145.352 26.7823C145.352 26.3485 145.428 25.9708 145.581 25.6491C145.733 25.3256 145.946 25.0756 146.218 24.8992C146.49 24.7209 146.804 24.6317 147.161 24.6317C147.436 24.6317 147.655 24.6777 147.817 24.7696C147.98 24.8597 148.105 24.9626 148.192 25.0784C148.28 25.1923 148.348 25.2861 148.396 25.3596H148.462V24.6869H149.091V29.0432C149.091 29.4071 149.008 29.7031 148.843 29.931C148.679 30.1607 148.459 30.3289 148.181 30.4355C147.905 30.544 147.598 30.5983 147.26 30.5983ZM147.238 28.2712C147.499 28.2712 147.72 28.2114 147.9 28.0919C148.08 27.9725 148.217 27.8006 148.31 27.5764C148.404 27.3521 148.451 27.0838 148.451 26.7713C148.451 26.4662 148.405 26.1969 148.313 25.9634C148.221 25.73 148.085 25.5471 147.905 25.4148C147.725 25.2824 147.503 25.2162 147.238 25.2162C146.962 25.2162 146.732 25.2861 146.549 25.4258C146.367 25.5655 146.23 25.753 146.138 25.9883C146.048 26.2235 146.003 26.4845 146.003 26.7713C146.003 27.0654 146.049 27.3255 146.141 27.5516C146.234 27.7758 146.372 27.9523 146.554 28.0809C146.738 28.2078 146.966 28.2712 147.238 28.2712Z" fill="black"/>
<path opacity="0.6" d="M142.655 29.0211C142.386 29.0211 142.143 28.9706 141.924 28.8695C141.705 28.7665 141.532 28.6186 141.403 28.4256C141.274 28.2307 141.21 27.9955 141.21 27.7197C141.21 27.4771 141.258 27.2804 141.353 27.1297C141.449 26.9771 141.577 26.8577 141.737 26.7713C141.897 26.6849 142.073 26.6206 142.266 26.5783C142.461 26.5342 142.657 26.4992 142.853 26.4735C143.111 26.4404 143.319 26.4156 143.479 26.3991C143.641 26.3807 143.759 26.3504 143.832 26.3081C143.907 26.2658 143.945 26.1923 143.945 26.0875V26.0655C143.945 25.7934 143.871 25.582 143.722 25.4313C143.575 25.2806 143.351 25.2052 143.052 25.2052C142.741 25.2052 142.498 25.2732 142.321 25.4093C142.145 25.5453 142.021 25.6905 141.949 25.8449L141.331 25.6243C141.442 25.367 141.589 25.1666 141.773 25.0233C141.958 24.878 142.16 24.777 142.379 24.72C142.6 24.6611 142.817 24.6317 143.03 24.6317C143.166 24.6317 143.322 24.6483 143.498 24.6814C143.677 24.7126 143.849 24.7779 144.014 24.8771C144.182 24.9764 144.32 25.1262 144.431 25.3265C144.541 25.5269 144.596 25.7953 144.596 26.1316V28.9218H143.945V28.3484H143.912C143.868 28.4403 143.794 28.5386 143.691 28.6434C143.589 28.7482 143.452 28.8373 143.281 28.9108C143.11 28.9844 142.901 29.0211 142.655 29.0211ZM142.754 28.4366C143.011 28.4366 143.228 28.386 143.405 28.285C143.583 28.1839 143.717 28.0534 143.807 27.8935C143.899 27.7335 143.945 27.5653 143.945 27.3889V26.7933C143.918 26.8264 143.857 26.8567 143.763 26.8843C143.671 26.9101 143.565 26.933 143.443 26.9533C143.324 26.9716 143.207 26.9882 143.093 27.0029C142.981 27.0158 142.89 27.0268 142.82 27.036C142.651 27.058 142.493 27.0939 142.346 27.1435C142.201 27.1913 142.083 27.2639 141.993 27.3613C141.905 27.4569 141.861 27.5874 141.861 27.7528C141.861 27.9789 141.944 28.1499 142.112 28.2656C142.281 28.3796 142.495 28.4366 142.754 28.4366Z" fill="black"/>
<path opacity="0.6" d="M137.751 26.3743V28.9218H137.1V24.6869H137.729V25.3486H137.784C137.883 25.1335 138.033 24.9607 138.236 24.8303C138.438 24.6979 138.699 24.6317 139.019 24.6317C139.306 24.6317 139.556 24.6906 139.772 24.8082C139.987 24.924 140.154 25.1005 140.273 25.3376C140.393 25.5729 140.452 25.8706 140.452 26.2309V28.9218H139.802V26.275C139.802 25.9423 139.715 25.6831 139.543 25.4975C139.37 25.31 139.133 25.2162 138.831 25.2162C138.624 25.2162 138.438 25.2613 138.275 25.3514C138.113 25.4414 137.985 25.5729 137.891 25.7456C137.797 25.9184 137.751 26.128 137.751 26.3743Z" fill="black"/>
<path opacity="0.6" d="M134.204 29.0211C133.936 29.0211 133.692 28.9706 133.473 28.8695C133.255 28.7665 133.081 28.6186 132.952 28.4256C132.824 28.2307 132.759 27.9955 132.759 27.7197C132.759 27.4771 132.807 27.2804 132.903 27.1297C132.998 26.9771 133.126 26.8577 133.286 26.7713C133.446 26.6849 133.622 26.6206 133.815 26.5783C134.01 26.5342 134.206 26.4992 134.403 26.4735C134.66 26.4404 134.868 26.4156 135.029 26.3991C135.19 26.3807 135.308 26.3504 135.381 26.3081C135.457 26.2658 135.494 26.1923 135.494 26.0875V26.0655C135.494 25.7934 135.42 25.582 135.271 25.4313C135.124 25.2806 134.901 25.2052 134.601 25.2052C134.29 25.2052 134.047 25.2732 133.87 25.4093C133.694 25.5453 133.57 25.6905 133.498 25.8449L132.881 25.6243C132.991 25.367 133.138 25.1666 133.322 25.0233C133.507 24.878 133.71 24.777 133.928 24.72C134.149 24.6611 134.366 24.6317 134.579 24.6317C134.715 24.6317 134.871 24.6483 135.048 24.6814C135.226 24.7126 135.398 24.7779 135.563 24.8771C135.731 24.9764 135.869 25.1262 135.98 25.3265C136.09 25.5269 136.145 25.7953 136.145 26.1316V28.9218H135.494V28.3484H135.461C135.417 28.4403 135.344 28.5386 135.241 28.6434C135.138 28.7482 135.001 28.8373 134.83 28.9108C134.659 28.9844 134.45 29.0211 134.204 29.0211ZM134.303 28.4366C134.561 28.4366 134.778 28.386 134.954 28.285C135.132 28.1839 135.267 28.0534 135.357 27.8935C135.449 27.7335 135.494 27.5653 135.494 27.3889V26.7933C135.467 26.8264 135.406 26.8567 135.312 26.8843C135.221 26.9101 135.114 26.933 134.993 26.9533C134.873 26.9716 134.756 26.9882 134.642 27.0029C134.53 27.0158 134.439 27.0268 134.37 27.036C134.2 27.058 134.042 27.0939 133.895 27.1435C133.75 27.1913 133.632 27.2639 133.542 27.3613C133.454 27.4569 133.41 27.5874 133.41 27.7528C133.41 27.9789 133.494 28.1499 133.661 28.2656C133.83 28.3796 134.044 28.4366 134.303 28.4366Z" fill="black"/>
<path opacity="0.6" d="M126.372 23.2753H127.188L129.107 27.9625H129.173L131.092 23.2753H131.908V28.9219H131.268V24.6318H131.213L129.449 28.9219H128.831L127.066 24.6318H127.011V28.9219H126.372V23.2753Z" fill="black"/>
<path opacity="0.6" d="M120.949 27.3779L120.938 26.5728H121.07L122.923 24.687H123.728L121.754 26.6831H121.699L120.949 27.3779ZM120.343 28.9219V23.2753H120.993V28.9219H120.343ZM123.033 28.9219L121.379 26.8265L121.842 26.3744L123.86 28.9219H123.033Z" fill="black"/>
<path opacity="0.6" d="M119.519 25.6353L118.934 25.8008C118.898 25.7033 118.843 25.6087 118.771 25.5168C118.702 25.423 118.606 25.3458 118.485 25.2852C118.363 25.2245 118.208 25.1942 118.019 25.1942C117.76 25.1942 117.544 25.2539 117.371 25.3734C117.2 25.491 117.115 25.6409 117.115 25.8228C117.115 25.9846 117.173 26.1123 117.291 26.2061C117.408 26.2998 117.592 26.3779 117.842 26.4404L118.471 26.5948C118.85 26.6867 119.132 26.8274 119.317 27.0167C119.503 27.2041 119.596 27.4459 119.596 27.7418C119.596 27.9844 119.526 28.2013 119.386 28.3925C119.249 28.5837 119.055 28.7344 118.807 28.8446C118.559 28.9549 118.271 29.0101 117.942 29.0101C117.51 29.0101 117.152 28.9163 116.869 28.7289C116.586 28.5414 116.407 28.2675 116.331 27.9072L116.949 27.7528C117.008 27.9807 117.119 28.1517 117.283 28.2656C117.448 28.3796 117.664 28.4366 117.931 28.4366C118.234 28.4366 118.475 28.3723 118.653 28.2436C118.833 28.1131 118.923 27.9568 118.923 27.7749C118.923 27.6278 118.872 27.5047 118.769 27.4054C118.666 27.3043 118.508 27.229 118.294 27.1793L117.589 27.0139C117.201 26.922 116.916 26.7795 116.734 26.5866C116.554 26.3917 116.464 26.1482 116.464 25.8559C116.464 25.617 116.531 25.4056 116.665 25.2218C116.801 25.0379 116.986 24.8937 117.219 24.7889C117.455 24.6841 117.721 24.6317 118.019 24.6317C118.438 24.6317 118.767 24.7236 119.006 24.9075C119.247 25.0913 119.417 25.3339 119.519 25.6353Z" fill="black"/>
<path opacity="0.6" d="M114.909 28.9219V24.6869H115.56V28.9219H114.909ZM115.24 23.9811C115.114 23.9811 115.004 23.9379 114.912 23.8515C114.822 23.7651 114.777 23.6613 114.777 23.54C114.777 23.4187 114.822 23.3148 114.912 23.2284C115.004 23.142 115.114 23.0988 115.24 23.0988C115.367 23.0988 115.476 23.142 115.566 23.2284C115.658 23.3148 115.703 23.4187 115.703 23.54C115.703 23.6613 115.658 23.7651 115.566 23.8515C115.476 23.9379 115.367 23.9811 115.24 23.9811Z" fill="black"/>
<path opacity="0.6" d="M110.264 28.9219V23.2753H112.172C112.613 23.2753 112.975 23.3507 113.259 23.5014C113.541 23.6503 113.751 23.8552 113.887 24.1162C114.023 24.3773 114.091 24.6741 114.091 25.0068C114.091 25.3395 114.023 25.6345 113.887 25.8918C113.751 26.1492 113.542 26.3513 113.261 26.4984C112.98 26.6436 112.621 26.7162 112.183 26.7162H110.639V26.0986H112.161C112.463 26.0986 112.705 26.0545 112.889 25.9663C113.075 25.8781 113.209 25.7531 113.292 25.5913C113.376 25.4277 113.418 25.2329 113.418 25.0068C113.418 24.7807 113.376 24.5831 113.292 24.414C113.207 24.2449 113.072 24.1144 112.886 24.0225C112.701 23.9287 112.455 23.8819 112.15 23.8819H110.948V28.9219H110.264ZM112.922 26.3854L114.312 28.9219H113.518L112.15 26.3854H112.922Z" fill="black"/>
<path opacity="0.6" d="M104.567 26.3743V28.9218H103.916V24.6869H104.545V25.3486H104.6C104.699 25.1335 104.85 24.9607 105.052 24.8303C105.255 24.6979 105.516 24.6317 105.836 24.6317C106.122 24.6317 106.373 24.6906 106.588 24.8082C106.803 24.924 106.971 25.1005 107.09 25.3376C107.209 25.5729 107.269 25.8706 107.269 26.2309V28.9218H106.619V26.275C106.619 25.9423 106.532 25.6831 106.359 25.4975C106.187 25.31 105.95 25.2162 105.648 25.2162C105.44 25.2162 105.255 25.2613 105.091 25.3514C104.929 25.4414 104.801 25.5729 104.708 25.7456C104.614 25.9184 104.567 26.128 104.567 26.3743Z" fill="black"/>
<path opacity="0.6" d="M101.406 29.0101C100.998 29.0101 100.646 28.92 100.35 28.7399C100.056 28.5579 99.8291 28.3043 99.669 27.9789C99.511 27.6517 99.4319 27.2713 99.4319 26.8374C99.4319 26.4037 99.511 26.0213 99.669 25.6905C99.8291 25.3578 100.051 25.0986 100.336 24.913C100.623 24.7255 100.958 24.6317 101.34 24.6317C101.56 24.6317 101.778 24.6685 101.993 24.742C102.208 24.8155 102.404 24.935 102.58 25.1005C102.757 25.2641 102.898 25.4809 103.002 25.7512C103.107 26.0213 103.16 26.354 103.16 26.7492V27.0249H99.8951V26.4625H102.498C102.498 26.2235 102.45 26.0103 102.354 25.8228C102.261 25.6353 102.126 25.4874 101.952 25.3789C101.779 25.2705 101.575 25.2162 101.34 25.2162C101.081 25.2162 100.856 25.2806 100.667 25.4093C100.48 25.5361 100.335 25.7015 100.234 25.9055C100.133 26.1096 100.083 26.3283 100.083 26.5617V26.9367C100.083 27.2565 100.138 27.5277 100.248 27.7501C100.36 27.9707 100.516 28.1388 100.714 28.2546C100.912 28.3686 101.143 28.4256 101.406 28.4256C101.577 28.4256 101.731 28.4017 101.869 28.3539C102.009 28.3043 102.129 28.2307 102.23 28.1333C102.331 28.034 102.41 27.9109 102.465 27.7639L103.093 27.9403C103.027 28.1535 102.916 28.341 102.76 28.5028C102.604 28.6627 102.411 28.7877 102.181 28.8777C101.951 28.966 101.693 29.0101 101.406 29.0101Z" fill="black"/>
<path opacity="0.6" d="M99.156 24.6869L97.59 28.9219H96.9283L95.3622 24.6869H96.0683L97.2371 28.0617H97.2814L98.4503 24.6869H99.156Z" fill="black"/>
<path opacity="0.6" d="M94.0837 28.9219V24.6869H94.7345V28.9219H94.0837ZM94.4146 23.9811C94.2878 23.9811 94.1784 23.9379 94.0865 23.8515C93.9964 23.7651 93.9514 23.6613 93.9514 23.54C93.9514 23.4187 93.9964 23.3148 94.0865 23.2284C94.1784 23.142 94.2878 23.0988 94.4146 23.0988C94.5414 23.0988 94.6498 23.142 94.74 23.2284C94.8319 23.3148 94.8777 23.4187 94.8777 23.54C94.8777 23.6613 94.8319 23.7651 94.74 23.8515C94.6498 23.9379 94.5414 23.9811 94.4146 23.9811Z" fill="black"/>
<path opacity="0.6" d="M91.4277 28.9218V24.6869H92.0564V25.3265H92.1007C92.1777 25.117 92.3173 24.947 92.5195 24.8165C92.7218 24.6859 92.9497 24.6207 93.2033 24.6207C93.2512 24.6207 93.3108 24.6216 93.3826 24.6235C93.4544 24.6253 93.5085 24.628 93.5454 24.6317V25.2934C93.5231 25.2879 93.4727 25.2797 93.3936 25.2686C93.3163 25.2558 93.2347 25.2493 93.1483 25.2493C92.9424 25.2493 92.7584 25.2925 92.5968 25.3789C92.437 25.4635 92.31 25.5811 92.2165 25.7318C92.1245 25.8807 92.0784 26.0507 92.0784 26.2419V28.9218H91.4277Z" fill="black"/>
<path opacity="0.6" d="M87.9109 28.9219H86.1683V23.2753H87.9882C88.536 23.2753 89.0047 23.3884 89.3942 23.6144C89.784 23.8387 90.0828 24.1613 90.2905 24.5822C90.498 25.0013 90.6018 25.5031 90.6018 26.0876C90.6018 26.6758 90.4971 27.1822 90.2875 27.6068C90.0782 28.0296 89.773 28.3549 89.3722 28.5828C88.9717 28.8089 88.4844 28.9219 87.9109 28.9219ZM86.8524 28.3154H87.8669C88.3338 28.3154 88.7205 28.2253 89.0276 28.0452C89.3346 27.865 89.5634 27.6086 89.714 27.2759C89.865 26.9432 89.9401 26.5471 89.9401 26.0876C89.9401 25.6318 89.8659 25.2393 89.7168 24.9103C89.568 24.5794 89.3456 24.3258 89.0496 24.1493C88.7538 23.971 88.3851 23.8819 87.9439 23.8819H86.8524V28.3154Z" fill="black"/>
<path opacity="0.6" d="M82.52 28.9219V24.6869H83.1707V28.9219H82.52ZM82.8508 23.9811C82.7241 23.9811 82.6147 23.9379 82.5227 23.8515C82.4326 23.7651 82.3877 23.6613 82.3877 23.54C82.3877 23.4187 82.4326 23.3148 82.5227 23.2284C82.6147 23.142 82.7241 23.0988 82.8508 23.0988C82.9776 23.0988 83.0861 23.142 83.1762 23.2284C83.2682 23.3148 83.314 23.4187 83.314 23.54C83.314 23.6613 83.2682 23.7651 83.1762 23.8515C83.0861 23.9379 82.9776 23.9811 82.8508 23.9811Z" fill="black"/>
<path opacity="0.6" d="M77.7804 28.9219H77.0636L79.1368 23.2753H79.8428L81.916 28.9219H81.1993L79.512 24.1686H79.4677L77.7804 28.9219ZM78.0449 26.7162H80.9347V27.3228H78.0449V26.7162Z" fill="black"/>
<path d="M74.3336 24.6607H0V28.1127H74.3336V24.6607Z" fill="url(#paint0_linear_0_97)"/>
<path d="M165.678 18.0394L167.784 5.40138H171.289L169.183 18.0394H165.678ZM169.898 3.7558C169.377 3.7558 168.947 3.58301 168.607 3.23745C168.272 2.88638 168.135 2.4695 168.195 1.98679C168.255 1.49312 168.491 1.07624 168.903 0.736151C169.314 0.39058 169.78 0.217793 170.302 0.217793C170.823 0.217793 171.248 0.39058 171.577 0.736151C171.906 1.07624 172.043 1.49312 171.988 1.98679C171.933 2.4695 171.7 2.88638 171.289 3.23745C170.883 3.58301 170.42 3.7558 169.898 3.7558Z" fill="#13017D"/>
<path d="M156.503 18.2779C155.702 18.2779 155.009 18.1381 154.421 17.8583C153.84 17.5731 153.412 17.1507 153.138 16.5912C152.864 16.0317 152.795 15.3378 152.932 14.5096C153.053 13.8074 153.281 13.2205 153.615 12.7488C153.955 12.2716 154.37 11.8876 154.858 11.5969C155.346 11.3062 155.886 11.084 156.478 10.9304C157.077 10.7769 157.693 10.6726 158.33 10.6178C159.065 10.541 159.663 10.4669 160.123 10.3956C160.59 10.3243 160.938 10.2228 161.169 10.0912C161.399 9.95406 161.539 9.75109 161.588 9.48233V9.43296C161.671 8.91733 161.574 8.5169 161.3 8.23168C161.031 7.94096 160.601 7.7956 160.008 7.7956C159.383 7.7956 158.851 7.93271 158.412 8.207C157.979 8.48125 157.669 8.82956 157.482 9.25195L154.29 8.98864C154.575 8.22071 155.006 7.557 155.582 6.9975C156.163 6.4325 156.862 5.99917 157.68 5.69748C158.497 5.39029 159.413 5.23671 160.428 5.23671C161.13 5.23671 161.786 5.31899 162.395 5.48356C163.009 5.64811 163.538 5.90318 163.983 6.24876C164.432 6.59432 164.756 7.03862 164.953 7.58166C165.156 8.11923 165.197 8.76375 165.077 9.51524L163.653 18.0393H160.329L160.625 16.2868H160.527C160.258 16.6817 159.929 17.03 159.539 17.3317C159.15 17.628 158.703 17.8611 158.198 18.0311C157.693 18.1957 157.129 18.2779 156.503 18.2779ZM157.91 15.859C158.42 15.859 158.889 15.7575 159.317 15.5545C159.75 15.3461 160.107 15.0663 160.387 14.7153C160.672 14.3642 160.853 13.9665 160.93 13.5222L161.144 12.1811C161.034 12.2524 160.875 12.3155 160.667 12.3703C160.464 12.4252 160.241 12.4773 160 12.5266C159.764 12.5705 159.526 12.6117 159.284 12.6501C159.043 12.683 158.826 12.7159 158.634 12.7488C158.212 12.8091 157.833 12.9051 157.499 13.0368C157.164 13.1684 156.893 13.3467 156.684 13.5716C156.476 13.791 156.347 14.0653 156.298 14.3944C156.221 14.8716 156.333 15.2364 156.635 15.4887C156.942 15.7355 157.367 15.859 157.91 15.859Z" fill="#13017D"/>
<path d="M148.931 18.2535C148.377 18.2535 147.922 18.0615 147.566 17.6775C147.214 17.2936 147.055 16.8273 147.088 16.2788C147.127 15.7358 147.354 15.2777 147.771 14.9047C148.193 14.5262 148.679 14.337 149.228 14.337C149.754 14.337 150.198 14.5262 150.56 14.9047C150.923 15.2832 151.081 15.7412 151.038 16.2788C151.01 16.6408 150.892 16.9727 150.684 17.2744C150.481 17.5706 150.223 17.8092 149.91 17.9902C149.598 18.1657 149.271 18.2535 148.931 18.2535Z" fill="#13017D"/>
<path d="M129.083 1.18876H133.477L136.25 12.5104H136.447L142.956 1.18876H147.349L144.552 18.0395H141.096L142.923 7.07171H142.775L136.62 17.9573H134.259L131.725 7.03058H131.585L129.742 18.0395H126.286L129.083 1.18876Z" fill="#13017D"/>
<path d="M111.64 18.0395L114.437 1.18876H121.086C122.358 1.18876 123.406 1.41366 124.229 1.86345C125.057 2.31324 125.639 2.95227 125.973 3.78055C126.313 4.60334 126.393 5.57424 126.212 6.69324C126.025 7.81222 125.622 8.77215 125.002 9.57301C124.388 10.3739 123.587 10.991 122.6 11.4243C121.618 11.8521 120.479 12.0661 119.185 12.0661H114.734L115.227 9.20273H119.095C119.775 9.20273 120.356 9.10949 120.839 8.92301C121.321 8.7365 121.703 8.45675 121.983 8.08376C122.268 7.71076 122.454 7.24725 122.542 6.69324C122.635 6.12824 122.602 5.65651 122.443 5.27802C122.284 4.89406 121.996 4.60334 121.579 4.40589C121.163 4.20291 120.614 4.10145 119.934 4.10145H117.531L115.203 18.0395H111.64ZM122.007 10.3711L124.928 18.0395H120.995L118.165 10.3711H122.007Z" fill="#13017D"/>
<path d="M104.126 18.2862C102.831 18.2862 101.759 18.0229 100.909 17.4963C100.059 16.9642 99.4606 16.2128 99.1151 15.2419C98.7751 14.2655 98.7173 13.1108 98.9422 11.7779C99.1615 10.4779 99.6033 9.33697 100.267 8.35511C100.936 7.37324 101.775 6.60804 102.785 6.0595C103.794 5.51097 104.918 5.23671 106.158 5.23671C106.992 5.23671 107.746 5.37111 108.421 5.63989C109.101 5.90318 109.666 6.3036 110.116 6.84117C110.565 7.37324 110.873 8.0397 111.037 8.84056C111.207 9.64138 111.205 10.5794 111.029 11.6545L110.873 12.6172H100.209L100.547 10.445H107.919C108.001 9.94035 107.968 9.4933 107.82 9.10384C107.672 8.71438 107.425 8.40995 107.08 8.19053C106.734 7.96565 106.309 7.85319 105.804 7.85319C105.289 7.85319 104.806 7.97937 104.356 8.23168C103.906 8.484 103.528 8.81587 103.221 9.22727C102.919 9.63316 102.724 10.0747 102.637 10.5519L102.25 12.7077C102.14 13.3714 102.162 13.9227 102.316 14.3615C102.475 14.8003 102.749 15.1294 103.138 15.3488C103.528 15.5628 104.022 15.6697 104.619 15.6697C105.009 15.6697 105.374 15.6149 105.714 15.5051C106.059 15.3954 106.367 15.2336 106.635 15.0197C106.904 14.8003 107.124 14.5288 107.294 14.2052L110.494 14.4191C110.198 15.198 109.748 15.8781 109.145 16.4596C108.541 17.0355 107.815 17.4853 106.964 17.809C106.12 18.1271 105.174 18.2862 104.126 18.2862Z" fill="#13017D"/>
<path d="M98.0883 9.0051L94.904 9.20258C94.8878 8.92283 94.8108 8.67323 94.6736 8.45382C94.542 8.22893 94.3474 8.05067 94.0895 7.91903C93.8372 7.78738 93.5191 7.72155 93.1351 7.72155C92.5592 7.72155 92.0463 7.85319 91.5966 8.11648C91.1469 8.37979 90.8918 8.71713 90.8313 9.12853C90.7821 9.39181 90.8505 9.61398 91.0369 9.79499C91.2235 9.976 91.5993 10.1296 92.1642 10.2558L94.3858 10.7165C95.5706 10.9688 96.4263 11.3884 96.953 11.9754C97.4849 12.5623 97.6743 13.3302 97.5206 14.2792C97.3835 15.0855 97.0297 15.7904 96.4593 16.3938C95.8886 16.9916 95.1646 17.4579 94.2872 17.7925C93.4094 18.1216 92.4358 18.2862 91.3662 18.2862C89.6493 18.2862 88.3438 17.9351 87.4496 17.233C86.5554 16.5309 86.125 15.5792 86.158 14.3779L89.5805 14.1969C89.608 14.7125 89.7892 15.102 90.1237 15.3653C90.4583 15.6231 90.9162 15.7547 91.4979 15.7602C92.1505 15.7712 92.7046 15.6368 93.1598 15.357C93.6206 15.0718 93.8811 14.7263 93.9413 14.3203C93.9853 14.0351 93.9031 13.8047 93.6945 13.6292C93.4916 13.4537 93.1186 13.3083 92.5757 13.1931L90.4693 12.757C89.2735 12.5102 88.415 12.0686 87.8938 11.4323C87.373 10.796 87.1945 9.98697 87.3592 9.0051C87.4909 8.22071 87.8172 7.54875 88.3383 6.98925C88.8647 6.42428 89.5423 5.99095 90.3706 5.68926C91.2043 5.38757 92.145 5.23671 93.1928 5.23671C94.8328 5.23671 96.067 5.57405 96.8953 6.24876C97.729 6.92344 98.1268 7.84222 98.0883 9.0051Z" fill="#13017D"/>
<path d="M80.4661 18.0394L82.5722 5.40138H86.0776L83.9711 18.0394H80.4661ZM84.6869 3.7558C84.1657 3.7558 83.7353 3.58301 83.3953 3.23745C83.0604 2.88638 82.9236 2.4695 82.9837 1.98679C83.0442 1.49312 83.2801 1.07624 83.6913 0.736151C84.1028 0.39058 84.569 0.217793 85.0902 0.217793C85.6111 0.217793 86.0364 0.39058 86.3654 0.736151C86.6944 1.07624 86.8316 1.49312 86.7769 1.98679C86.7219 2.4695 86.4888 2.88638 86.0776 3.23745C85.6716 3.58301 85.2081 3.7558 84.6869 3.7558Z" fill="#13017D"/>
<path d="M71.6806 18.0395L73.7867 5.40147H77.1849L76.8146 7.60655H76.9463C77.3083 6.82217 77.7938 6.22976 78.4026 5.82933C79.017 5.42341 79.6781 5.22046 80.3857 5.22046C80.561 5.22046 80.745 5.23143 80.9368 5.25336C81.1342 5.26983 81.3098 5.29726 81.4635 5.33563L80.9368 8.45403C80.7831 8.39916 80.5638 8.35529 80.2788 8.32239C79.9989 8.28398 79.7328 8.2648 79.4805 8.2648C78.9703 8.2648 78.4958 8.37722 78.0571 8.60214C77.6184 8.82155 77.2481 9.12871 76.9463 9.52367C76.6503 9.9186 76.4553 10.3739 76.3622 10.8895L75.1857 18.0395H71.6806Z" fill="#13017D"/>
<path d="M56.9256 22.7786L59.8383 5.40129H63.2942L62.9404 7.52407H63.0965C63.3052 7.18398 63.582 6.83842 63.9275 6.48736C64.2788 6.13081 64.7148 5.83462 65.236 5.59874C65.7569 5.35739 66.3685 5.23671 67.0708 5.23671C67.9978 5.23671 68.8067 5.47806 69.4978 5.96076C70.1891 6.43799 70.6883 7.15929 70.9954 8.12472C71.3082 9.08463 71.3437 10.2887 71.1023 11.7368C70.872 13.1465 70.447 14.3368 69.8271 15.3077C69.2128 16.2731 68.475 17.0054 67.6137 17.5045C66.758 17.9982 65.8504 18.245 64.8905 18.245C64.2101 18.245 63.6507 18.1326 63.2117 17.9077C62.7785 17.6828 62.4412 17.4003 62.1999 17.0602C61.9585 16.7146 61.7883 16.3663 61.6897 16.0153H61.558L60.4389 22.7786H56.9256ZM62.2164 11.7203C62.0957 12.4718 62.0902 13.1273 62.1999 13.6868C62.315 14.2463 62.5454 14.6824 62.8909 14.995C63.2364 15.3022 63.6916 15.4558 64.2568 15.4558C64.8272 15.4558 65.3347 15.2994 65.7789 14.9868C66.2231 14.6686 66.5933 14.2298 66.8897 13.6703C67.186 13.1053 67.3971 12.4553 67.5233 11.7203C67.6385 10.9908 67.6412 10.349 67.5316 9.79499C67.4219 9.24095 67.1967 8.80762 66.8567 8.49497C66.5167 8.18231 66.056 8.02598 65.4746 8.02598C64.9094 8.02598 64.4023 8.17681 63.9522 8.4785C63.508 8.78022 63.1378 9.20805 62.8414 9.76205C62.5454 10.3161 62.337 10.9688 62.2164 11.7203Z" fill="#13017D"/>
<path d="M48.9055 18.0395L51.0116 5.40147H54.4098L54.0395 7.60655H54.1712C54.5332 6.82217 55.0186 6.22976 55.6275 5.82933C56.2419 5.42341 56.903 5.22046 57.6106 5.22046C57.7859 5.22046 57.9698 5.23143 58.1617 5.25336C58.3593 5.26983 58.5347 5.29726 58.6884 5.33563L58.1617 8.45403C58.008 8.39916 57.7887 8.35529 57.5036 8.32239C57.2238 8.28398 56.9577 8.2648 56.7053 8.2648C56.1951 8.2648 55.7207 8.37722 55.282 8.60214C54.8433 8.82155 54.473 9.12871 54.1712 9.52367C53.8751 9.9186 53.6802 10.3739 53.587 10.8895L52.4105 18.0395H48.9055Z" fill="#13017D"/>
<path d="M41.4569 18.2862C40.1625 18.2862 39.0899 18.0229 38.2396 17.4963C37.3894 16.9642 36.7915 16.2128 36.446 15.2419C36.106 14.2655 36.0485 13.1108 36.2734 11.7779C36.4927 10.4779 36.9342 9.33697 37.5981 8.35511C38.2671 7.37324 39.1064 6.60804 40.1157 6.0595C41.1251 5.51097 42.2494 5.23671 43.4891 5.23671C44.3229 5.23671 45.0772 5.37111 45.7517 5.63989C46.4321 5.90318 46.997 6.3036 47.4467 6.84117C47.8967 7.37324 48.2037 8.0397 48.3684 8.84056C48.5382 9.64138 48.5355 10.5794 48.3601 11.6545L48.2037 12.6172H37.5403L37.8776 10.445H45.2501C45.3323 9.94035 45.2993 9.4933 45.1511 9.10384C45.0032 8.71438 44.7564 8.40995 44.4106 8.19053C44.065 7.96565 43.6401 7.85319 43.1354 7.85319C42.6197 7.85319 42.137 7.97937 41.6873 8.23168C41.2376 8.484 40.859 8.81587 40.5517 9.22727C40.2502 9.63316 40.0553 10.0747 39.9676 10.5519L39.5808 12.7077C39.4711 13.3714 39.4931 13.9227 39.6468 14.3615C39.8057 14.8003 40.08 15.1294 40.4695 15.3488C40.859 15.5628 41.3527 15.6697 41.9506 15.6697C42.3401 15.6697 42.7049 15.6149 43.0449 15.5051C43.3905 15.3954 43.6975 15.2336 43.9663 15.0197C44.2352 14.8003 44.4545 14.5288 44.6247 14.2052L47.8252 14.4191C47.5292 15.198 47.0791 15.8781 46.4758 16.4596C45.8724 17.0355 45.1456 17.4853 44.2954 17.809C43.4507 18.1271 42.5045 18.2862 41.4569 18.2862Z" fill="#13017D"/>
<path d="M36.3843 5.40135L35.948 8.03429H28.3291L28.7734 5.40135H36.3843ZM30.9948 2.37349H34.4999L32.5416 14.1559C32.4869 14.4795 32.4952 14.7318 32.5663 14.9128C32.6378 15.0884 32.7558 15.2118 32.9201 15.2831C33.0903 15.3544 33.2931 15.3901 33.529 15.3901C33.6937 15.3901 33.8611 15.3763 34.0309 15.3489C34.2011 15.316 34.33 15.2913 34.4177 15.2749L34.5494 17.8831C34.352 17.9434 34.0859 18.0093 33.7511 18.0806C33.4221 18.1519 33.0326 18.1958 32.5828 18.2122C31.7271 18.2451 31.0031 18.1327 30.4107 17.8749C29.8183 17.6116 29.3932 17.2084 29.1354 16.6654C28.8776 16.1223 28.8227 15.4394 28.9708 14.6166L30.9948 2.37349Z" fill="#13017D"/>
<path d="M18.5768 10.733L17.3591 18.0394H13.8622L15.9685 5.40129H19.3008L18.9388 7.63103H19.0787C19.4791 6.89054 20.0441 6.30635 20.7736 5.87849C21.5087 5.45063 22.3452 5.23671 23.2832 5.23671C24.1608 5.23671 24.8931 5.42869 25.48 5.81268C26.0724 6.19664 26.4893 6.74243 26.7306 7.45001C26.9775 8.15763 27.0186 9.0051 26.8541 9.99244L25.5047 18.0394H21.9996L23.242 10.6178C23.3682 9.84436 23.2694 9.24095 22.9458 8.80762C22.6277 8.36879 22.1148 8.14941 21.4072 8.14941C20.9355 8.14941 20.5021 8.25087 20.1072 8.45382C19.7122 8.65679 19.3804 8.95298 19.1116 9.34244C18.8483 9.7264 18.67 10.1899 18.5768 10.733Z" fill="#13017D"/>
<path d="M0.411423 18.0395L3.20892 1.18876H14.5634L14.0698 4.12614H6.27791L5.6197 8.14134H12.8274L12.3337 11.0787H5.126L4.46779 15.1021H12.2925L11.7989 18.0395H0.411423Z" fill="#13017D"/>
</g>
<defs>
<linearGradient id="paint0_linear_0_97" x1="0" y1="26.3867" x2="74.3336" y2="26.3867" gradientUnits="userSpaceOnUse">
<stop stop-color="#087AC3"/>
<stop offset="1" stop-color="#2609CF"/>
</linearGradient>
<clipPath id="clip0_0_97">
<rect width="172" height="30.8561" fill="white"/>
</clipPath>
</defs>
</svg>
