<svg width="242" height="186" viewBox="0 0 242 186" fill="none" xmlns="http://www.w3.org/2000/svg">
<g clip-path="url(#clip0_0_402)">
<mask id="mask0_0_402" style="mask-type:luminance" maskUnits="userSpaceOnUse" x="139" y="3" width="93" height="112">
<path d="M211.973 3.98759L139.195 29.1939L155.193 114.532L231.254 106.836L211.973 3.98759Z" fill="white"/>
</mask>
<g mask="url(#mask0_0_402)">
<mask id="mask1_0_402" style="mask-type:luminance" maskUnits="userSpaceOnUse" x="-47" y="-154" width="341" height="571">
<path d="M195.298 -153.31L-46.8273 -107.919L51.4617 416.384L293.587 370.994L195.298 -153.31Z" fill="white"/>
</mask>
<g mask="url(#mask1_0_402)">
<path opacity="0.4029" d="M133.278 15.4067L218.867 -3.13846L244.254 107.836L153.256 121.978L133.278 15.4067Z" fill="#53B6C4"/>
</g>
</g>
<mask id="mask2_0_402" style="mask-type:luminance" maskUnits="userSpaceOnUse" x="19" y="84" width="14" height="7">
<path d="M19.8988 85.205L32.1193 90.9352C32.1193 90.9352 32.6602 91.0421 32.6917 90.0987L20.4712 84.3685" fill="white"/>
</mask>
<g mask="url(#mask2_0_402)">
<mask id="mask3_0_402" style="mask-type:luminance" maskUnits="userSpaceOnUse" x="-93" y="-294" width="542" height="906">
<path d="M292.358 -293.489L-92.0646 -221.423L64.0092 611.123L448.432 539.057L292.358 -293.489Z" fill="white"/>
</mask>
<g mask="url(#mask3_0_402)">
<path d="M35.4281 76.3563L13.6911 80.4312L17.2001 99.1491L38.9371 95.0742L35.4281 76.3563Z" fill="#464660"/>
</g>
</g>
<mask id="mask4_0_402" style="mask-type:luminance" maskUnits="userSpaceOnUse" x="9" y="77" width="14" height="13">
<path d="M20.5594 77.0599L9.8922 79.0596L11.8919 89.7268L22.5591 87.7271L20.5594 77.0599Z" fill="white"/>
</mask>
<g mask="url(#mask4_0_402)">
<mask id="mask5_0_402" style="mask-type:luminance" maskUnits="userSpaceOnUse" x="-93" y="-294" width="542" height="906">
<path d="M292.357 -293.489L-92.0648 -221.423L64.0089 611.123L448.431 539.057L292.357 -293.489Z" fill="white"/>
</mask>
<g mask="url(#mask5_0_402)">
<mask id="mask6_0_402" style="mask-type:luminance" maskUnits="userSpaceOnUse" x="8" y="75" width="17" height="17">
<path d="M21.9619 75.6509L8.67818 78.1412L11.1684 91.4249L24.4521 88.9346L21.9619 75.6509Z" fill="white"/>
</mask>
<g mask="url(#mask6_0_402)">
<mask id="mask7_0_402" style="mask-type:luminance" maskUnits="userSpaceOnUse" x="10" y="78" width="12" height="11">
<path d="M12.0867 86.8775C10.1874 84.5251 10.4894 81.135 12.7411 79.2545C14.9929 77.374 18.4836 77.6571 20.3641 79.9089C22.2635 82.2612 21.9614 85.6513 19.7097 87.5318C17.4768 89.513 14.0868 89.211 12.0867 86.8775Z" fill="white"/>
</mask>
<g mask="url(#mask7_0_402)">
<mask id="mask8_0_402" style="mask-type:luminance" maskUnits="userSpaceOnUse" x="9" y="76" width="15" height="15">
<path d="M21.1441 76.8458L9.87305 78.9588L11.986 90.2298L23.257 88.1169L21.1441 76.8458Z" fill="white"/>
</mask>
<g mask="url(#mask8_0_402)">
<path d="M24.7292 70.9652L3.79729 74.8892L7.7213 95.8211L28.6532 91.8971L24.7292 70.9652Z" fill="#8B76B9"/>
</g>
</g>
</g>
</g>
</g>
<mask id="mask9_0_402" style="mask-type:luminance" maskUnits="userSpaceOnUse" x="10" y="79" width="11" height="10">
<path d="M19.7289 87.6327C19.9113 87.4944 20.0937 87.356 20.2572 87.117C19.0119 87.1421 17.0496 86.6766 15.0684 84.4438C13.2445 82.4939 12.8672 80.4813 13.0245 79.0975C12.9238 79.1164 12.9427 79.217 12.8421 79.2359C10.5903 81.1164 10.2066 84.626 12.1877 86.8589C14.0871 89.2112 17.4772 89.5133 19.7289 87.6327Z" fill="white"/>
</mask>
<g mask="url(#mask9_0_402)">
<mask id="mask10_0_402" style="mask-type:luminance" maskUnits="userSpaceOnUse" x="-93" y="-294" width="542" height="906">
<path d="M292.358 -293.489L-92.0645 -221.423L64.0093 611.123L448.432 539.057L292.358 -293.489Z" fill="white"/>
</mask>
<g mask="url(#mask10_0_402)">
<path d="M22.6289 71.984L3.91098 75.493L7.7218 95.821L26.4397 92.3121L22.6289 71.984Z" fill="#431C8B"/>
</g>
</g>
<mask id="mask11_0_402" style="mask-type:luminance" maskUnits="userSpaceOnUse" x="25" y="50" width="104" height="105">
<path d="M128.859 103.53C128.091 132.217 104.403 154.783 75.8172 153.996C47.3316 153.19 24.8283 129.283 25.4959 100.615C26.2642 71.9279 49.9516 49.3617 78.5377 50.1488C107.124 50.936 129.627 74.8434 128.859 103.53Z" fill="white"/>
</mask>
<g mask="url(#mask11_0_402)">
<mask id="mask12_0_402" style="mask-type:luminance" maskUnits="userSpaceOnUse" x="-47" y="-154" width="341" height="571">
<path d="M195.298 -153.309L-46.8275 -107.919L51.4614 416.385L293.587 370.994L195.298 -153.309Z" fill="white"/>
</mask>
<g mask="url(#mask12_0_402)">
<path d="M121.1 37.6905L13.0187 57.9519L33.3557 166.436L141.437 146.174L121.1 37.6905Z" fill="#90D3DC"/>
</g>
</g>
<mask id="mask13_0_402" style="mask-type:luminance" maskUnits="userSpaceOnUse" x="41" y="60" width="6" height="5">
<path d="M41.1708 64.7581C41.3532 64.6197 41.674 64.6637 42.5797 64.494C43.4854 64.3242 43.8565 63.5254 44.3597 63.4311C44.844 63.2361 44.4981 63.6135 45.127 63.0789C45.756 62.5443 46.1397 62.3682 46.0642 61.9657C45.9699 61.4625 45.6805 62.1418 45.9699 61.4625C46.2592 60.7832 46.7498 60.0662 46.7498 60.0662C46.7498 60.0662 45.0139 60.8083 43.7182 61.6763C42.4225 62.5442 41.4539 64.6008 41.4539 64.6008" fill="white"/>
</mask>
<g mask="url(#mask13_0_402)">
<mask id="mask14_0_402" style="mask-type:luminance" maskUnits="userSpaceOnUse" x="-47" y="-154" width="341" height="571">
<path d="M195.298 -153.31L-46.8274 -107.919L51.4615 416.384L293.587 370.994L195.298 -153.31Z" fill="white"/>
</mask>
<g mask="url(#mask14_0_402)">
<path d="M49.4672 56.2233L36.6866 58.6192L38.5732 68.6826L51.3537 66.2867L49.4672 56.2233Z" fill="#FFF7EB"/>
</g>
</g>
<mask id="mask15_0_402" style="mask-type:luminance" maskUnits="userSpaceOnUse" x="74" y="117" width="8" height="13">
<path d="M77.938 118.076C77.938 118.076 75.7555 120.881 75.2837 121.699C74.812 122.517 74.4785 126.85 74.6734 127.334C74.8684 127.819 74.8432 129.907 75.7489 129.737C76.6546 129.567 77.0948 129.693 78.1515 128.662C79.2082 127.63 79.1642 127.951 79.2649 126.265C79.3656 124.58 79.4033 123.114 79.4033 123.114C79.4033 123.114 80.4978 120.617 80.8878 119.919C81.3784 119.202 81.5168 119.385 81.1898 118.196C80.8816 117.108 81.542 117.297 80.8816 117.108C80.1017 116.837 77.938 118.076 77.938 118.076Z" fill="white"/>
</mask>
<g mask="url(#mask15_0_402)">
<mask id="mask16_0_402" style="mask-type:luminance" maskUnits="userSpaceOnUse" x="-47" y="-154" width="341" height="571">
<path d="M195.298 -153.309L-46.8273 -107.919L51.4616 416.385L293.587 370.994L195.298 -153.309Z" fill="white"/>
</mask>
<g mask="url(#mask16_0_402)">
<path d="M83.7626 113.026L69.1706 115.761L72.5287 133.674L87.1206 130.939L83.7626 113.026Z" fill="#FFF7EB"/>
</g>
</g>
<mask id="mask17_0_402" style="mask-type:luminance" maskUnits="userSpaceOnUse" x="29" y="50" width="96" height="86">
<path d="M88.7521 50.734C88.7521 50.734 86.7583 51.2119 85.8337 51.2811C84.8273 51.4697 84.0097 52.6647 82.4624 52.7464C81.0158 52.8093 80.7013 53.9099 78.4559 53.6017C76.3112 53.2746 73.7262 52.8216 71.116 52.7901C68.5058 52.7585 62.9772 53.2741 61.04 54.054C59.1028 54.8338 56.9077 57.0162 56.8636 57.337C56.7189 57.6766 56.4233 58.8779 57.2661 58.9283C58.2284 59.0604 58.9957 58.7082 59.241 58.3497C59.4864 57.9912 59.8323 57.6138 59.8323 57.6138L61.4047 57.1107L63.0778 56.5887C63.0778 56.5887 64.2036 56.4818 63.9583 56.8403C63.7319 57.2995 63.8387 58.4253 62.0839 59.0668C60.4297 59.6894 62.2285 60.3939 59.2535 60.6391C56.2786 60.8843 55.637 60.7962 54.2093 60.9597C52.7815 61.1232 52.3853 60.6766 51.511 61.5697C50.6367 62.4628 49.1209 63.2678 47.9322 63.5948C46.8441 63.903 46.8126 63.1797 46.1585 64.1357C45.5861 64.9722 43.9507 67.3622 43.9507 67.3622L40.8436 68.5697C40.8436 68.5697 40.3153 69.0854 39.9882 69.5634C39.6612 70.0414 40.1769 70.5697 40.353 70.9534C40.5291 71.3371 40.0196 71.9534 41.2649 71.9283C42.5291 72.0038 43.4537 71.9347 44.5859 71.3058C45.718 70.6768 45.8879 69.9158 46.152 69.6579C46.4162 69.4001 46.5672 68.5384 47.2087 68.6265C47.8502 68.7146 48.1962 68.3372 48.6553 68.5636C49.1145 68.7901 49.5673 67.8718 49.1145 68.7901C48.6616 69.7083 47.8879 70.5826 48.5295 70.6706C49.2716 70.7399 49.9824 70.0858 50.366 69.9097C50.7497 69.7336 51.3535 69.6204 51.3535 69.6204C51.3535 69.6204 51.7686 70.1676 51.9258 70.4506C51.9824 70.7525 52.039 71.0544 52.3787 71.1991C52.5988 71.262 52.6177 71.3626 53.3221 71.2306C54.0265 71.0985 54.1397 71.7023 54.0265 71.0985C53.9134 70.4947 54.4417 69.979 54.6241 69.8406C54.8065 69.7023 53.4983 69.9475 53.6304 68.9852C53.7625 68.0229 53.687 67.6204 54.1525 67.3248L54.6179 67.0292C54.6179 67.0292 56.1022 68.8343 56.3915 69.8218C56.8003 70.8911 56.3726 71.3879 56.0895 71.5451C55.8065 71.7024 54.9133 72.4948 55.5108 72.9037C56.1083 73.3125 56.2656 73.5956 57.3159 73.0861C58.3475 72.4761 58.9576 71.8409 58.9576 71.8409C58.9576 71.8409 59.0016 71.5201 59.6809 71.8094C60.3413 71.9981 62.1527 71.6586 61.9262 72.1177C61.6998 72.5768 61.2155 72.7718 61.4545 72.9353C61.6746 72.9982 61.9639 73.9857 63.1527 73.6587C64.3414 73.3317 64.4798 73.5141 65.2848 73.3631C66.0899 73.2122 67.7063 74.0551 67.7063 74.0551C67.7063 74.0551 67.6623 74.3758 67.5553 74.9167C67.4673 75.5583 66.9137 76.4954 66.4043 77.1118C65.9954 77.7093 65.7124 77.8665 65.0079 77.9986C64.3035 78.1306 62.6808 77.8098 62.6808 77.8098C62.6808 77.8098 62.1273 77.0802 61.0455 76.8663C60.0832 76.7342 60.1587 77.1367 58.8568 76.8599C57.5548 76.5832 57.5548 76.5832 56.7498 76.7341C55.9635 76.9856 54.976 78.9417 53.9571 78.5077C53.0577 78.1554 51.8376 77.7591 51.0451 76.866C50.1709 76.0923 49.0576 75.1551 49.0576 75.1551C49.0576 75.1551 49.391 74.1551 46.1393 74.0355C42.7681 73.8341 42.0007 74.1863 42.0007 74.1863L37.8118 76.8467C37.8118 76.8467 36.5538 79.5826 35.7864 79.9348C35.0191 80.287 33.5473 80.7712 32.5472 82.1046C31.6478 83.4191 30.0752 87.2557 30.1192 90.2684C30.1631 93.2811 29.7542 95.5454 29.9806 96.753C30.207 97.9606 32.1819 99.0487 34.1442 99.5142C36.1065 99.9797 37.7292 100.301 38.8299 100.615C39.9494 101.03 40.9244 100.118 41.8237 103.804C42.7229 107.49 43.2702 105.408 44.855 110.528C46.4398 115.647 45.9744 114.276 46.1945 117.673C46.3138 121.088 43.1565 119.805 46.71 123.201C50.2635 126.598 50.3262 133.045 52.2193 134.252C54.2131 135.441 56.4773 135.85 59.1693 135.762C61.8612 135.674 62.5594 136.064 62.7669 135.504C62.9557 134.844 63.6916 132.102 64.4024 131.448C65.0125 130.812 65.8993 130.542 65.5283 129.674C65.1572 128.806 64.5157 128.718 64.7421 128.259C65.0503 127.68 66.78 125.793 66.2643 125.265C65.6291 124.655 65.258 123.787 65.258 123.787C65.258 123.787 69.0255 122.768 70.5288 121.34C72.032 119.913 72.3717 120.057 72.4912 118.472C72.6108 116.887 70.5291 113.007 71.1455 111.849C71.7619 110.692 73.6865 109.29 73.8124 108.849C73.9382 108.409 78.8568 103.528 80.1085 101.315C81.2596 99.1196 82.0081 97 81.549 96.7735C80.9892 96.566 76.8129 96.5155 75.5487 96.44C74.2845 96.3645 73.5549 96.9179 74.2845 96.3645C75.0141 95.811 77.247 93.8299 81.0774 92.591C84.9078 91.352 86.0085 89.9998 87.1281 88.7482C88.2477 87.4966 88.5747 88.6854 88.0716 87.113C87.6691 85.5217 88.5559 85.2512 86.8766 84.6285C85.0967 84.0247 83.4111 83.924 82.6123 83.5529C81.7129 83.2006 81.2727 83.0748 80.7003 82.2446C80.2475 81.4961 79.1217 81.603 78.933 80.5966C78.845 79.5714 78.6878 79.2884 78.6878 79.2884C78.6878 79.2884 80.0337 79.2444 81.8766 79.6281C83.8201 79.993 85.6252 80.1754 86.0088 79.9994C86.4114 79.9239 87.0592 81.1567 87.3988 81.3013C87.7384 81.446 88.9334 82.2637 89.9775 82.2763C91.0027 82.1883 94.5941 82.4526 95.5752 82.6853C96.5564 82.9181 98.6193 85.0314 99.9275 86.4529C101.255 87.9751 102.676 90.0004 102.676 90.0004C102.676 90.0004 103.009 90.6671 103.909 91.0193C104.726 91.4911 105.959 92.51 106.764 92.3591C107.588 92.3088 108.053 92.0132 108.381 91.5352L108.708 91.0572C108.708 91.0572 108.104 89.5037 109.117 88.793C110.129 88.0823 110.884 87.1074 111.658 86.2332C112.331 85.3778 113.104 84.5036 113.727 84.491C114.35 84.4785 116.098 84.359 116.84 84.4283C117.582 84.4975 117.589 85.6422 118.406 84.4472C119.243 83.3528 118.589 82.6421 120.004 81.8559C121.319 81.0886 122.621 79.6987 123.3 79.988C123.96 80.1767 124.275 80.7428 124.243 80.0195C124.413 79.2585 113.847 56.2382 88.7521 50.734ZM65.5051 68.4258C64.3793 68.5327 63.0711 68.778 62.4736 68.3691C61.8761 67.9603 63.8762 65.2936 63.8762 65.2936C63.8762 65.2936 65.3858 65.0106 66.6059 65.4069C67.8261 65.8031 67.0462 65.5327 67.3732 66.7214C67.7002 67.9101 67.6499 67.0862 69.5116 67.5706C71.3733 68.0549 70.7318 67.9669 71.474 68.0361C72.2161 68.1053 71.9457 68.8852 71.4173 69.4009C70.889 69.9166 70.4991 68.948 68.1908 68.8599C66.046 68.5328 66.6498 68.4196 65.5051 68.4258ZM73.5299 92.3391C72.9827 92.7542 72.165 92.2825 71.643 92.2762C71.121 92.2699 70.0581 90.4899 69.926 89.7854C69.8946 89.0621 69.5109 89.2382 67.8316 88.6155C66.1523 87.9928 66.4354 86.1688 65.2908 84.5083C64.2279 82.7283 64.9701 81.1308 64.9701 81.1308C64.9701 81.1308 65.5487 81.439 66.2909 81.5082C67.0331 81.5774 67.9325 81.9297 69.2658 82.9297C70.6181 84.0305 71.3538 87.9552 71.3538 87.9552C71.3538 87.9552 71.901 89.2069 72.3664 90.578C72.7311 91.968 74.0582 91.8234 73.5299 92.3391ZM83.5875 74.3072C83.2605 74.7852 82.9271 74.1185 81.8642 74.0052C80.7006 73.9109 79.2792 73.5523 78.7635 73.024C78.2477 72.4956 78.2352 71.8729 78.7321 70.6339C79.2479 69.4955 77.7321 68.6338 77.663 67.7092C77.5938 66.7846 78.8015 64.8915 78.8015 64.8915C78.8015 64.8915 80.3864 65.0111 80.789 64.9356C81.1915 64.8601 81.2229 65.5834 80.877 65.9608C80.6317 66.3193 80.5499 66.4388 80.8203 67.3257C81.1914 68.1936 81.8204 67.659 82.1411 67.7031C82.3801 67.8666 82.1411 69.3698 81.8454 70.5711C81.707 72.0555 83.8957 73.7286 83.5875 74.3072Z" fill="white"/>
</mask>
<g mask="url(#mask17_0_402)">
<mask id="mask18_0_402" style="mask-type:luminance" maskUnits="userSpaceOnUse" x="-47" y="-154" width="341" height="571">
<path d="M195.298 -153.309L-46.8275 -107.919L51.4615 416.385L293.587 370.994L195.298 -153.309Z" fill="white"/>
</mask>
<g mask="url(#mask18_0_402)">
<path d="M120.175 39.4263L19.4406 58.3106L35.5516 144.252L136.286 125.368L120.175 39.4263Z" fill="#FFF7EB"/>
</g>
</g>
<mask id="mask19_0_402" style="mask-type:luminance" maskUnits="userSpaceOnUse" x="152" y="45" width="14" height="27">
<path d="M165.46 45.9374C165.177 46.0947 156.183 52.5726 154.038 55.579C151.994 58.5665 153.541 61.8183 153.497 62.139C153.453 62.4598 153.144 64.7052 153.352 65.8121C153.56 66.9191 154.478 69.0387 154.893 69.5859C155.427 70.2149 156.056 71.3471 156.056 71.3471L163.604 63.2652" fill="white"/>
</mask>
<g mask="url(#mask19_0_402)">
<mask id="mask20_0_402" style="mask-type:luminance" maskUnits="userSpaceOnUse" x="-47" y="-154" width="341" height="571">
<path d="M195.298 -153.31L-46.8273 -107.919L51.4616 416.384L293.587 370.994L195.298 -153.31Z" fill="white"/>
</mask>
<g mask="url(#mask20_0_402)">
<path d="M168.077 42.1133L146.34 46.1883L151.83 75.4728L173.567 71.3979L168.077 42.1133Z" fill="#F27C4F"/>
</g>
</g>
<mask id="mask21_0_402" style="mask-type:luminance" maskUnits="userSpaceOnUse" x="157" y="41" width="39" height="44">
<path d="M158.107 59.5039C158.107 59.5039 157.233 55.3968 158.208 52.8181C159.183 50.2394 164.655 46.0884 165.441 45.8369C166.227 45.5853 169.957 46.032 170.781 45.9817C171.605 45.9314 174.102 45.3591 174.102 45.3591L175.045 45.3906C175.045 45.3906 180.184 40.573 186.675 41.8563C193.166 43.1396 196.235 51.7312 195.939 54.5993C195.643 57.4673 194.763 58.8825 192.725 59.6812C190.706 60.5805 188.668 61.3792 188.668 61.3792C188.668 61.3792 187.297 68.5116 185.592 71.6437C183.888 74.7759 182.366 76.103 182.057 76.6816C181.648 77.2791 180.837 77.952 180.95 78.5558C181.177 79.7635 171.723 84.3483 170.981 84.279C170.239 84.2098 167.44 84.8387 166.201 84.3418C164.861 83.8637 159.905 76.8758 159.905 76.8758" fill="white"/>
</mask>
<g mask="url(#mask21_0_402)">
<mask id="mask22_0_402" style="mask-type:luminance" maskUnits="userSpaceOnUse" x="-47" y="-154" width="341" height="571">
<path d="M195.298 -153.31L-46.8273 -107.919L51.4616 416.384L293.587 370.994L195.298 -153.31Z" fill="white"/>
</mask>
<g mask="url(#mask22_0_402)">
<path d="M196.003 36.045L150.315 44.6099L158.842 90.0965L204.53 81.5316L196.003 36.045Z" fill="#F27C4F"/>
</g>
</g>
<mask id="mask23_0_402" style="mask-type:luminance" maskUnits="userSpaceOnUse" x="159" y="50" width="37" height="35">
<path d="M195.027 50.2908C194.945 52.0771 194.845 53.7627 194.599 54.1212C194.209 54.8193 188.983 58.6118 185.505 58.9513C183.555 59.1085 180.309 58.4668 177.655 57.0893C177.316 56.9446 176.913 57.0201 176.668 57.3786C176.341 57.8566 175.913 58.3535 175.548 58.6302C174.737 59.3032 172.869 59.3408 170.969 60.3219C169.07 61.3031 165.837 64.6176 165.837 64.6176C165.755 64.7371 165.673 64.8566 165.491 64.9949C164 67.0453 164.717 74.2029 164.572 74.5425L159.547 76.6305L159.603 76.9324C159.603 76.9324 164.66 83.9014 165.899 84.3983C167.239 84.8764 169.937 84.2664 170.679 84.3356C171.421 84.4048 180.975 79.8011 180.183 78.908C179.529 78.1973 180.655 78.0904 180.944 77.4111C181.353 76.8136 183.485 74.8513 185.271 71.5997C186.976 68.4675 188.347 61.3351 188.347 61.3351C188.347 61.3351 190.366 60.4358 192.404 59.6371C194.423 58.7377 195.423 57.4044 195.618 54.5552C195.989 53.7564 195.669 52.0457 195.027 50.2908Z" fill="white"/>
</mask>
<g mask="url(#mask23_0_402)">
<mask id="mask24_0_402" style="mask-type:luminance" maskUnits="userSpaceOnUse" x="-47" y="-154" width="341" height="571">
<path d="M195.298 -153.31L-46.8276 -107.919L51.4614 416.384L293.587 370.994L195.298 -153.31Z" fill="white"/>
</mask>
<g mask="url(#mask24_0_402)">
<path d="M197.946 46.4102L152.258 54.9751L158.842 90.0964L204.53 81.5315L197.946 46.4102Z" fill="#D8522A"/>
</g>
</g>
<mask id="mask25_0_402" style="mask-type:luminance" maskUnits="userSpaceOnUse" x="153" y="54" width="32" height="44">
<path d="M184.258 87.3111C183.617 87.223 181.466 87.418 181.145 87.3739C180.723 87.3487 180.195 86.1977 180.082 83.9272C179.969 81.6566 181.202 77.6754 181.202 77.6754C181.202 77.6754 179.623 80.3673 175.981 79.279C172.258 78.3103 170.094 76.2158 170.094 76.2158C170.094 76.2158 170.579 76.0208 170.95 75.2221C171.422 74.4045 170.824 73.9956 170.629 73.5113C170.434 73.027 172.768 72.6937 172.548 70.9641C172.327 69.2344 170.309 66.8003 169.019 67.1462C167.629 67.5109 166.849 70.5739 166.497 71.4733C166.245 72.3539 168.635 75.656 169.069 76.3038C169.503 76.9517 166.138 81.2285 166.138 81.2285C166.138 81.2285 167.522 78.0523 167.214 76.9642C166.906 75.8761 163.717 73.8696 163.503 68.2844C163.271 62.5986 164.68 60.6678 163.692 59.2903C162.705 57.9128 162.881 54.963 162.881 54.963C155.283 60.5542 156.956 65.0325 156.673 66.8564C156.509 68.7622 153.635 73.9887 153.635 73.9887C154.358 73.9573 156.339 74.5235 156.339 74.5235C156.377 76.3915 156.477 78.0393 156.622 79.3665C157.326 79.2344 160.283 78.8886 160.465 78.7502C160.647 78.6118 159.433 81.027 157.716 81.8697C157.333 82.0458 157.106 82.505 157.182 82.9075C157.823 86.3291 158.546 86.2976 158.546 86.2976C161.848 87.2412 166.54 87.82 166.54 87.82C166.54 87.82 166.446 90.6503 166.037 91.2478C165.628 91.8453 163.811 92.7069 163.811 92.7069L165.213 97.9651C165.213 97.9651 176.39 95.349 179.761 93.8836C183.095 92.217 184.9 87.3992 184.258 87.3111Z" fill="white"/>
</mask>
<g mask="url(#mask25_0_402)">
<mask id="mask26_0_402" style="mask-type:luminance" maskUnits="userSpaceOnUse" x="-47" y="-154" width="341" height="571">
<path d="M195.298 -153.309L-46.8275 -107.919L51.4615 416.385L293.587 370.994L195.298 -153.309Z" fill="white"/>
</mask>
<g mask="url(#mask26_0_402)">
<path d="M180.354 48.1459L146.641 54.4659L155.715 102.871L189.428 96.5509L180.354 48.1459Z" fill="#F7E4D0"/>
</g>
</g>
<mask id="mask27_0_402" style="mask-type:luminance" maskUnits="userSpaceOnUse" x="163" y="69" width="5" height="11">
<path d="M163.572 69.2089C163.572 69.2089 163.151 72.5172 163.239 73.5424C163.327 74.5676 165.314 76.2785 165.39 76.681C165.465 77.0835 163.409 79.4484 163.409 79.4484C163.409 79.4484 166.214 78.2975 166.679 78.0019C167.145 77.7063 167.208 75.8194 167.069 75.637C166.931 75.4546 165.164 72.1399 165.164 72.1399" fill="white"/>
</mask>
<g mask="url(#mask27_0_402)">
<mask id="mask28_0_402" style="mask-type:luminance" maskUnits="userSpaceOnUse" x="-47" y="-154" width="341" height="571">
<path d="M195.298 -153.31L-46.8273 -107.919L51.4616 416.384L293.587 370.994L195.298 -153.31Z" fill="white"/>
</mask>
<g mask="url(#mask28_0_402)">
<path d="M168.504 64.9509L157.736 66.9695L160.792 83.2723L171.56 81.2536L168.504 64.9509Z" fill="#EFC3AB"/>
</g>
</g>
<mask id="mask29_0_402" style="mask-type:luminance" maskUnits="userSpaceOnUse" x="168" y="68" width="5" height="9">
<path d="M169.912 69.6871C168.749 71.2595 167.931 70.7877 168.076 72.1148C168.126 72.9388 169.289 74.6999 170.176 76.0962C170.359 75.9578 170.623 75.7 170.931 75.1213C171.403 74.3037 170.805 73.8949 170.61 73.4106C170.415 72.9262 172.749 72.593 172.529 70.8633C172.359 69.9576 171.831 68.8066 171.057 68.0141C170.648 68.6116 170.321 69.0896 169.912 69.6871Z" fill="white"/>
</mask>
<g mask="url(#mask29_0_402)">
<mask id="mask30_0_402" style="mask-type:luminance" maskUnits="userSpaceOnUse" x="-47" y="-154" width="341" height="571">
<path d="M195.298 -153.31L-46.8275 -107.919L51.4614 416.384L293.587 370.994L195.298 -153.31Z" fill="white"/>
</mask>
<g mask="url(#mask30_0_402)">
<path d="M174.579 64.0201L163.61 66.0765L166.251 80.1652L177.22 78.1089L174.579 64.0201Z" fill="#EFC3AB"/>
</g>
</g>
<mask id="mask31_0_402" style="mask-type:luminance" maskUnits="userSpaceOnUse" x="158" y="76" width="27" height="22">
<path d="M158.509 86.0963C161.83 87.1405 166.503 87.6186 166.503 87.6186C166.503 87.6186 166.408 90.4489 165.999 91.0464C165.591 91.6439 162.603 92.9332 162.603 92.9332L165.175 97.7637C165.175 97.7637 176.352 95.1476 179.723 93.6822C183.095 92.2169 185.485 87.1853 184.843 87.0972C184.202 87.0091 181.547 87.2984 181.227 87.2543C180.805 87.2291 180.277 86.0781 180.164 83.8076C180.051 81.537 182.34 76.5243 182.34 76.5243C182.34 76.5243 179.805 80.2288 176.082 79.2601C173.12 78.4612 171.069 76.9705 170.434 76.3604C170.887 77.1089 171.101 77.6938 171.176 78.0963C171.321 79.4234 168.736 85.6375 165.515 86.2412C165.434 86.3607 164.125 86.6059 158.509 86.0963Z" fill="white"/>
</mask>
<g mask="url(#mask31_0_402)">
<mask id="mask32_0_402" style="mask-type:luminance" maskUnits="userSpaceOnUse" x="-47" y="-154" width="341" height="571">
<path d="M195.298 -153.31L-46.8274 -107.919L51.4615 416.384L293.587 370.994L195.298 -153.31Z" fill="white"/>
</mask>
<g mask="url(#mask32_0_402)">
<path d="M185.026 70.2913L153.327 76.2339L158.232 102.399L189.931 96.4562L185.026 70.2913Z" fill="#EFC3AB"/>
</g>
</g>
<mask id="mask33_0_402" style="mask-type:luminance" maskUnits="userSpaceOnUse" x="107" y="74" width="7" height="9">
<path d="M107.922 77.9748C108.368 77.5785 109.356 75.6225 110.186 75.0502C111.016 74.4779 111.746 73.9244 112.406 74.1131C113.067 74.3018 112.45 77.1258 112.689 77.2894C112.928 77.4529 112.155 78.3271 112.155 78.3271C112.155 78.3271 113.658 80.2329 113.513 80.5726C113.368 80.9122 111.287 82.0317 111.287 82.0317" fill="white"/>
</mask>
<g mask="url(#mask33_0_402)">
<mask id="mask34_0_402" style="mask-type:luminance" maskUnits="userSpaceOnUse" x="-47" y="-154" width="341" height="571">
<path d="M195.298 -153.31L-46.8276 -107.919L51.4613 416.384L293.587 370.994L195.298 -153.31Z" fill="white"/>
</mask>
<g mask="url(#mask34_0_402)">
<path d="M115.205 70.1508L103.532 72.3391L106.173 86.4279L117.846 84.2395L115.205 70.1508Z" fill="#EFC3AB"/>
</g>
</g>
<mask id="mask35_0_402" style="mask-type:luminance" maskUnits="userSpaceOnUse" x="109" y="59" width="11" height="22">
<path d="M118.005 59.5216L109.802 80.2266C109.802 80.2266 109.676 80.6669 110.482 80.516C111.305 80.4657 119.564 60.0625 119.564 60.0625" fill="white"/>
</mask>
<g mask="url(#mask35_0_402)">
<mask id="mask36_0_402" style="mask-type:luminance" maskUnits="userSpaceOnUse" x="-90" y="-218" width="434" height="727">
<path d="M218.622 -217.267L-89.7209 -159.464L35.4513 508.244L343.794 450.44L218.622 -217.267Z" fill="white"/>
</mask>
<g mask="url(#mask36_0_402)">
<path d="M122.766 54.3582L101.432 58.3577L106.544 85.6295L127.879 81.6301L122.766 54.3582Z" fill="#464660"/>
</g>
</g>
<mask id="mask37_0_402" style="mask-type:luminance" maskUnits="userSpaceOnUse" x="113" y="73" width="47" height="35">
<path d="M113.935 73.9307C113.935 73.9307 115.847 73.5723 118.055 73.6793C120.162 73.8051 123.243 76.3525 123.816 77.1827C124.388 78.013 124.344 80.0005 125.709 81.7239C127.073 83.4473 140.35 98.1465 142.539 98.1529C144.728 98.1592 159.288 98.0339 159.288 98.0339C159.288 98.0339 146.91 107.021 146.168 106.952C145.426 106.883 144.457 107.273 140.746 106.927C139.161 106.807 122.834 88.6172 122.834 88.6172" fill="white"/>
</mask>
<g mask="url(#mask37_0_402)">
<mask id="mask38_0_402" style="mask-type:luminance" maskUnits="userSpaceOnUse" x="-47" y="-154" width="341" height="571">
<path d="M195.298 -153.31L-46.8275 -107.919L51.4615 416.384L293.587 370.994L195.298 -153.31Z" fill="white"/>
</mask>
<g mask="url(#mask38_0_402)">
<path d="M155.981 62.6108L110.092 71.2134L118.374 115.392L164.263 106.789L155.981 62.6108Z" fill="#EFC3AB"/>
</g>
</g>
<mask id="mask39_0_402" style="mask-type:luminance" maskUnits="userSpaceOnUse" x="104" y="70" width="48" height="49">
<path d="M110.897 72.7293C110.922 72.3079 111.306 72.1318 111.645 72.2765C112.702 72.9118 114.495 74.1383 115.036 74.2452C115.815 74.5157 116.325 73.8994 117.337 74.8554C118.331 75.7108 121.526 78.862 122.073 80.1137C122.602 81.2647 123.627 84.5101 124.3 86.9883C124.973 89.4664 139.583 106.832 140.507 106.763C141.432 106.694 146.067 106.971 146.067 106.971C146.067 106.971 149.105 113.173 151.552 115.11C151.552 115.11 146.815 116.519 140.475 117.707C138.664 118.047 136.727 118.827 135.702 117.248C130.928 110.122 118.922 91.6424 118.01 90.6675C116.941 89.4095 109.94 88.7426 108.632 87.3211C107.324 85.8996 104.431 82.6918 104.551 81.1068C104.569 79.5407 104.469 79.5596 105.129 78.0816C105.79 76.6035 105.947 75.2198 106.438 74.5028C106.928 73.7858 108.507 71.0939 109.01 70.9996C109.513 70.9053 110.067 73.3016 109.425 74.8803C108.784 76.459 108.815 77.1823 109.129 77.7483C109.545 78.2956 111.129 80.0818 114.457 78.9373C114.457 78.9373 111.287 77.0314 110.91 75.0187C110.903 73.874 110.872 73.1507 110.897 72.7293Z" fill="white"/>
</mask>
<g mask="url(#mask39_0_402)">
<mask id="mask40_0_402" style="mask-type:luminance" maskUnits="userSpaceOnUse" x="-47" y="-154" width="341" height="571">
<path d="M195.298 -153.31L-46.8273 -107.919L51.4616 416.384L293.587 370.994L195.298 -153.31Z" fill="white"/>
</mask>
<g mask="url(#mask40_0_402)">
<path d="M144.836 60.9498L99.1482 69.5147L109.883 126.776L155.571 118.211L144.836 60.9498Z" fill="#F9E9DC"/>
</g>
</g>
<mask id="mask41_0_402" style="mask-type:luminance" maskUnits="userSpaceOnUse" x="140" y="108" width="8" height="10">
<path d="M144.036 108.914C144.036 108.914 143.073 115.449 140.155 117.663C140.155 117.663 145.344 117.003 147.966 115.99" fill="white"/>
</mask>
<g mask="url(#mask41_0_402)">
<mask id="mask42_0_402" style="mask-type:luminance" maskUnits="userSpaceOnUse" x="-47" y="-154" width="341" height="571">
<path d="M195.298 -153.31L-46.8274 -107.919L51.4616 416.384L293.587 370.994L195.298 -153.31Z" fill="white"/>
</mask>
<g mask="url(#mask42_0_402)">
<path d="M149.168 104.619L134.878 107.298L137.557 121.588L151.847 118.909L149.168 104.619Z" fill="#EFC3AB"/>
</g>
</g>
<mask id="mask43_0_402" style="mask-type:luminance" maskUnits="userSpaceOnUse" x="142" y="86" width="56" height="65">
<path d="M142.885 106.109C142.885 106.109 144.74 117.116 150.721 124.016L153.545 122.966C153.545 122.966 155.067 128.306 157.073 131.784C159.079 135.262 158.633 138.992 158.589 139.312C158.645 139.614 157.425 144.218 157.695 145.105C157.966 145.992 157.532 148.678 157.532 148.678C157.532 148.678 161.846 152.244 178.388 149.351C194.93 146.459 189.848 143.244 193.458 141.943C193.942 141.748 194.326 141.572 194.729 141.496C196.383 140.874 197.326 139.238 197.006 137.527C196.006 132.194 194.371 121.25 195.704 117.25C197.516 111.91 197.887 99.444 193.843 93.431C190.391 88.3489 186.026 87.2921 184.824 86.9965C184.604 86.9336 184.422 87.072 184.34 87.1915C183.403 88.3047 178.805 93.2293 172.308 94.1348C165.006 95.1912 162.565 92.7319 162.565 92.7319C162.565 92.7319 155.71 95.0588 152.986 97.7569C150.401 100.637 144.759 105.549 142.885 106.109Z" fill="white"/>
</mask>
<g mask="url(#mask43_0_402)">
<mask id="mask44_0_402" style="mask-type:luminance" maskUnits="userSpaceOnUse" x="-47" y="-154" width="341" height="571">
<path d="M195.298 -153.31L-46.8274 -107.919L51.4616 416.384L293.587 370.994L195.298 -153.31Z" fill="white"/>
</mask>
<g mask="url(#mask44_0_402)">
<path d="M196.114 81.6506L137.042 92.7246L149.305 158.137L208.377 147.063L196.114 81.6506Z" fill="#8B76B9"/>
</g>
</g>
<mask id="mask45_0_402" style="mask-type:luminance" maskUnits="userSpaceOnUse" x="153" y="119" width="12" height="32">
<path d="M153.545 122.966C153.545 122.966 160.753 119.74 161.357 119.626C161.961 119.513 158.696 127.105 159.098 130.363C159.501 133.621 163.753 135.74 164.621 137.036C165.589 138.313 162.771 140.508 161.626 143.848C160.482 147.187 161.349 150.15 161.349 150.15C161.349 150.15 157.764 149.363 156.23 148.401C156.23 148.401 156.903 140.879 157.268 138.935C157.652 137.092 156.079 135.929 156.23 135.067C156.381 134.205 156.595 133.124 156.645 132.281C156.658 131.237 152.928 129.123 153.545 122.966Z" fill="white"/>
</mask>
<g mask="url(#mask45_0_402)">
<mask id="mask46_0_402" style="mask-type:luminance" maskUnits="userSpaceOnUse" x="-47" y="-154" width="341" height="571">
<path d="M195.298 -153.309L-46.8275 -107.919L51.4614 416.385L293.587 370.994L195.298 -153.309Z" fill="white"/>
</mask>
<g mask="url(#mask46_0_402)">
<path d="M164.055 115.683L147.35 118.814L154.085 154.741L170.79 151.609L164.055 115.683Z" fill="#D8D0E8"/>
</g>
</g>
<mask id="mask47_0_402" style="mask-type:luminance" maskUnits="userSpaceOnUse" x="169" y="70" width="3" height="3">
<path d="M169.359 72.2911C169.195 72.5301 170.29 70.0332 170.812 70.0395C171.233 70.0647 171.78 71.3163 171.598 71.4547C171.415 71.5931 169.994 72.9012 169.774 72.8383C169.554 72.7754 169.359 72.2911 169.359 72.2911Z" fill="white"/>
</mask>
<g mask="url(#mask47_0_402)">
<mask id="mask48_0_402" style="mask-type:luminance" maskUnits="userSpaceOnUse" x="-47" y="-154" width="341" height="571">
<path d="M195.298 -153.309L-46.8275 -107.919L51.4614 416.385L293.587 370.994L195.298 -153.309Z" fill="white"/>
</mask>
<g mask="url(#mask48_0_402)">
<path d="M174.032 66.1025L165.076 67.7815L166.755 76.738L175.711 75.0589L174.032 66.1025Z" fill="#F7E4D0"/>
</g>
</g>
<mask id="mask49_0_402" style="mask-type:luminance" maskUnits="userSpaceOnUse" x="161" y="54" width="4" height="10">
<path d="M162.787 54.4599C162.787 54.4599 161.239 57.8751 161.384 59.2022C161.529 60.5293 162.321 61.4225 162.397 61.825C162.453 62.1269 162.095 63.5484 162.095 63.5484C162.095 63.5484 163.095 62.215 163.491 60.9948C163.868 59.674 163.906 58.2086 164.497 57.4727" fill="white"/>
</mask>
<g mask="url(#mask49_0_402)">
<mask id="mask50_0_402" style="mask-type:luminance" maskUnits="userSpaceOnUse" x="-47" y="-154" width="341" height="571">
<path d="M195.298 -153.309L-46.8273 -107.919L51.4616 416.385L293.587 370.994L195.298 -153.309Z" fill="white"/>
</mask>
<g mask="url(#mask50_0_402)">
<path d="M166.611 50.4098L156.749 52.2586L159.579 67.3537L169.441 65.5049L166.611 50.4098Z" fill="#F27C4F"/>
</g>
</g>
<mask id="mask51_0_402" style="mask-type:luminance" maskUnits="userSpaceOnUse" x="163" y="56" width="3" height="6">
<path d="M163.831 59.4727C163.831 59.4727 164.151 57.85 165.151 56.5166C165.151 56.5166 165.938 57.9318 165.604 58.9319C165.271 59.9319 163.881 61.9634 163.881 61.9634L163.831 59.4727Z" fill="white"/>
</mask>
<g mask="url(#mask51_0_402)">
<mask id="mask52_0_402" style="mask-type:luminance" maskUnits="userSpaceOnUse" x="-47" y="-154" width="341" height="571">
<path d="M195.298 -153.309L-46.8274 -107.919L51.4615 416.385L293.587 370.994L195.298 -153.309Z" fill="white"/>
</mask>
<g mask="url(#mask52_0_402)">
<path d="M167.969 52.6551L159.114 54.3152L161.264 65.7875L170.12 64.1273L167.969 52.6551Z" fill="#D8522A"/>
</g>
</g>
<mask id="mask53_0_402" style="mask-type:luminance" maskUnits="userSpaceOnUse" x="172" y="46" width="5" height="10">
<path d="M174.347 46.6673C174.347 46.6673 173.259 46.9755 173.026 47.9567C172.794 48.9378 173.083 53.2588 176.007 55.5231C175.989 55.4225 173.077 50.4473 174.347 46.6673Z" fill="white"/>
</mask>
<g mask="url(#mask53_0_402)">
<mask id="mask54_0_402" style="mask-type:luminance" maskUnits="userSpaceOnUse" x="-47" y="-154" width="341" height="571">
<path d="M195.298 -153.31L-46.8275 -107.919L51.4615 416.384L293.587 370.994L195.298 -153.31Z" fill="white"/>
</mask>
<g mask="url(#mask54_0_402)">
<path d="M176.863 42.862L168.611 44.409L171.479 59.7054L179.731 58.1584L176.863 42.862Z" fill="#D8522A"/>
</g>
</g>
<mask id="mask55_0_402" style="mask-type:luminance" maskUnits="userSpaceOnUse" x="153" y="73" width="4" height="3">
<path d="M153.597 73.7876C153.597 73.7876 154.886 75.1085 156.289 75.3664L156.301 74.3223C156.301 74.3223 154.842 73.7625 153.597 73.7876Z" fill="white"/>
</mask>
<g mask="url(#mask55_0_402)">
<mask id="mask56_0_402" style="mask-type:luminance" maskUnits="userSpaceOnUse" x="-47" y="-154" width="341" height="571">
<path d="M195.298 -153.309L-46.8275 -107.919L51.4615 416.385L293.587 370.995L195.298 -153.309Z" fill="white"/>
</mask>
<g mask="url(#mask56_0_402)">
<path d="M158.729 69.4924L149.773 71.1714L151.358 79.6247L160.314 77.9457L158.729 69.4924Z" fill="#EFC3AB"/>
</g>
</g>
<mask id="mask57_0_402" style="mask-type:luminance" maskUnits="userSpaceOnUse" x="157" y="62" width="4" height="4">
<path d="M157.585 62.8313C157.585 62.8313 159.409 63.1144 160.025 65.2906C160.025 65.2906 158.969 64.6553 158.208 64.4855C157.446 64.3156 157.207 64.1521 157.132 63.7496C156.956 63.3659 157.585 62.8313 157.585 62.8313Z" fill="white"/>
</mask>
<g mask="url(#mask57_0_402)">
<mask id="mask58_0_402" style="mask-type:luminance" maskUnits="userSpaceOnUse" x="-47" y="-154" width="341" height="571">
<path d="M195.298 -153.309L-46.8276 -107.919L51.4614 416.385L293.587 370.994L195.298 -153.309Z" fill="white"/>
</mask>
<g mask="url(#mask58_0_402)">
<path d="M162.113 58.6489L153.157 60.3279L154.893 69.5863L163.849 67.9072L162.113 58.6489Z" fill="#F27C4F"/>
</g>
</g>
<mask id="mask59_0_402" style="mask-type:luminance" maskUnits="userSpaceOnUse" x="118" y="87" width="8" height="8">
<path d="M125.281 88.8878C125.262 88.7872 125.488 88.328 125.036 87.5796C124.583 86.8311 121.878 87.9631 120.318 89.0889C118.777 90.3153 118.129 92.416 118.299 93.3217C118.469 94.2274 119.23 94.3973 119.633 94.3218C119.953 94.3659 120.538 94.152 120.538 94.152L120.104 93.5042C120.104 93.5042 119.18 93.5733 119.085 93.0702C118.991 92.567 120.016 90.8122 120.809 90.0387C121.601 89.2651 123.52 88.3846 124.124 88.2714C124.727 88.1582 125.281 88.8878 125.281 88.8878Z" fill="white"/>
</mask>
<g mask="url(#mask59_0_402)">
<mask id="mask60_0_402" style="mask-type:luminance" maskUnits="userSpaceOnUse" x="-47" y="-154" width="341" height="571">
<path d="M195.298 -153.31L-46.8273 -107.919L51.4616 416.384L293.587 370.994L195.298 -153.31Z" fill="white"/>
</mask>
<g mask="url(#mask60_0_402)">
<path d="M127.778 83.3151L113.589 85.9751L115.928 98.4538L130.117 95.7937L127.778 83.3151Z" fill="#F27C4F"/>
</g>
</g>
<mask id="mask61_0_402" style="mask-type:luminance" maskUnits="userSpaceOnUse" x="48" y="49" width="8" height="17">
<path d="M48.1213 49.6004L54.6809 65.1422C54.6809 65.1422 55.1966 65.6705 55.8885 64.9158L49.3289 49.374" fill="white"/>
</mask>
<g mask="url(#mask61_0_402)">
<mask id="mask62_0_402" style="mask-type:luminance" maskUnits="userSpaceOnUse" x="-86" y="-248" width="487" height="815">
<path d="M260.16 -247.972L-85.9209 -183.094L54.5511 566.228L400.632 501.349L260.16 -247.972Z" fill="white"/>
</mask>
<g mask="url(#mask62_0_402)">
<path d="M56.7133 43.1978L42.7251 45.8201L47.5358 71.4818L61.524 68.8595L56.7133 43.1978Z" fill="#464660"/>
</g>
</g>
<mask id="mask63_0_402" style="mask-type:luminance" maskUnits="userSpaceOnUse" x="121" y="89" width="6" height="10">
<path d="M125.853 89.7181C125.853 89.7181 125.293 89.5105 123.891 90.9193C122.507 92.4288 121.293 96.5107 121.941 97.7435C122.488 98.9951 123.356 98.6241 123.356 98.6241L122.821 97.9951C122.821 97.9951 122.161 97.8064 122.809 95.7057C123.457 93.605 124.608 91.4099 125.136 90.8942C125.784 90.4602 126.388 90.3471 126.388 90.3471L126.803 90.8943C126.721 91.0138 126.973 90.1332 125.853 89.7181Z" fill="white"/>
</mask>
<g mask="url(#mask63_0_402)">
<mask id="mask64_0_402" style="mask-type:luminance" maskUnits="userSpaceOnUse" x="-47" y="-154" width="341" height="571">
<path d="M195.298 -153.309L-46.8274 -107.919L51.4615 416.385L293.587 370.994L195.298 -153.309Z" fill="white"/>
</mask>
<g mask="url(#mask64_0_402)">
<path d="M129.155 85.6615L116.677 88.0008L119.45 102.794L131.928 100.455L129.155 85.6615Z" fill="#F27C4F"/>
</g>
</g>
<mask id="mask65_0_402" style="mask-type:luminance" maskUnits="userSpaceOnUse" x="186" y="101" width="8" height="10">
<path d="M186.855 101.721C186.855 101.721 187.377 108.394 193.113 110.652L186.855 101.721Z" fill="white"/>
</mask>
<g mask="url(#mask65_0_402)">
<mask id="mask66_0_402" style="mask-type:luminance" maskUnits="userSpaceOnUse" x="-47" y="-154" width="341" height="571">
<path d="M195.298 -153.309L-46.8273 -107.919L51.4616 416.385L293.587 370.994L195.298 -153.309Z" fill="white"/>
</mask>
<g mask="url(#mask66_0_402)">
<path d="M194.001 97.0477L183.032 99.104L186.069 115.306L197.038 113.25L194.001 97.0477Z" fill="#7765AA"/>
</g>
</g>
<mask id="mask67_0_402" style="mask-type:luminance" maskUnits="userSpaceOnUse" x="184" y="99" width="3" height="17">
<path d="M184.088 99.7394C184.088 99.7394 188.616 108.891 185.364 115.438L184.088 99.7394Z" fill="white"/>
</mask>
<g mask="url(#mask67_0_402)">
<mask id="mask68_0_402" style="mask-type:luminance" maskUnits="userSpaceOnUse" x="-47" y="-154" width="341" height="571">
<path d="M195.298 -153.309L-46.8273 -107.919L51.4617 416.385L293.587 370.994L195.298 -153.309Z" fill="white"/>
</mask>
<g mask="url(#mask68_0_402)">
<path d="M187.51 95.7644L178.654 97.4246L182.748 119.262L191.604 117.602L187.51 95.7644Z" fill="#7765AA"/>
</g>
</g>
<mask id="mask69_0_402" style="mask-type:luminance" maskUnits="userSpaceOnUse" x="113" y="48" width="14" height="14">
<path d="M116.319 49.4203C119.357 47.2882 123.565 48.062 125.716 51.2006C127.848 54.2385 127.074 58.4462 124.036 60.5783C120.998 62.7104 116.791 61.9366 114.64 58.798C112.508 55.7601 113.282 51.5524 116.319 49.4203Z" fill="white"/>
</mask>
<g mask="url(#mask69_0_402)">
<mask id="mask70_0_402" style="mask-type:luminance" maskUnits="userSpaceOnUse" x="-90" y="-218" width="434" height="727">
<path d="M218.622 -217.268L-89.7206 -159.464L35.4516 508.244L343.795 450.44L218.622 -217.268Z" fill="white"/>
</mask>
<g mask="url(#mask70_0_402)">
<path d="M128.836 42.282L107.401 46.3003L111.438 67.836L132.873 63.8177L128.836 42.282Z" fill="#90D3DC"/>
</g>
</g>
<mask id="mask71_0_402" style="mask-type:luminance" maskUnits="userSpaceOnUse" x="114" y="48" width="13" height="11">
<path d="M114.181 51.9048C121.055 51.3453 124.414 55.9242 125.867 58.6728C127.32 56.4212 127.295 53.5091 125.716 51.2008C123.584 48.1628 119.376 47.3891 116.319 49.4205C115.407 50.1123 114.634 50.9865 114.181 51.9048Z" fill="white"/>
</mask>
<g mask="url(#mask71_0_402)">
<mask id="mask72_0_402" style="mask-type:luminance" maskUnits="userSpaceOnUse" x="-90" y="-218" width="434" height="727">
<path d="M218.622 -217.268L-89.7207 -159.464L35.4515 508.244L343.794 450.44L218.622 -217.268Z" fill="white"/>
</mask>
<g mask="url(#mask72_0_402)">
<path d="M128.937 42.2631L108.81 46.0362L112.451 65.4586L132.578 61.6855L128.937 42.2631Z" fill="#53B6C4"/>
</g>
</g>
<mask id="mask73_0_402" style="mask-type:luminance" maskUnits="userSpaceOnUse" x="39" y="38" width="15" height="14">
<path d="M42.1591 39.4677C39.14 41.7004 38.5864 45.9711 40.8191 48.9901C43.0518 52.0092 47.3224 52.5628 50.3415 50.3301C53.3605 48.0974 53.9142 43.8268 51.6815 40.8077C49.3481 37.8075 45.1593 37.1344 42.1591 39.4677Z" fill="white"/>
</mask>
<g mask="url(#mask73_0_402)">
<mask id="mask74_0_402" style="mask-type:luminance" maskUnits="userSpaceOnUse" x="-86" y="-248" width="487" height="815">
<path d="M260.159 -247.972L-85.9212 -183.094L54.5508 566.228L400.632 501.35L260.159 -247.972Z" fill="white"/>
</mask>
<g mask="url(#mask74_0_402)">
<path d="M55.4491 31.4553L32.9071 35.6812L37.133 58.2232L59.675 53.9974L55.4491 31.4553Z" fill="#F6BA5B"/>
</g>
</g>
<mask id="mask75_0_402" style="mask-type:luminance" maskUnits="userSpaceOnUse" x="39" y="38" width="14" height="12">
<path d="M51.6627 40.7072C51.8199 40.9903 51.9583 41.1727 52.1155 41.4557C50.5935 41.116 48.1028 41.1662 45.046 43.1977C42.2722 45.0719 41.3601 47.4305 41.0582 49.1538C41.0393 49.0532 40.9198 48.9714 40.9198 48.9714C38.6871 45.9523 39.2407 41.6817 42.2598 39.449C45.1594 37.1345 49.3482 37.8076 51.6627 40.7072Z" fill="white"/>
</mask>
<g mask="url(#mask75_0_402)">
<mask id="mask76_0_402" style="mask-type:luminance" maskUnits="userSpaceOnUse" x="-86" y="-248" width="487" height="815">
<path d="M260.16 -247.972L-85.9209 -183.094L54.5512 566.228L400.632 501.35L260.16 -247.972Z" fill="white"/>
</mask>
<g mask="url(#mask76_0_402)">
<path d="M55.0468 31.5308L32.9073 35.6812L36.4917 54.8017L58.6312 50.6513L55.0468 31.5308Z" fill="#F38C00"/>
</g>
</g>
<mask id="mask77_0_402" style="mask-type:luminance" maskUnits="userSpaceOnUse" x="142" y="97" width="12" height="3">
<path d="M142.3 97.9895C142.3 97.9895 144.854 99.3859 146.439 99.5055C148.024 99.625 150.961 99.1786 151.445 98.9836C151.929 98.7886 153.024 97.9584 153.024 97.9584L142.3 97.9895Z" fill="white"/>
</mask>
<g mask="url(#mask77_0_402)">
<mask id="mask78_0_402" style="mask-type:luminance" maskUnits="userSpaceOnUse" x="-47" y="-154" width="341" height="571">
<path d="M195.298 -153.309L-46.8273 -107.919L51.4616 416.385L293.587 370.994L195.298 -153.309Z" fill="white"/>
</mask>
<g mask="url(#mask78_0_402)">
<path d="M155.282 92.2223L138.476 95.3728L140.193 104.531L156.999 101.38L155.282 92.2223Z" fill="#F7E4D0"/>
</g>
</g>
<mask id="mask79_0_402" style="mask-type:luminance" maskUnits="userSpaceOnUse" x="122" y="35" width="4" height="8">
<path d="M122.936 38.5962C123.188 37.7156 123.458 36.9357 123.609 36.0741C123.754 35.7344 123.836 35.6149 124.175 35.7596C124.616 35.8854 125.056 36.0112 125.496 36.137C125.817 36.1811 125.955 36.3635 125.811 36.7031C125.289 38.3635 124.886 40.1057 124.364 41.7662C124.194 42.5272 123.527 42.8605 122.867 42.6718C122.207 42.4831 121.873 41.8164 122.062 41.156C122.515 40.2377 122.666 39.3761 122.936 38.5962Z" fill="white"/>
</mask>
<g mask="url(#mask79_0_402)">
<mask id="mask80_0_402" style="mask-type:luminance" maskUnits="userSpaceOnUse" x="-94" y="-170" width="494" height="584">
<path d="M114.079 -169.088L-93.9835 -37.2456L191.51 413.296L399.572 281.454L114.079 -169.088Z" fill="white"/>
</mask>
<g mask="url(#mask80_0_402)">
<path d="M127.209 30.8385L116.063 35.2266L120.788 47.23L131.934 42.8418L127.209 30.8385Z" fill="#FDBD6D"/>
</g>
</g>
<mask id="mask81_0_402" style="mask-type:luminance" maskUnits="userSpaceOnUse" x="110" y="38" width="7" height="7">
<path d="M116.407 43.7785C116.156 44.6591 115.168 44.9484 114.414 44.2565C113.401 43.3004 112.489 42.3255 111.577 41.3506C111.319 41.0864 111.043 40.7216 110.684 40.4763C110.445 40.3128 110.407 40.1115 110.672 39.8536C111.017 39.4763 111.382 39.1995 111.728 38.8222C111.911 38.6838 112.112 38.6461 112.25 38.8285C113.54 40.1493 114.829 41.4702 116.118 42.7911C116.376 43.0552 116.452 43.4578 116.407 43.7785Z" fill="white"/>
</mask>
<g mask="url(#mask81_0_402)">
<mask id="mask82_0_402" style="mask-type:luminance" maskUnits="userSpaceOnUse" x="-95" y="-172" width="494" height="584">
<path d="M113.373 -171.031L-94.6896 -39.1889L190.804 411.353L398.866 279.511L113.373 -171.031Z" fill="white"/>
</mask>
<g mask="url(#mask82_0_402)">
<path d="M116.116 33.5346L105.923 37.5476L110.836 50.0273L121.029 46.0142L116.116 33.5346Z" fill="#FDBD6D"/>
</g>
</g>
<mask id="mask83_0_402" style="mask-type:luminance" maskUnits="userSpaceOnUse" x="127" y="45" width="9" height="4">
<path d="M127.993 47.2319C128.1 46.691 128.364 46.4331 128.867 46.3388C130.559 45.9174 132.352 45.4772 134.043 45.0559C134.345 44.9993 134.565 45.0622 134.622 45.3641C134.716 45.8673 134.911 46.3516 134.987 46.7541C135.043 47.056 134.962 47.1755 134.66 47.2321C132.867 47.6723 131.175 48.0936 129.383 48.5339C128.496 48.8043 127.823 47.9929 127.993 47.2319Z" fill="white"/>
</mask>
<g mask="url(#mask83_0_402)">
<mask id="mask84_0_402" style="mask-type:luminance" maskUnits="userSpaceOnUse" x="-96" y="-168" width="495" height="583">
<path d="M112.722 -167.554L-95.3403 -35.7119L190.153 414.83L398.216 282.988L112.722 -167.554Z" fill="white"/>
</mask>
<g mask="url(#mask84_0_402)">
<path d="M136.02 40.0323L123.35 45.0205L126.838 53.8802L139.508 48.8919L136.02 40.0323Z" fill="#FDBD6D"/>
</g>
</g>
<mask id="mask85_0_402" style="mask-type:luminance" maskUnits="userSpaceOnUse" x="116" y="35" width="5" height="8">
<path d="M120.188 41.7157C119.98 42.2754 119.615 42.5522 119.093 42.5459C118.571 42.5396 118.093 42.2125 117.999 41.7093C117.728 40.8225 117.559 39.9168 117.288 39.0299C117.037 38.2437 116.886 37.4386 116.634 36.6524C116.559 36.2499 116.64 36.1304 117.043 36.0549C117.445 35.9795 117.949 35.8851 118.332 35.709C118.634 35.6524 118.754 35.7342 118.81 36.0361C119.232 37.728 119.672 39.5206 120.093 41.2125C120.213 41.2943 120.15 41.5144 120.188 41.7157Z" fill="white"/>
</mask>
<g mask="url(#mask85_0_402)">
<mask id="mask86_0_402" style="mask-type:luminance" maskUnits="userSpaceOnUse" x="-95" y="-171" width="495" height="584">
<path d="M113.967 -170.138L-94.0949 -38.2961L191.399 412.246L399.461 280.404L113.967 -170.138Z" fill="white"/>
</mask>
<g mask="url(#mask86_0_402)">
<path d="M120.418 30.9871L111.558 34.4751L116.546 47.1453L125.406 43.6573L120.418 30.9871Z" fill="#FDBD6D"/>
</g>
</g>
<mask id="mask87_0_402" style="mask-type:luminance" maskUnits="userSpaceOnUse" x="125" y="38" width="7" height="7">
<path d="M126.817 44.8481C125.836 44.6153 125.527 43.5272 126.238 42.8731C127.213 41.9612 128.087 41.0681 129.062 40.1561C129.408 39.7787 129.773 39.502 130.119 39.1246C130.283 38.8856 130.484 38.8479 130.742 39.1121C131.119 39.458 131.396 39.8228 131.773 40.1688C132.012 40.3323 131.949 40.5524 131.767 40.6908C130.446 41.9801 129.207 43.15 127.886 44.4393C127.54 44.8166 127.138 44.8921 126.817 44.8481Z" fill="white"/>
</mask>
<g mask="url(#mask87_0_402)">
<mask id="mask88_0_402" style="mask-type:luminance" maskUnits="userSpaceOnUse" x="-95" y="-169" width="495" height="584">
<path d="M113.62 -168.147L-94.4419 -36.3051L191.052 414.237L399.114 282.395L113.62 -168.147Z" fill="white"/>
</mask>
<g mask="url(#mask88_0_402)">
<path d="M132.953 34.3983L120.473 39.3116L124.487 49.5049L136.966 44.5917L132.953 34.3983Z" fill="#FDBD6D"/>
</g>
</g>
<mask id="mask89_0_402" style="mask-type:luminance" maskUnits="userSpaceOnUse" x="108" y="114" width="9" height="5">
<path d="M116.003 115.524C116.21 116.631 114.669 117.857 112.556 118.254C110.443 118.65 108.562 118.065 108.355 116.958C108.147 115.851 109.688 114.624 111.801 114.228C113.934 113.933 115.795 114.417 116.003 115.524Z" fill="white"/>
</mask>
<g mask="url(#mask89_0_402)">
<mask id="mask90_0_402" style="mask-type:luminance" maskUnits="userSpaceOnUse" x="-47" y="-154" width="341" height="571">
<path d="M195.298 -153.309L-46.8273 -107.919L51.4616 416.385L293.587 370.994L195.298 -153.309Z" fill="white"/>
</mask>
<g mask="url(#mask90_0_402)">
<path d="M118.242 109.687L104.153 112.328L106.115 122.794L120.204 120.153L118.242 109.687Z" fill="#90D3DC"/>
</g>
</g>
<mask id="mask91_0_402" style="mask-type:luminance" maskUnits="userSpaceOnUse" x="111" y="115" width="8" height="5">
<path d="M118.493 117.14C118.701 118.247 117.242 119.354 115.33 119.713C113.418 120.071 111.638 119.467 111.449 118.461C111.241 117.354 112.701 116.247 114.613 115.889C116.506 115.43 118.286 116.033 118.493 117.14Z" fill="white"/>
</mask>
<g mask="url(#mask91_0_402)">
<mask id="mask92_0_402" style="mask-type:luminance" maskUnits="userSpaceOnUse" x="-47" y="-154" width="341" height="571">
<path d="M195.298 -153.31L-46.8274 -107.919L51.4616 416.384L293.587 370.994L195.298 -153.31Z" fill="white"/>
</mask>
<g mask="url(#mask92_0_402)">
<path d="M120.632 111.322L107.248 113.832L109.172 124.096L122.556 121.587L120.632 111.322Z" fill="#90D3DC"/>
</g>
</g>
<mask id="mask93_0_402" style="mask-type:luminance" maskUnits="userSpaceOnUse" x="112" y="123" width="6" height="3">
<path d="M117.625 124.178C117.719 124.682 116.707 125.392 115.399 125.638C114.09 125.883 112.908 125.688 112.795 125.084C112.7 124.581 113.713 123.87 115.021 123.625C116.329 123.38 117.512 123.575 117.625 124.178Z" fill="white"/>
</mask>
<g mask="url(#mask93_0_402)">
<mask id="mask94_0_402" style="mask-type:luminance" maskUnits="userSpaceOnUse" x="-47" y="-154" width="341" height="571">
<path d="M195.298 -153.31L-46.8275 -107.919L51.4615 416.384L293.587 370.994L195.298 -153.31Z" fill="white"/>
</mask>
<g mask="url(#mask94_0_402)">
<path d="M120.053 119.348L108.681 121.48L110.266 129.933L121.638 127.801L120.053 119.348Z" fill="#90D3DC"/>
</g>
</g>
<mask id="mask95_0_402" style="mask-type:luminance" maskUnits="userSpaceOnUse" x="89" y="136" width="7" height="2">
<path d="M95.3093 136.279C95.3659 136.581 94.1143 137.128 92.5041 137.43C90.894 137.732 89.5291 137.675 89.4725 137.373C89.4159 137.071 90.6676 136.524 92.2777 136.222C93.9067 136.021 95.2527 135.977 95.3093 136.279Z" fill="white"/>
</mask>
<g mask="url(#mask95_0_402)">
<mask id="mask96_0_402" style="mask-type:luminance" maskUnits="userSpaceOnUse" x="-47" y="-154" width="341" height="571">
<path d="M195.298 -153.31L-46.8274 -107.919L51.4615 416.384L293.587 370.994L195.298 -153.31Z" fill="white"/>
</mask>
<g mask="url(#mask96_0_402)">
<path d="M97.8128 131.851L85.5354 134.152L86.9692 141.801L99.2466 139.499L97.8128 131.851Z" fill="#90D3DC"/>
</g>
</g>
<mask id="mask97_0_402" style="mask-type:luminance" maskUnits="userSpaceOnUse" x="96" y="138" width="6" height="2">
<path d="M101.624 138.845C101.68 139.147 100.611 139.556 99.303 139.801C97.9947 140.046 96.85 140.053 96.7934 139.751C96.7368 139.449 97.8061 139.04 99.1143 138.795C100.523 138.531 101.567 138.543 101.624 138.845Z" fill="white"/>
</mask>
<g mask="url(#mask97_0_402)">
<mask id="mask98_0_402" style="mask-type:luminance" maskUnits="userSpaceOnUse" x="-47" y="-154" width="341" height="571">
<path d="M195.298 -153.31L-46.8275 -107.919L51.4615 416.384L293.587 370.994L195.298 -153.31Z" fill="white"/>
</mask>
<g mask="url(#mask98_0_402)">
<path d="M104.247 134.499L92.9758 136.612L94.3718 144.059L105.643 141.946L104.247 134.499Z" fill="#90D3DC"/>
</g>
</g>
<mask id="mask99_0_402" style="mask-type:luminance" maskUnits="userSpaceOnUse" x="186" y="60" width="6" height="10">
<path d="M186.807 60.8949C186.807 60.8949 187.398 63.4925 188.838 63.9517C190.278 64.4109 189.272 66.2663 189.328 66.5682C189.404 66.9707 191.165 69.1407 191.165 69.1407C191.165 69.1407 190.561 67.5872 190.731 66.8261C190.901 66.0651 191.247 64.021 191.014 63.3354C190.882 62.631 190.222 62.4423 190.127 61.9391C190.033 61.4359 190.392 60.0145 190.392 60.0145" fill="white"/>
</mask>
<g mask="url(#mask99_0_402)">
<mask id="mask100_0_402" style="mask-type:luminance" maskUnits="userSpaceOnUse" x="-47" y="-154" width="341" height="571">
<path d="M195.298 -153.309L-46.8274 -107.919L51.4615 416.385L293.587 370.994L195.298 -153.309Z" fill="white"/>
</mask>
<g mask="url(#mask100_0_402)">
<path d="M193.109 56.1715L182.945 58.0769L185.85 73.5746L196.014 71.6692L193.109 56.1715Z" fill="#D8522A"/>
</g>
</g>
<mask id="mask101_0_402" style="mask-type:luminance" maskUnits="userSpaceOnUse" x="190" y="58" width="5" height="9">
<path d="M191.373 58.5806C191.373 58.5806 190.819 61.1845 191.052 61.8701C191.266 62.455 192.725 63.0148 192.819 63.518C192.913 64.0212 192.737 65.3042 192.454 65.4615C192.272 65.5998 191.473 65.2287 191.473 65.2287C191.473 65.2287 192.083 66.2602 192.523 66.386C192.945 66.4112 193.895 65.9206 194.247 65.0212C194.599 64.1218 194.876 62.8199 194.876 62.8199C194.876 62.8199 193.863 61.8639 193.888 61.4425C193.914 61.0211 194.756 61.0714 194.706 60.2475C194.574 59.543 194.084 58.5933 194.084 58.5933" fill="white"/>
</mask>
<g mask="url(#mask101_0_402)">
<mask id="mask102_0_402" style="mask-type:luminance" maskUnits="userSpaceOnUse" x="-47" y="-154" width="341" height="571">
<path d="M195.298 -153.309L-46.8275 -107.919L51.4615 416.385L293.587 370.994L195.298 -153.309Z" fill="white"/>
</mask>
<g mask="url(#mask102_0_402)">
<path d="M196.908 54.2094L186.442 56.1714L189.102 70.3608L199.568 68.3988L196.908 54.2094Z" fill="#D8522A"/>
</g>
</g>
<mask id="mask103_0_402" style="mask-type:luminance" maskUnits="userSpaceOnUse" x="185" y="66" width="6" height="6">
<path d="M186.14 66.2284C186.14 66.2284 186.353 68.4801 187.171 68.9518C188.008 69.5242 189.177 69.0966 189.599 69.1217C189.92 69.1658 190.769 70.3608 190.769 70.3608C190.769 70.3608 189.75 69.9268 189.165 70.1406C188.561 70.2538 188.171 70.9519 187.347 71.0022C186.523 71.0525 185.127 70.2726 185.127 70.2726" fill="white"/>
</mask>
<g mask="url(#mask103_0_402)">
<mask id="mask104_0_402" style="mask-type:luminance" maskUnits="userSpaceOnUse" x="-47" y="-154" width="341" height="571">
<path d="M195.298 -153.31L-46.8273 -107.919L51.4616 416.384L293.587 370.994L195.298 -153.31Z" fill="white"/>
</mask>
<g mask="url(#mask104_0_402)">
<path d="M192.379 61.7251L180.504 63.9512L182.617 75.2222L194.492 72.9961L192.379 61.7251Z" fill="#D8522A"/>
</g>
</g>
<mask id="mask105_0_402" style="mask-type:luminance" maskUnits="userSpaceOnUse" x="152" y="41" width="39" height="33">
<path d="M153.905 73.209L154.987 70.0894C154.987 70.0894 153.968 67.9886 153.408 66.1143C152.849 64.24 153.421 61.7368 153.421 61.7368C153.421 61.7368 151.906 59.2083 153.61 56.0761C155.315 52.944 164.517 45.9062 165.341 45.8559C166.164 45.8056 170.863 45.8624 171.146 45.7052C171.429 45.5479 174.008 44.8562 174.265 45.1203C174.624 45.3657 174.825 45.3279 175.108 45.1707C175.372 44.9128 178.763 41.8814 183.065 41.4915C187.367 41.1017 190.486 43.8504 190.486 43.8504C190.486 43.8504 186.895 41.9194 182.851 42.5733C178.807 43.2273 175.014 46.3343 174.831 46.4726C174.649 46.611 173.467 46.416 173.347 46.3342C173.228 46.2524 171.718 46.5354 171.718 46.5354L165.51 46.7616C165.51 46.7616 156.34 52.856 154.516 55.9063C152.673 58.8561 153.843 61.7619 153.843 61.7619C153.843 61.7619 152.446 65.9822 155.49 69.9951" fill="white"/>
</mask>
<g mask="url(#mask105_0_402)">
<mask id="mask106_0_402" style="mask-type:luminance" maskUnits="userSpaceOnUse" x="-47" y="-154" width="341" height="571">
<path d="M195.298 -153.309L-46.8276 -107.919L51.4613 416.385L293.587 370.994L195.298 -153.309Z" fill="white"/>
</mask>
<g mask="url(#mask106_0_402)">
<path d="M192.524 36.3848L145.327 45.2327L151.288 77.0331L198.486 68.1852L192.524 36.3848Z" fill="white"/>
</g>
</g>
<mask id="mask107_0_402" style="mask-type:luminance" maskUnits="userSpaceOnUse" x="144" y="92" width="19" height="14">
<path d="M144.036 105.581C144.036 105.581 151.162 99.1406 153.231 97.3985C156.112 94.9834 162.502 92.952 162.502 92.952C162.502 92.952 157.351 95.4803 155.187 98.386C153.043 101.392 144.036 105.581 144.036 105.581Z" fill="white"/>
</mask>
<g mask="url(#mask107_0_402)">
<mask id="mask108_0_402" style="mask-type:luminance" maskUnits="userSpaceOnUse" x="-47" y="-154" width="341" height="571">
<path d="M195.298 -153.31L-46.8273 -107.919L51.4616 416.384L293.587 370.994L195.298 -153.31Z" fill="white"/>
</mask>
<g mask="url(#mask108_0_402)">
<path d="M165.201 89.0085L138.533 94.0079L141.401 109.304L168.069 104.305L165.201 89.0085Z" fill="#D8D0E8"/>
</g>
</g>
<mask id="mask109_0_402" style="mask-type:luminance" maskUnits="userSpaceOnUse" x="156" y="78" width="5" height="2">
<path d="M156.987 79.0896C156.987 79.0896 157.044 79.3915 157.402 79.6368C157.742 79.7815 160.22 79.1086 160.22 79.1086L160.528 78.53" fill="white"/>
</mask>
<g mask="url(#mask109_0_402)">
<mask id="mask110_0_402" style="mask-type:luminance" maskUnits="userSpaceOnUse" x="-47" y="-154" width="341" height="571">
<path d="M195.298 -153.31L-46.8273 -107.919L51.4616 416.384L293.587 370.994L195.298 -153.31Z" fill="white"/>
</mask>
<g mask="url(#mask110_0_402)">
<path d="M163.025 74.6241L153.163 76.4729L154.503 83.618L164.365 81.7691L163.025 74.6241Z" fill="white"/>
</g>
</g>
<mask id="mask111_0_402" style="mask-type:luminance" maskUnits="userSpaceOnUse" x="25" y="100" width="93" height="54">
<path d="M108.675 137.003C102.832 138.619 95.3345 134.191 87.7681 133.838C80.2018 133.486 75.8496 128.052 74.7929 127.416C73.7363 126.781 73.0947 128.36 69.8367 128.762C66.5975 129.265 64.8428 128.24 64.8428 128.24C64.8428 128.24 64.0629 127.969 63.5597 128.064C63.0754 128.259 61.8993 127.542 60.9873 126.567C60.1948 125.674 60.308 126.277 58.44 126.315C56.572 126.353 57.1758 126.24 53.9681 125.799C50.6598 125.378 49.0812 123.069 48.1063 122.315C47.1315 121.56 45.6346 120.799 45.3704 121.057C44.905 121.352 44.5024 121.428 40.9677 119.798C37.433 118.169 30.4267 109.691 27.3135 104.753C26.5651 103.539 25.9991 102.187 25.5337 100.816C24.9478 129.364 47.4135 153.071 75.899 153.877C92.6608 154.38 107.794 146.752 117.499 134.619C116.795 134.751 116.191 134.865 115.587 134.978C111.379 135.871 114.518 135.387 108.675 137.003Z" fill="white"/>
</mask>
<g mask="url(#mask111_0_402)">
<mask id="mask112_0_402" style="mask-type:luminance" maskUnits="userSpaceOnUse" x="-47" y="-154" width="341" height="571">
<path d="M195.298 -153.309L-46.8273 -107.919L51.4616 416.385L293.587 370.994L195.298 -153.309Z" fill="white"/>
</mask>
<g mask="url(#mask112_0_402)">
<path opacity="0.4" d="M110.872 81.4845L20.603 98.4068L33.356 166.435L123.625 149.513L110.872 81.4845Z" fill="#257D84"/>
</g>
</g>
<mask id="mask113_0_402" style="mask-type:luminance" maskUnits="userSpaceOnUse" x="163" y="64" width="6" height="18">
<path d="M166.119 81.1279C166.119 81.1279 166.987 77.4233 166.541 76.1528C166.094 74.8823 163.56 70.2531 163.535 69.0077C163.491 67.6618 165.592 64.9762 165.592 64.9762C165.592 64.9762 164.698 69.1021 165.466 70.4167C166.233 71.7312 168.258 76.9768 168.258 76.9768" fill="white"/>
</mask>
<g mask="url(#mask113_0_402)">
<mask id="mask114_0_402" style="mask-type:luminance" maskUnits="userSpaceOnUse" x="-47" y="-154" width="341" height="571">
<path d="M195.298 -153.31L-46.8275 -107.919L51.4614 416.384L293.587 370.994L195.298 -153.31Z" fill="white"/>
</mask>
<g mask="url(#mask114_0_402)">
<path d="M168.611 61.0765L159.05 62.8687L163.201 85.0082L172.761 83.216L168.611 61.0765Z" fill="#D8522A"/>
</g>
</g>
<mask id="mask115_0_402" style="mask-type:luminance" maskUnits="userSpaceOnUse" x="156" y="67" width="2" height="5">
<path d="M156.855 68.3849C156.855 68.3849 156.773 70.1711 157.107 70.8379C157.32 71.4228 157.924 71.3096 157.817 70.1838C157.711 69.0579 157.918 68.4982 157.623 68.0327C157.207 67.4855 156.899 68.0641 156.855 68.3849Z" fill="white"/>
</mask>
<g mask="url(#mask115_0_402)">
<mask id="mask116_0_402" style="mask-type:luminance" maskUnits="userSpaceOnUse" x="-47" y="-154" width="341" height="571">
<path d="M195.298 -153.309L-46.8275 -107.919L51.4615 416.385L293.587 370.994L195.298 -153.309Z" fill="white"/>
</mask>
<g mask="url(#mask116_0_402)">
<path d="M160.182 63.9067L152.635 65.3216L154.465 75.0831L162.012 73.6682L160.182 63.9067Z" fill="#66605B"/>
</g>
</g>
</g>
<defs>
<clipPath id="clip0_0_402">
<rect width="218.085" height="147.438" fill="white" transform="translate(0 40.1834) rotate(-10.6178)"/>
</clipPath>
</defs>
</svg>
