<svg width="334" height="334" viewBox="0 0 334 334" fill="none" xmlns="http://www.w3.org/2000/svg">
<path d="M55.9306 95.2368H197.709C199.185 95.2368 200.601 95.8233 201.645 96.8673C202.689 97.9112 203.276 99.3271 203.276 100.803V136.524H50.3639V100.803C50.3639 99.3271 50.9504 97.9112 51.9943 96.8673C53.0383 95.8233 54.4542 95.2368 55.9306 95.2368Z" fill="#F1F2F8"/>
<path d="M171.874 85.8559C171.001 83.3932 172.193 80.7413 173.059 78.2752C174.611 73.8464 175.144 69.1244 174.617 64.461C174.32 61.8569 173.581 59.1047 171.569 57.4258C169.677 56.0887 167.397 55.4107 165.082 55.4964C160.851 55.3439 156.138 56.2513 153.614 59.6458C150.929 63.2508 151.642 68.2697 152.602 72.6607C153.563 77.0517 154.585 81.9247 152.328 85.8125C149.812 90.1456 143.789 92.0817 142.531 96.9303C142.413 97.2462 142.372 97.586 142.413 97.9209C142.454 98.2559 142.575 98.576 142.766 98.8541C143.114 99.1745 143.549 99.3842 144.016 99.4564C150.323 101.031 156.9 101.043 163.399 101.046C167.881 101.046 182.645 103.6 183.832 97.4524C185.147 90.5609 173.747 91.1376 171.874 85.8559Z" fill="#F1F2F8"/>
<path d="M133.761 91.6609C131.389 91.2812 128.542 91.7455 126.951 89.943C125.624 88.4389 125.965 86.0463 126.98 84.3184C127.995 82.5905 129.549 81.2389 130.679 79.5823C131.841 77.8274 132.51 75.7917 132.615 73.6891C132.72 71.5865 132.256 69.4945 131.273 67.6329C128.292 62.1609 121.496 59.9821 117.488 55.2114C116.251 55.4653 117.138 57.4381 116.672 58.6127C116.124 59.9887 114.129 59.6213 112.679 59.3118C111.23 59.0023 109.053 59.9698 109.758 61.2724C106.019 62.9168 104.971 67.6874 104.839 71.77C104.708 75.8526 104.839 80.4062 102.077 83.4188C103.63 83.8007 104.425 85.5342 104.725 87.1006C105.024 88.6671 105.086 90.3816 106.039 91.6653C107.579 93.7394 111.161 94.3573 111.409 96.9291C111.484 97.7196 111.197 98.5991 111.619 99.2671C111.841 99.5278 112.113 99.741 112.419 99.894C112.725 100.047 113.059 100.137 113.401 100.158C120.726 101.469 128.147 102.176 135.588 102.273C145.969 102.538 140.702 92.772 133.761 91.6609Z" fill="#F1F2F8"/>
<path d="M85.2635 95.3815C83.6948 94.5621 81.9235 94.1657 80.3971 93.2739C79.7909 92.9883 79.32 92.4774 79.0845 91.85C78.8106 90.8057 79.7302 89.7992 80.7222 89.3717C81.7142 88.9442 82.8375 88.8473 83.7839 88.3296C86.2889 86.9591 86.4559 83.353 85.4973 80.6654C84.6556 78.313 86.1653 78.7538 86.3156 76.5773C86.3429 76.0473 86.2181 75.5206 85.9559 75.0592C85.6938 74.5979 85.3052 74.221 84.836 73.9732C84.0132 73.5535 82.871 73.4544 82.5225 72.5982C82.4076 72.23 82.3904 71.8383 82.4724 71.4615C83.029 67.3088 86.2009 61.417 83.8663 57.4391C83.2226 56.3974 82.2598 55.5915 81.1212 55.1411C79.9826 54.6908 78.729 54.6201 77.547 54.9396C75.5552 55.5275 74.0845 57.1563 72.478 58.4722C70.8714 59.7882 68.7149 60.8715 66.7822 60.12C66.1294 59.8003 65.4996 59.4358 64.8973 59.0289C63.5056 58.3527 61.9453 58.1024 60.4119 58.3093C58.8786 58.5163 57.4405 59.1714 56.2779 60.1923C53.9826 62.2943 52.4874 65.1273 52.0472 68.2083C51.5341 70.6889 51.5743 73.2521 52.1651 75.7153C52.7559 78.1785 53.8827 80.4811 55.4651 82.459C56.8011 84.0054 58.4611 85.2568 59.7103 86.8745C60.9594 88.4922 61.7633 90.6799 61.0229 92.5848C60.0209 95.1633 56.4315 96.8967 57.1195 99.5765C57.6272 101.553 60.1122 102.137 62.1462 102.29C68.8993 102.81 75.6858 102.712 82.4212 101.998C83.9564 101.835 89.6411 101.985 89.9295 99.994C90.082 98.9196 85.9927 95.7622 85.2635 95.3815Z" fill="#F1F2F8"/>
<path d="M46.4816 121.104H263.693C265.188 121.104 266.669 121.398 268.05 121.969C269.432 122.541 270.687 123.38 271.745 124.437C272.802 125.494 273.641 126.749 274.214 128.13C274.786 129.511 275.081 130.992 275.081 132.487V216.19H35.0967V132.487C35.0973 129.468 36.297 126.572 38.432 124.438C40.5671 122.303 43.4625 121.104 46.4816 121.104Z" fill="#E1DDEC"/>
<path d="M155.85 129.481C155.534 127.73 154.851 126.066 153.846 124.598C151.167 121.102 145.657 120.374 141.569 120.582C139.759 120.674 136.73 120.79 136.71 123.176C136.69 125.562 139.683 129.381 140.882 131.381C141.613 132.366 142.056 133.534 142.164 134.756C142.066 135.81 141.681 136.818 141.05 137.669C137.964 142.529 133.607 146.49 130.828 151.557C127.771 157.124 126.222 163.953 125.197 170.174C123.538 180.127 123.846 190.308 126.104 200.142C126.44 202.226 127.294 204.193 128.588 205.862C131.026 208.581 135.095 208.909 138.745 209.048C142.019 209.174 145.988 208.927 147.54 206.042C148.018 205.004 148.283 203.88 148.319 202.737C148.917 196.31 149.001 189.845 148.569 183.405C148.22 178.205 147.538 172.966 148.253 167.804C149.212 160.88 152.568 154.652 154.994 148.186C157.537 141.412 157.48 136.45 155.85 129.481Z" fill="#C6C6D0"/>
<path d="M54.2972 153.602C41.8613 168.328 35.4162 188.625 39.6836 207.414C39.8258 208.522 40.3262 209.553 41.1087 210.35C42.0283 210.959 43.1133 211.27 44.216 211.241L51.6631 211.784C52.3645 211.925 53.0933 211.786 53.6938 211.398C53.9598 211.075 54.1483 210.695 54.2448 210.288C54.3413 209.88 54.3432 209.457 54.2505 209.048C53.3598 198.026 51.4783 186.362 56.1487 176.336C58.6882 170.881 62.9512 166.465 66.7499 161.8C70.5486 157.135 74.0511 151.835 74.5688 145.842C75.0319 140.477 73.0346 135.194 70.5018 130.442C69.0289 127.677 67.2731 124.919 64.6189 123.253C61.6987 121.417 52.0862 118.425 50.1757 122.783C49.3741 124.613 49.7793 126.73 50.307 128.658C51.6386 133.525 53.6517 138.18 56.2868 142.483C57.1169 143.614 57.6964 144.909 57.9868 146.282C58.4667 150.185 55.0343 151.831 53.0202 154.349C50.1311 157.961 48.0715 162.73 46.0296 166.859C41.8851 175.234 38.5169 183.971 35.9673 192.961C35.1 196.019 34.3385 199.342 35.4697 202.313C35.9874 203.676 36.8751 204.867 38.033 205.753C39.1909 206.639 40.573 207.184 42.0238 207.327C43.4747 207.47 44.9367 207.206 46.2454 206.564C47.5542 205.921 48.6577 204.926 49.432 203.691" fill="#C6C6D0"/>
<path d="M223.112 124.644C222.465 123.169 221.292 121.988 219.822 121.33C218.277 120.874 216.656 120.738 215.057 120.93C213.832 120.854 212.603 120.851 211.377 120.921C209.156 121.304 209.596 122.128 210.31 124.06C211.897 128.373 213.482 132.687 215.065 137.001C215.226 137.327 215.275 137.697 215.206 138.054C215.06 138.377 214.819 138.647 214.514 138.827C205.362 145.652 202.251 157.11 202.044 167.98C201.902 175.271 201.891 182.563 202.013 189.856C202.052 192.212 202.356 195.07 201.607 197.346C200.885 199.538 199.625 201.66 198.815 203.87C198.218 205.169 197.964 206.599 198.078 208.024L201.701 208.207C203.328 208.412 204.935 208.751 206.507 209.221C209.137 209.778 212.238 210.153 214.189 208.307C215.346 206.971 216.034 205.292 216.146 203.528C218.338 189.582 215.763 174.804 220.711 161.586C222.647 156.408 225.721 151.501 226.093 145.986C226.433 141.413 226.19 136.816 225.37 132.304C224.973 129.659 224.213 127.081 223.112 124.644Z" fill="#C6C6D0"/>
<path d="M261.411 191.781C260.29 190.806 259.375 189.618 258.719 188.285C258.063 186.952 257.679 185.502 257.591 184.02C257.431 181.057 257.67 178.086 258.302 175.186L260.491 162.424C261.371 157.296 262.161 151.642 259.43 147.211C258.236 145.347 256.512 143.884 254.48 143.008C252.447 142.131 250.2 141.882 248.025 142.293C249.317 140.784 248.721 138.304 247.257 136.961C246.023 135.945 244.536 135.284 242.955 135.047C242.138 134.882 241.73 134.733 241.541 135.635C241.362 136.501 241.527 137.425 241.375 138.307C241.05 140.181 239.712 141.637 238.528 143.039C237.337 144.379 236.459 145.968 235.958 147.69C235.462 147.407 235.222 146.714 234.822 146.294C233.84 145.263 232.799 144.289 231.705 143.378C229.624 141.648 227.156 140.484 225.265 138.462C224.838 137.92 224.317 137.46 223.727 137.104C221.078 135.801 218.225 139.061 217.567 141.282C217.513 141.86 217.427 142.434 217.312 143.002C217.102 143.459 216.503 143.648 216.117 143.92C214.947 144.724 213.839 145.615 212.803 146.585C210.461 148.924 208.64 151.732 207.459 154.824C203.562 164.493 203.751 175.977 206.732 185.891C207.668 188.493 208.4 191.164 208.92 193.879C209.379 197.25 208.841 200.685 209.143 204.073C209.443 207.4 210.543 210.605 212.349 213.415C216.509 214.576 221.033 212.849 224.793 210.728C228.553 208.608 231.918 205.811 235.803 203.918C240.188 201.781 245.056 200.879 249.693 199.364C254.33 197.848 258.739 195.867 261.411 191.781Z" fill="#73CEC6"/>
<path d="M224.559 214.81C223.836 212.337 219.98 211.052 225.116 205.912C226.399 204.63 228.606 203.713 230.159 202.77C231.922 201.702 233.699 200.655 235.498 199.653C239.02 197.661 242.654 195.872 246.381 194.296C250.053 192.744 253.852 191.512 257.737 190.613C259.927 190.117 262.12 189.747 264.273 189.195C266.5 188.627 269.151 188.364 271.261 189.431C272.762 190.324 274.018 191.575 274.916 193.073C278.462 198.195 281.082 203.889 283.897 209.448C289.107 219.735 295.035 229.643 301.636 239.098C301.882 239.473 302.103 239.864 302.298 240.267L292.647 248.298C292.541 248.417 292.408 248.509 292.259 248.567C292.11 248.625 291.949 248.647 291.79 248.632C291.598 248.555 291.434 248.421 291.321 248.248L270.962 222.988C269.95 221.659 268.833 220.413 267.622 219.263C262.612 214.76 255.349 213.943 248.616 213.984C244.425 214.009 240.24 214.282 236.081 214.801C231.726 215.347 228.456 216.836 224.559 214.81Z" fill="#084EB2"/>
<path d="M304.462 264.608C305.17 265.713 306.15 266.616 307.308 267.233C312.059 270.174 317.438 271.952 323.006 272.422C323.984 272.544 324.976 272.506 325.942 272.31C327.456 271.792 328.821 270.913 329.92 269.749C331.214 269.043 332.191 267.87 332.651 266.468C333.111 265.067 333.02 263.543 332.396 262.207C332.396 262.067 332.342 261.933 332.246 261.832C332.149 261.731 332.017 261.671 331.878 261.664C330.566 261.282 329.209 261.075 327.843 261.048C326.454 261.289 325.079 261.606 323.724 261.997C319.679 262.921 315.455 262.687 311.537 261.322C309.707 260.68 307.208 259.412 305.259 260.381C303.805 261.096 303.757 263.319 304.462 264.608Z" fill="#D1435B"/>
<path d="M304.471 262.135C304.339 262.042 304.137 261.953 304.032 262.08C304 262.125 303.981 262.178 303.978 262.233C303.865 263.231 304.144 264.234 304.757 265.029C305.369 265.814 306.111 266.487 306.952 267.021C309.05 268.432 311.326 269.561 313.719 270.377C314.468 270.655 315.239 270.87 316.024 271.019C318.371 271.269 320.745 271.03 322.996 270.317C323.734 270.203 324.424 269.882 324.988 269.392C324.228 269.28 323.481 269.1 322.753 268.857C322.003 268.701 321.249 268.567 320.491 268.456C319.114 268.27 317.727 268.162 316.338 268.134C315.057 267.936 313.824 267.5 312.702 266.85C311.346 266.237 310.019 265.564 308.721 264.832C307.259 264.006 305.841 263.106 304.471 262.135Z" fill="#B53D50"/>
<path d="M302.172 254.774C302.269 254.939 302.406 255.076 302.572 255.172C302.743 255.233 302.927 255.25 303.107 255.221L305.13 255.063C304.863 254.449 304.612 253.826 304.33 253.219C304.047 252.612 304.087 252.596 304.508 252.112C304.661 251.881 304.785 251.633 304.877 251.372C305.07 251.06 305.293 250.768 305.545 250.501C305.799 250.167 306.025 249.812 306.221 249.441C306.491 249.042 306.619 248.563 306.586 248.082C306.553 247.602 306.361 247.145 306.04 246.786L304.316 243.88C304.222 243.683 304.076 243.515 303.892 243.396C303.757 243.345 303.613 243.322 303.469 243.328C303.325 243.334 303.184 243.37 303.054 243.433C301.892 243.94 300.837 244.664 299.945 245.566C298.881 246.517 296.07 248.865 297.266 250.213C297.941 250.974 299.139 251.5 299.913 252.217C300.75 252.991 301.507 253.848 302.172 254.774Z" fill="#B5745B"/>
<path d="M309.256 248.462C309.169 247.979 308.907 247.547 308.519 247.247C308.259 247.158 307.982 247.131 307.709 247.166C307.436 247.201 307.175 247.299 306.946 247.451C305.61 248.077 304.124 248.89 303.807 250.33C303.704 251.111 303.791 251.906 304.062 252.645L304.737 255.062C304.194 255.173 303.631 255.143 303.103 254.974C302.574 254.805 302.098 254.504 301.719 254.099C301.377 255.523 301.418 257.012 301.837 258.415C302.552 260.533 303.901 262.379 305.7 263.705C307.492 265.017 309.43 266.115 311.477 266.976C315.176 268.669 319.095 270.237 323.159 270.074C324.483 270.07 325.784 269.725 326.936 269.072C327.507 268.74 327.988 268.273 328.337 267.713C328.686 267.152 328.893 266.515 328.94 265.856C328.951 265.276 328.834 264.61 329.234 264.186C329.73 263.666 330.613 263.94 331.29 263.698C331.668 263.523 331.969 263.216 332.137 262.835C332.304 262.454 332.327 262.025 332.201 261.628C332.059 261.236 331.835 260.879 331.543 260.582C331.251 260.285 330.899 260.053 330.51 259.904C329.731 259.612 328.921 259.411 328.096 259.304C323.865 258.37 319.761 256.932 315.872 255.021C312.915 253.702 310.336 251.674 309.256 248.462Z" fill="#FFAB95"/>
<path d="M301.129 253.655C301.398 253.896 301.668 254.137 301.939 254.378C302.139 254.565 302.356 254.733 302.587 254.881C302.904 255.068 303.258 255.181 303.624 255.213C303.99 255.245 304.359 255.194 304.703 255.065C304.75 255.05 304.792 255.023 304.825 254.987C304.854 254.939 304.867 254.882 304.86 254.827C304.842 254.651 304.791 254.48 304.707 254.324C304.631 254.119 304.565 253.91 304.51 253.698L304.115 252.418C304.048 252.154 303.935 251.903 303.781 251.678C303.558 251.386 303.21 251.274 302.952 251.036C302.683 250.746 302.478 250.401 302.352 250.026C302.078 249.262 301.968 248.449 302.028 247.64C302.088 246.415 302.382 245.207 302.42 243.982C302.44 243.842 302.409 243.699 302.333 243.58C302.171 243.377 301.85 243.453 301.612 243.557C299.698 244.401 298.1 245.828 297.047 247.635C296.868 247.884 296.741 248.167 296.676 248.466C296.61 248.765 296.607 249.075 296.667 249.376C296.839 249.778 297.114 250.129 297.465 250.391C298.687 251.48 299.909 252.568 301.129 253.655Z" fill="#8C4D38"/>
<path d="M313.614 263.395C312.145 260.683 312.986 257.329 312.411 254.299C312.12 255.092 311.553 255.753 310.813 256.161C310.073 256.568 309.21 256.695 308.384 256.516C307.751 256.358 307.09 255.884 307.111 255.232C307.156 254.96 307.274 254.706 307.452 254.495C307.629 254.285 307.86 254.126 308.121 254.035C308.724 253.758 309.384 253.629 310.046 253.659C310.709 253.688 311.355 253.875 311.931 254.204C312.083 254.313 312.255 254.389 312.438 254.427C312.822 254.467 313.132 254.125 313.334 253.797C313.783 253.058 314.061 252.227 314.146 251.367C314.231 250.507 314.121 249.638 313.825 248.826C313.731 248.491 313.523 248.199 313.237 248.001C313.002 247.894 312.738 247.871 312.488 247.935C312.238 247.998 312.017 248.145 311.861 248.35C311.559 248.77 311.388 249.27 311.369 249.787C311.204 251.445 311.542 253.113 312.341 254.575C313.545 254.405 314.715 254.05 315.81 253.522C316.285 253.259 316.803 253.084 317.34 253.004C317.905 253.009 318.461 253.139 318.97 253.384" stroke="#444560" stroke-width="0.395233" stroke-linecap="round" stroke-linejoin="round"/>
<path d="M315.021 259.498C315.338 258.441 315.939 257.492 316.76 256.755" stroke="#444560" stroke-width="0.395233" stroke-linecap="round" stroke-linejoin="round"/>
<path d="M317.167 261.323C317.669 260.295 318.388 259.389 319.275 258.667" stroke="#444560" stroke-width="0.395233" stroke-linecap="round" stroke-linejoin="round"/>
<path d="M319.801 262.072C320.307 261.129 320.944 260.262 321.693 259.497" stroke="#444560" stroke-width="0.395233" stroke-linecap="round" stroke-linejoin="round"/>
<path d="M322.338 262.211C322.701 261.302 323.279 260.495 324.022 259.859" stroke="#444560" stroke-width="0.395233" stroke-linecap="round" stroke-linejoin="round"/>
<path d="M301.783 254.084C301.665 254.055 301.602 254.185 301.592 254.347C301.575 254.623 301.504 254.898 301.481 255.177C301.337 257.594 302.126 259.975 303.684 261.828C304.397 262.732 305.238 263.528 306.179 264.192C308.991 266.238 312.14 267.776 315.483 268.738C317.168 269.317 318.899 269.754 320.658 270.041C322.241 270.185 323.837 270.116 325.402 269.835C326.289 269.623 327.104 269.183 327.769 268.558C328.007 268.35 328.249 268.061 328.171 267.753C326.999 267.882 325.836 268.078 324.686 268.338C323.559 268.51 322.424 268.622 321.285 268.672C319.016 268.811 316.746 268.423 314.653 267.537C311.601 266.01 308.872 263.908 306.618 261.346C305.955 260.646 304.622 259.431 304.555 258.396C304.492 257.463 305.494 256.697 305.386 255.647C305.362 255.304 305.224 254.978 304.994 254.722C304.983 254.708 304.97 254.696 304.954 254.687C304.938 254.679 304.921 254.673 304.903 254.672C304.817 254.672 304.758 254.835 304.699 254.894C304.616 254.968 304.519 255.024 304.413 255.058C303.947 255.136 303.468 255.076 303.035 254.884C302.602 254.765 302.214 254.519 301.922 254.179C301.885 254.135 301.837 254.102 301.783 254.084Z" fill="#E18B96"/>
<path d="M154.242 128.707C153.676 127.169 152.796 125.765 151.659 124.584C150.521 123.404 149.152 122.472 147.636 121.848C146.586 121.618 145.587 121.199 144.688 120.61C144.112 120.052 143.665 119.375 143.38 118.626C142.852 117.646 142.569 116.553 142.553 115.441C142.558 114.885 142.737 114.345 143.065 113.896C143.392 113.448 143.853 113.113 144.38 112.94C144.913 112.898 145.448 112.962 145.955 113.131C146.461 113.299 146.929 113.567 147.331 113.919C148.383 111.518 147.899 108.765 147.579 106.163C147.26 103.561 147.217 100.651 148.904 98.6459C149.677 97.8008 150.616 97.1243 151.663 96.6586C154.074 95.572 156.589 94.732 159.17 94.1513L170.251 91.2567C171.605 90.9038 173.29 90.6488 174.183 91.7254C174.54 92.2389 174.76 92.8347 174.822 93.4566C176.456 102.523 177.31 111.712 177.375 120.924C177.39 121.245 177.37 121.567 177.316 121.883C177.19 122.361 176.982 122.813 176.702 123.219C176.006 124.349 175.264 125.45 174.475 126.523C174.02 127.005 173.616 127.533 173.27 128.099C173.143 128.584 173.147 129.094 173.281 129.577C173.643 131.781 174.304 133.926 175.245 135.953C174.036 137.207 172.585 138.202 170.979 138.878C169.373 139.554 167.647 139.897 165.905 139.885C163.447 139.933 158.57 139.607 156.725 137.698C154.936 135.85 155.254 131.143 154.242 128.707Z" fill="#FFCCB6"/>
<path d="M68.804 151.493C69.9006 135.253 68.7205 142.401 69.1458 138.801C69.3146 138.195 69.3319 137.557 69.196 136.942C69.0601 136.328 68.7752 135.756 68.3664 135.278C67.4702 134.119 66.3269 133.175 65.0197 132.513C63.1878 131.429 61.6442 129.919 60.5197 128.111C59.9666 127.204 59.6305 126.181 59.5376 125.122C59.4448 124.064 59.5976 122.998 59.9841 122.008C60.1724 121.484 60.5022 121.022 60.9369 120.674C61.3716 120.326 61.8943 120.105 62.4468 120.036C64.4096 119.997 65.3359 122.551 67.1228 123.376C67.3194 121.494 67.6343 119.627 68.0658 117.785C68.8262 114.539 72.3076 113.04 75.3493 111.673L88.4098 105.802C90.1766 105.007 92.2263 104.21 93.9764 105.037C94.9176 105.57 95.702 106.341 96.251 107.273C97.1041 108.398 97.7178 109.687 98.0546 111.058C97.2583 113.234 96.7809 115.514 96.6373 117.826C96.0541 122.608 95.2033 127.353 94.0889 132.039C93.2672 135.498 93.3162 139.096 90.7734 141.581C90.5507 141.804 88.8963 142.89 89.051 143.424C89.1357 143.712 88.8963 142.89 88.884 143.19C88.7679 146.299 89.7506 149.349 91.6596 151.805C91.0061 152.974 89.5253 153.343 88.2083 153.552C83.6559 154.29 79.0244 154.407 74.4408 153.898C72.3593 153.73 70.3227 153.202 68.421 152.34C67.6806 151.97 68.7438 152.304 68.804 151.493Z" fill="#F2B06D"/>
<path d="M88.6102 142.708C88.297 142.848 87.9928 143.008 87.6995 143.186L86.2355 143.909C86.0896 143.982 78.8285 143.885 81.5595 143.648C80.0884 143.847 78.5907 143.676 77.2024 143.15C75.8141 142.624 74.579 141.76 73.6092 140.636C71.8746 138.624 69.6702 135.583 69.3985 133.78C68.9341 130.656 68.8967 127.483 69.2872 124.348C69.6301 121.582 73.3219 117.52 75.4284 115.499C76.5306 114.441 78.0035 113.836 79.1224 112.795C79.3915 112.576 79.593 112.285 79.7036 111.956C79.7467 111.691 79.7225 111.42 79.6332 111.167C79.5439 110.914 79.3924 110.687 79.1925 110.508C77.183 108.434 73.9331 109.592 71.9559 111.106C69.9912 112.576 68.4308 114.519 67.4202 116.755C66.7766 118.314 66.4081 120.084 65.1712 121.23C64.1035 120.91 63.2173 119.796 62.1274 120.027C61.0831 120.25 60.709 121.525 60.5765 122.588C60.264 124.287 60.3683 126.036 60.8804 127.686C61.7477 129.982 63.8219 131.484 65.4863 133.172C66.3921 134.009 67.1183 135.021 67.6206 136.147C68.3576 138.052 69.4019 139.651 69.3184 141.655C69.2238 143.868 69.0746 147.526 68.9844 149.739C68.9521 150.5 67.8132 150.195 68.1483 150.891C68.4413 151.61 68.9411 152.226 69.5845 152.66C73.0752 154.753 77.0769 155.838 81.1464 155.795C83.0985 155.84 85.0328 155.416 86.7866 154.557C87.105 154.557 87.6884 153.946 87.9099 153.746C88.2971 153.399 88.6421 153.007 88.9375 152.579C89.3598 151.696 89.7069 150.779 89.9752 149.838C90.039 149.723 90.0795 149.596 90.0943 149.465C90.0892 149.322 90.054 149.182 89.9908 149.053C89.5608 148.127 89.2834 147.137 89.1691 146.123C89.0723 145.001 89.0266 143.756 88.8229 142.661C88.7505 142.669 88.6792 142.685 88.6102 142.708Z" fill="#D8854C"/>
<path d="M92.037 105.995C92.1851 108.556 94.1256 110.609 95.1777 112.949C96.5137 115.92 95.957 120.268 95.8079 123.525C96.094 121.299 97.7707 118.373 98.6023 116.289C99.9814 112.799 100.221 108.962 99.2881 105.327C99.1217 104.379 98.7594 103.477 98.2244 102.677C97.6893 101.878 96.9933 101.199 96.1808 100.683C95.4962 100.392 94.7946 100.142 94.08 99.9351C90.9994 98.8117 88.9586 95.9015 86.1998 94.1302C83.893 92.7494 81.2802 91.9614 78.5946 91.8367C73.1801 91.4432 67.7811 92.786 63.1816 95.6699C61.6933 96.577 60.3501 97.7029 59.197 99.0099C58.0062 100.468 57.0407 102.097 56.3324 103.842C52.7909 112.062 52.969 122.255 58.4065 129.364L58.4299 127.668C60.1767 133.478 65.8057 137.206 68.8073 142.476C68.4644 139.487 69.4864 136.037 67.5604 133.728C66.6375 132.847 65.6148 132.078 64.5132 131.435C62.9042 130.226 61.7618 128.499 61.2789 126.546C60.9644 125.515 61.0438 124.404 61.5016 123.429C61.7445 122.954 62.1499 122.582 62.644 122.38C63.1381 122.179 63.688 122.162 64.1936 122.332C64.6344 122.568 65.0153 122.901 65.307 123.307C66.2502 124.445 67.1204 125.642 67.9122 126.89C67.9278 123.453 68.5365 120.045 69.7113 116.815C70.0208 115.967 71.3557 115.684 72.1751 115.305C75.5808 113.721 79.2504 112.799 82.7729 111.498C86.2955 110.198 89.6055 108.857 92.037 105.995Z" fill="#5A489B"/>
<path d="M57.7263 160.813C54.7493 162.952 51.9281 165.234 50.277 168.547C49.4879 170.248 48.9379 172.05 48.6427 173.901C47.9425 177.988 47.5584 182.123 47.4937 186.268C47.3853 189.697 47.3634 193.128 47.428 196.56C47.487 199.723 47.1608 203.456 47.8789 206.543C48.8063 210.535 54.1937 210.241 57.3701 210.149C71.1554 209.75 84.9507 208.941 98.7271 209.572C103.947 209.81 109.51 210.181 114.061 207.611C115.372 206.97 116.415 205.886 117.005 204.552C117.349 203.117 117.373 201.624 117.077 200.178C116.7 196.131 117.569 192.075 117.587 188.011C117.62 180.88 115.151 173.36 112.885 166.676C112.093 163.869 110.554 161.329 108.432 159.328C106.272 157.506 103.467 156.686 100.956 155.388C98.9086 154.329 97.1918 152.649 95.1555 151.638C93.6959 150.913 92.5214 151.297 91.0362 151.467C89.2381 151.67 87.4668 151.801 85.6588 152.052C82.0694 152.561 78.4343 151.258 74.8216 151.558C72.9701 151.71 71.083 152.279 69.2905 151.792C67.7741 152.816 66.3345 153.95 64.9831 155.184C62.7194 157.252 60.2926 159.135 57.7263 160.813Z" fill="#92B7F0"/>
<path d="M64.3729 125.178C64.1847 124.906 63.9401 124.678 63.6559 124.51C63.5123 124.428 63.3465 124.394 63.1824 124.413C63.0183 124.432 62.8644 124.502 62.743 124.614C62.6352 124.75 62.5657 124.912 62.5415 125.084C62.3867 125.859 62.5189 126.664 62.9133 127.349C63.0035 127.543 63.1403 127.711 63.3114 127.84C63.4825 127.968 63.6827 128.052 63.8942 128.084C64.1571 128.056 64.4176 128.009 64.6735 127.942C64.9351 127.912 65.2591 128.03 65.2947 128.292C65.5087 128.006 65.6353 127.665 65.6592 127.31C65.6831 126.954 65.6033 126.599 65.4295 126.288C65.0686 125.67 64.5655 125.147 63.9621 124.763" fill="#A5452B"/>
<path d="M65.0253 129.424C65.2677 129.379 65.4952 129.275 65.6878 129.121C65.8696 128.996 66.0474 128.865 66.221 128.729C66.271 128.678 66.3312 128.637 66.3977 128.61C66.4642 128.584 66.5357 128.571 66.6074 128.573C66.7258 128.613 66.8248 128.696 66.8846 128.806C67.1149 129.06 67.2479 129.387 67.2598 129.729C67.2541 129.808 67.2326 129.884 67.1966 129.955C67.1607 130.025 67.1109 130.087 67.0503 130.138C66.9897 130.188 66.9196 130.226 66.8441 130.249C66.7685 130.272 66.6892 130.28 66.6107 130.271C66.5088 130.232 66.4038 130.203 66.2967 130.182C65.9817 130.168 65.8069 130.603 65.4929 130.635C65.238 130.662 65.0476 130.413 64.9196 130.19C64.7272 129.889 64.5721 129.565 64.4575 129.227C64.6145 129.363 64.8178 129.433 65.0253 129.424Z" fill="#A5452B"/>
<path d="M65.1411 115.318C65.1857 114.463 66.2756 118.086 66.7755 120.751C67.0327 122.123 68.3887 125.725 67.7775 126.776C67.6875 126.748 67.6042 126.701 67.5325 126.64C67.4608 126.579 67.4021 126.503 67.36 126.419C66.815 125.46 66.1999 124.544 65.5197 123.676C65.2941 123.325 64.998 123.025 64.6504 122.795C64.3027 122.565 63.911 122.41 63.5001 122.34C62.1207 122.251 61.2812 123.646 61.1521 124.827C60.8838 127.291 62.4302 129.311 64.2572 130.784C64.3574 130.864 64.4587 130.944 64.5611 131.02C65.317 131.577 66.152 132.037 66.8802 132.637C67.5517 133.236 68.1082 133.953 68.5223 134.752C69.1625 135.911 69.3918 141.486 69.2805 142.785C69.1759 144.003 68.7873 140.876 68.7884 142.106C68.9362 142.344 69.1006 142.571 69.2805 142.785C69.816 143.044 68.6437 142.228 68.5947 142.19C67.9822 141.703 67.4779 141.093 67.114 140.4C66.4247 139.192 65.5277 138.116 64.4642 137.219C63.3316 136.341 62.3342 135.301 61.5039 134.133C60.6373 132.885 59.9083 131.548 59.3295 130.143C59.2182 129.873 58.833 128.277 58.6003 128.209C58.1873 128.09 57.988 129.187 57.8922 129.434C57.4511 129.032 57.1138 128.53 56.9092 127.97C55.3453 124.487 54.3247 120.785 53.8831 116.992C53.3765 112.635 54.6424 107.869 56.1677 103.823C56.7033 102.192 57.5334 100.673 58.617 99.3416C59.3826 98.5429 60.2267 97.8234 61.1365 97.1939C63.0624 95.5865 65.1911 94.239 67.468 93.1859C68.5275 92.7042 69.6171 92.2918 70.7301 91.9513C72.7341 91.4324 77.0427 91.9958 75.4963 95.1176C74.781 96.2512 73.67 97.0785 72.3789 97.4389C72.874 97.7831 73.4689 97.9541 74.0712 97.9254C72.2431 100.344 70.3656 102.723 68.4388 105.064C68.4388 105.064 65.0354 112.015 65.1411 115.318Z" fill="#042759"/>
<path d="M112.603 183.373C111.826 179.282 109.606 175.608 106.346 173.019C105.918 172.601 105.404 172.282 104.84 172.084C104.276 171.887 103.676 171.815 103.081 171.874C105.382 175.175 107.215 178.777 108.53 182.58C109.049 184.082 111.048 183.7 112.603 183.373Z" fill="#407BD2"/>
<path d="M87.9678 157.991C88.0268 158.13 88.0791 158.257 88.117 158.367C88.1782 158.535 88.2595 158.725 88.4287 158.783C88.5711 158.812 88.7194 158.789 88.8462 158.718C91.4645 157.624 93.9251 156.185 96.163 154.441C96.4468 154.246 96.6887 153.996 96.8745 153.707C97.5425 152.509 95.8001 151.467 95.17 150.649C94.2793 149.493 93.2539 148.151 91.6429 148.151C90.5949 148.545 89.5977 149.062 88.6725 149.692C88.0647 150.073 86.2766 150.812 85.9627 151.442C85.3292 152.71 87.2564 156.312 87.9678 157.991Z" fill="#DAE8FA"/>
<path d="M169.931 110.24C169.891 110.151 169.85 110.061 169.807 109.973C169.742 109.84 169.671 109.711 169.601 109.582C169.389 109.195 169.193 108.795 168.946 108.43L168.561 107.861L168.368 107.577C168.346 107.543 168.222 107.315 168.191 107.315C168.147 107.236 168.082 107.172 168.003 107.128C167.953 107.401 167.969 107.683 168.05 107.949C168.253 108.905 168.379 109.875 168.43 110.851C168.458 111.408 168.462 111.975 168.465 112.537C168.515 113.111 168.515 113.688 168.465 114.262C169.04 113.91 169.524 113.427 169.878 112.853C170.003 112.683 170.12 112.507 170.229 112.325C170.272 112.245 170.325 112.17 170.387 112.103L170.554 111.924C170.592 111.872 170.635 111.824 170.683 111.781C170.706 111.763 170.572 111.541 170.558 111.517C170.501 111.406 170.447 111.294 170.385 111.183C170.273 110.96 170.153 110.738 170.051 110.515L169.931 110.24Z" fill="#FCE5DE"/>
<path d="M173.365 127.414C172.232 127.864 171.065 128.222 169.875 128.484C168.684 128.77 167.468 128.936 166.244 128.981C165.08 128.913 163.971 128.464 163.088 127.703C162.006 127.019 160.94 126.31 159.891 125.574C158.457 124.572 156.473 123.544 155.737 121.886C155.517 121.336 155.364 120.762 155.28 120.175C154.319 114.677 153.796 109.11 153.715 103.529C153.661 102.688 153.722 101.845 153.895 101.021C154.233 99.9233 154.8 98.9102 155.558 98.048C156.221 97.2172 156.933 96.4279 157.692 95.6844C158.214 95.1733 159.006 94.4708 158.909 93.6481C158.827 92.95 158.281 92.9701 157.685 92.8799C156.204 92.6324 154.683 92.8068 153.297 93.3831C151.872 94.021 150.593 94.9437 149.538 96.0944C148.483 97.2451 147.675 98.5995 147.163 100.074C146.431 102.296 146.111 104.632 146.216 106.968C146.246 108.167 146.35 109.364 146.489 110.554C146.559 111.152 146.638 111.748 146.722 112.343C146.86 112.914 146.935 113.498 146.944 114.084C146.436 113.973 146.116 113.34 145.591 113.174C145.196 113.087 144.785 113.107 144.4 113.232C144.108 113.262 143.824 113.351 143.566 113.493C143.308 113.635 143.081 113.827 142.899 114.058C142.716 114.288 142.581 114.553 142.503 114.837C142.424 115.12 142.402 115.417 142.44 115.709C142.257 116.84 142.456 118 143.006 119.004C143.557 120.009 144.426 120.802 145.478 121.257C146.791 121.873 148.276 122.081 149.551 122.774C151.757 123.974 152.989 126.437 153.583 128.877C154.178 131.318 154.275 133.862 154.919 136.289C154.992 136.686 155.175 137.055 155.447 137.353C155.758 137.594 156.128 137.747 156.518 137.798C161.404 138.865 167.266 139.163 172.105 137.626C177.619 135.878 174.144 131.741 173.365 127.414Z" fill="#F7A98D"/>
<path d="M145.497 113.472L148.273 116.888C148.526 117.261 148.874 117.561 149.28 117.756C149.486 117.846 149.719 117.854 149.93 117.778C150.142 117.702 150.316 117.548 150.418 117.348C149.546 113.951 149.046 110.469 148.927 106.964C148.862 105.832 148.918 104.697 149.094 103.578C149.427 101.779 150.269 100.113 151.52 98.7783C154.044 96.0974 158.372 95.9026 162.046 95.6476C165.72 95.3927 169.466 95.5107 173.014 94.5243C175.878 93.8159 178.389 92.0958 180.084 89.6813C180.191 89.4995 180.245 89.2907 180.237 89.0796C180.229 88.8685 180.162 88.664 180.041 88.4903C179.921 88.3167 179.754 88.1811 179.559 88.0998C179.364 88.0184 179.15 87.9947 178.942 88.0313C177.638 88.2492 176.321 88.3868 175 88.4433L177.293 85.5486C177.403 85.4117 177.48 85.251 177.517 85.0793C177.554 84.9075 177.55 84.7295 177.507 84.5593C177.463 84.3892 177.38 84.2316 177.265 84.0991C177.149 83.9666 177.004 83.8629 176.842 83.7962C174.457 82.8699 172.338 81.2355 169.953 80.2491C166.521 78.911 162.742 78.7458 159.207 79.7793C156.136 80.632 153.318 82.2171 150.995 84.3985C150.25 82.7781 149.863 81.0161 149.86 79.2327C144.937 82.8314 141.186 87.8041 139.079 93.5267C137.841 93.2584 136.697 93.1081 135.459 92.8398C136.532 93.6747 137.27 94.867 137.539 96.1999C137.507 97.1463 137.288 98.077 136.895 98.9387C136.023 101.759 136.119 104.79 137.168 107.549C138.217 110.308 140.159 112.637 142.685 114.165C143.498 113.58 144.505 113.332 145.497 113.472Z" fill="#FF9400"/>
<path d="M150.349 117.353C150.329 117.43 150.291 117.501 150.238 117.56C150.175 117.627 150.1 117.679 150.015 117.714C149.838 117.783 149.648 117.812 149.459 117.8C149.27 117.787 149.086 117.733 148.919 117.641C148.589 117.455 148.3 117.202 148.072 116.899C147.235 115.872 146.667 114.547 145.512 113.907C145.255 113.803 144.98 113.751 144.704 113.754C144.427 113.757 144.153 113.816 143.899 113.926C143.496 114.028 142.998 113.951 142.728 114.305C141.091 113.382 139.72 112.053 138.748 110.445C137.602 108.898 136.684 107.194 136.02 105.387C135.549 103.898 135.435 102.318 135.686 100.777C136.14 99.3045 136.494 97.8037 136.747 96.2843C136.803 95.6647 136.72 95.0406 136.507 94.4563C136.293 93.8721 135.953 93.3422 135.512 92.9043C135.604 92.9844 136.619 92.7206 136.831 92.7439C137.354 92.9035 137.914 92.8879 138.427 92.6994C138.732 92.4798 138.97 92.1815 139.118 91.8366C141.79 86.9034 145.096 82.2675 149.782 79.0767C150.095 80.1744 149.51 81.0506 149.171 82.0749C148.794 83.2164 148.455 84.3695 148.155 85.534C147.565 87.8305 147.129 90.1636 146.849 92.5179C146.789 93.0145 146.789 93.6313 147.218 93.8851C148.185 93.3294 149.103 92.6917 149.96 91.9791C149.614 95.8301 147.15 99.5152 147.956 103.297L148.788 102.295C148.256 102.939 148.573 104.462 148.636 105.21C148.747 106.546 148.898 107.859 148.97 109.201C149.234 111.753 149.689 114.282 150.332 116.765C150.381 116.957 150.387 117.158 150.349 117.353Z" fill="#E48B19"/>
<path d="M174.979 133.61C173.166 134.157 171.354 135.755 169.656 136.338C167.352 137.218 164.93 137.752 162.469 137.924C161.114 137.982 159.759 137.81 158.461 137.415C157.822 137.309 157.211 137.079 156.661 136.737C156.145 136.477 155.596 136.29 155.03 136.181C154.921 136.148 154.808 136.139 154.696 136.153C154.609 136.177 154.528 136.214 154.454 136.264C153.347 136.909 152.206 137.47 151.066 138.061C149.31 138.972 147.579 139.932 145.901 140.978C143.462 142.371 141.28 144.172 139.452 146.304C137.932 148.379 136.745 150.678 135.934 153.119C130.685 167.18 129.352 182.405 129.332 197.414C129.332 200.186 129.5 203.28 131.505 205.194C131.983 205.688 132.608 206.016 133.286 206.129C133.862 206.165 134.438 206.083 134.981 205.887C137.2 205.22 139.314 204.24 141.256 202.976C141.585 202.699 142.003 202.547 142.433 202.55C143.139 202.651 143.422 203.51 143.49 204.22C143.733 206.797 143.254 209.817 145.129 211.602C155.525 213.794 166.233 214.084 176.733 212.457C177.854 212.343 178.952 212.061 179.99 211.622C180.954 211.109 181.843 210.468 182.636 209.718C185.692 207.068 188.948 204.066 189.529 200.063C189.678 199.041 189.825 197.743 190.812 197.442C191.214 197.357 191.631 197.382 192.019 197.517C196.154 198.585 199.917 200.769 202.896 203.829C206.176 199.169 209.576 194.164 209.836 188.465C210.007 184.662 208.742 181.026 207.903 177.369C207.202 173.755 207.081 170.052 207.543 166.4C207.881 163.594 207.527 160.748 206.511 158.111C205.456 155.282 204.206 152.529 202.77 149.873C201.592 147.513 200.044 145.357 198.185 143.486C196.266 141.809 194.112 140.421 191.792 139.367C187.044 137.007 182.102 135.061 177.02 133.549C176.349 133.364 175.638 133.386 174.979 133.61Z" fill="#68697F"/>
<path d="M157.726 170.386L158.847 166.899C159.09 166.145 159.524 165.242 160.317 165.244C161.162 165.244 161.084 166.469 160.956 167.036C160.828 167.602 160.576 168.135 160.406 168.691C160.147 169.705 160.024 170.749 160.042 171.795C160.017 172.678 160.104 173.296 161.067 172.851C161.767 172.46 162.377 171.927 162.857 171.285L168.235 165.066C168.513 164.705 168.852 164.395 169.237 164.151C169.431 164.032 169.652 163.964 169.88 163.954C170.107 163.944 170.334 163.993 170.537 164.095C171.666 164.776 170.203 166.556 169.712 167.179C168.599 168.597 167.399 169.944 166.27 171.356C165.979 171.684 165.741 172.055 165.566 172.456C165.482 172.664 165.446 172.888 165.46 173.112C165.475 173.336 165.54 173.553 165.651 173.748C166.977 172.696 168.2 171.519 169.302 170.234L173.004 166.621C173.341 166.253 173.738 165.945 174.179 165.711C174.401 165.596 174.648 165.539 174.898 165.545C175.147 165.551 175.391 165.621 175.607 165.746C177.055 166.731 173.97 168.961 173.326 169.62L170.399 172.618C169.431 173.341 168.687 174.323 168.254 175.45C168.22 175.534 168.205 175.625 168.21 175.716C168.216 175.807 168.242 175.895 168.286 175.975C168.787 176.63 171.084 174.289 171.507 173.965C172.765 173 174.058 172.08 175.387 171.205C176.536 170.451 178.143 171.01 177.025 172.397C176.124 173.397 175.116 174.293 174.019 175.069C173.387 175.567 170.627 177.445 170.868 178.373C170.941 178.656 171.304 178.735 171.597 178.731C173.076 178.569 174.521 178.176 175.879 177.567C176.05 177.494 176.237 177.468 176.421 177.491C177.835 177.789 175.701 179.671 175.261 179.886C172.661 181.158 169.927 182.134 167.109 182.796C166.093 182.984 165.1 183.276 164.144 183.669C162.615 184.386 158.706 188.718 157.047 186.724C156.184 185.686 155.462 184.539 154.901 183.311C154.663 182.865 154.515 182.375 154.468 181.871C154.42 181.367 154.473 180.858 154.624 180.374C154.847 179.355 155.165 178.36 155.485 177.368L157.726 170.386Z" fill="#FFCCB6"/>
<path d="M140.043 176.812C139.814 174.29 139.586 171.77 139.552 169.23C139.413 166.922 139.76 164.61 140.57 162.444C140.91 166.663 141.498 170.858 142.331 175.008C142.481 176.006 142.789 176.972 143.243 177.873C143.586 178.479 144.051 179.006 144.418 179.597C144.998 180.644 145.424 181.769 145.681 182.937C145.803 183.22 145.861 183.527 145.85 183.835C145.84 184.143 145.762 184.445 145.621 184.719C145.38 184.988 145.073 185.19 144.73 185.303C144.211 185.589 143.635 185.754 143.044 185.786C142.452 185.818 141.862 185.715 141.315 185.486C140.621 185.235 139.049 185.22 139.128 184.181C138.605 184.219 138.09 184.328 137.597 184.505C137.53 184.26 137.498 184.007 137.502 183.752C137.494 183.633 137.528 183.515 137.598 183.418C137.673 183.348 137.767 183.301 137.869 183.283C138.428 183.131 139.008 183.07 139.586 183.103C139.722 183.126 139.86 183.111 139.987 183.059C140.103 182.982 140.189 182.868 140.233 182.736C140.922 181.108 140.199 178.514 140.043 176.812Z" fill="#50516A"/>
<path d="M198.516 186.522C197.06 188.181 195.448 189.697 193.702 191.047L197.219 191.507C196.817 191.454 196.247 192.118 195.966 192.339C195.409 192.776 194.771 193.084 194.209 193.531C193.721 193.863 193.343 194.332 193.12 194.879C192.977 195.452 193.036 196.056 193.287 196.59C193.51 197.132 193.812 197.637 194.021 198.182C193.699 197.943 193.319 197.796 192.92 197.757C192.522 197.717 192.12 197.788 191.758 197.96C191.247 198.253 190.805 198.651 190.459 199.129C189.487 200.35 188.747 201.739 188.276 203.227C186.582 208.604 183.581 209.098 178.432 208.631C174.008 208.229 169.421 209.455 165.124 210.365C164.41 210.516 161.186 211.821 160.598 211.379C159.181 210.314 161.662 208.964 162.491 208.65C164.205 208.089 165.807 207.231 167.224 206.115C167.928 205.551 168.498 204.837 168.892 204.026C169.287 203.214 169.495 202.325 169.503 201.423C168.918 202.448 167.139 201.397 167.276 200.226C167.413 199.055 168.542 198.295 169.56 197.699C173.258 195.539 177.059 193.417 180.038 190.341C185.234 184.978 185.853 175.805 184.714 168.713C184.3 166.142 183.29 162.969 184.358 160.432C184.424 160.249 184.527 160.081 184.659 159.937C184.791 159.794 184.951 159.679 185.129 159.598C185.306 159.517 185.498 159.472 185.693 159.466C185.888 159.461 186.082 159.494 186.264 159.564C186.484 159.73 186.667 159.938 186.805 160.176C186.942 160.415 187.029 160.678 187.062 160.951C189.454 170.294 190.968 179.841 191.583 189.466C192.751 188.968 193.819 188.225 194.97 187.672C195.678 187.338 198.111 186.985 198.516 186.522Z" fill="#50516A"/>
<path d="M166.332 183.052C168.206 182.718 170.051 182.234 171.847 181.605C173.499 180.982 175.521 180.137 176.585 178.654C176.807 178.34 177.046 177.726 176.578 177.505C176.252 177.43 175.91 177.483 175.622 177.651C174.806 178.026 173.957 178.322 173.084 178.533C172.633 178.696 172.151 178.757 171.674 178.712C170.816 178.522 171.218 177.867 171.611 177.391C172.111 176.785 172.66 176.222 173.255 175.709C174.276 174.825 175.421 174.08 176.428 173.159C176.772 172.88 177.053 172.531 177.253 172.135C177.374 171.934 177.413 171.694 177.36 171.466C177.308 171.237 177.169 171.038 176.972 170.91C176.34 170.611 175.577 171.147 175.052 171.449C172.468 172.934 170.327 175.162 167.592 176.348C167.023 176.594 166.434 176.793 165.878 177.065C165.465 177.267 165.098 177.558 164.683 177.757C164.349 177.873 163.999 177.931 163.646 177.931C162.763 177.988 161.893 178.167 161.059 178.462C159.714 179.069 158.605 180.101 157.904 181.4C156.938 183.054 155.132 186.088 157.655 187.156C158.178 187.367 158.751 187.421 159.305 187.313C159.843 187.233 160.353 187.025 160.794 186.706C161.52 185.865 162.293 185.066 163.109 184.311C164.067 183.64 165.173 183.209 166.332 183.052Z" fill="#F7A98D"/>
<path d="M130.846 201.25C130.778 201.154 130.694 201.069 130.598 200.999C130.311 200.822 130.041 200.618 129.79 200.392C129.489 199.983 129.353 199.475 129.408 198.97C129.382 198.577 129.369 198.183 129.365 197.789C129.357 197.034 129.379 196.277 129.392 195.522C129.548 193.89 130.219 192.349 131.308 191.122C132.332 189.772 133.489 188.526 134.759 187.403C135.534 186.703 136.349 186.048 137.198 185.44C137.496 185.227 138.135 184.597 138.496 184.566C139.019 184.519 138.854 184.789 139.295 184.937C141.704 185.722 144.05 184.794 146.378 183.885L151.047 182.06C151.575 181.853 152.082 181.601 152.617 181.413C153.231 181.197 153.878 181.131 154.504 180.968C154.355 181.008 154.528 181.765 154.563 181.89C154.641 182.238 154.772 182.572 154.953 182.879C155.363 183.523 155.043 184.159 154.766 184.784C154.408 185.593 154.071 186.409 153.756 187.234C153.477 188.041 153.139 188.826 152.743 189.583C152.381 190.194 151.968 190.773 151.507 191.313C150.768 192.226 149.97 193.089 149.118 193.898C148.331 194.771 147.593 195.686 146.907 196.64C145.424 198.606 143.57 200.262 141.451 201.515C140.602 201.926 139.723 202.272 138.822 202.549C138.038 202.837 137.226 203.043 136.399 203.163C135.862 203.211 135.322 203.224 134.782 203.202C133.604 203.043 132.485 202.591 131.528 201.886C131.375 201.793 131.23 201.686 131.097 201.566C131.003 201.469 130.919 201.363 130.846 201.25Z" fill="#75768A"/>
<path d="M154.829 183.887C154.372 186.161 153.328 188.275 151.802 190.021C148.458 194.334 144.406 198.049 139.82 201.008C138.659 201.838 137.351 202.44 135.966 202.784C135.272 202.949 134.548 202.948 133.854 202.78C133.161 202.613 132.516 202.285 131.973 201.822C131.667 201.822 131.174 200.728 131.068 200.493C130.852 199.986 130.681 199.46 130.557 198.922C130.397 198.288 130.235 197.654 130.073 197.021C129.872 196.508 129.739 195.971 129.68 195.423C129.566 195.39 129.455 195.35 129.346 195.304C129.346 197.976 128.972 200.787 130.134 203.303C130.793 204.733 131.933 206.233 133.667 206.205C135.125 206.25 136.58 206.052 137.973 205.62C139.375 205.06 140.715 204.354 141.971 203.516C146.971 200.551 151.624 197.036 155.842 193.037C157.957 190.836 159.925 188.498 161.733 186.038C161.098 185.996 160.471 185.877 159.866 185.684C159.206 185.542 158.559 185.345 157.932 185.095C156.783 184.529 155.75 183.754 154.887 182.808C154.896 183.169 154.876 183.529 154.829 183.887Z" fill="#50516A"/>
<path d="M166.761 170.125C166.24 170.734 165.786 171.396 165.407 172.101C165.252 172.347 165.165 172.629 165.152 172.919C165.14 173.209 165.204 173.498 165.337 173.756C165.355 173.787 165.379 173.815 165.408 173.836C165.437 173.858 165.47 173.874 165.505 173.883C165.616 173.899 165.711 173.791 165.727 173.681C165.735 173.568 165.721 173.455 165.689 173.347C165.664 172.922 165.732 172.496 165.888 172.1C166.044 171.703 166.284 171.346 166.593 171.051C167.773 169.593 169.074 168.23 170.165 166.704C170.535 166.238 170.808 165.703 170.968 165.131C171.005 164.969 171.134 164.535 170.904 164.559C170.713 164.577 170.483 165.07 170.388 165.206C169.646 166.288 168.878 167.353 168.084 168.403C167.651 168.983 167.21 169.557 166.761 170.125Z" fill="#F7A98D"/>
<path d="M173.569 168.626L171.035 171.157C170.077 172.039 169.23 173.034 168.512 174.121C168.156 174.647 167.952 175.261 167.921 175.896C167.921 176.096 168.032 176.359 168.226 176.324C168.419 176.29 168.435 176.027 168.432 175.831C168.441 175.255 168.629 174.696 168.969 174.231C169.309 173.77 169.694 173.346 170.121 172.964L174.74 168.533C175.127 168.191 175.464 167.797 175.742 167.361C175.84 167.19 176.306 166.087 175.863 166.074C175.641 166.066 174.958 167.169 174.789 167.36C174.397 167.796 173.982 168.211 173.569 168.626Z" fill="#F7A98D"/>
<path d="M159.986 168.447C159.81 169.058 159.682 169.682 159.603 170.312C159.508 171.277 159.642 172.25 159.994 173.153C160.085 173.388 160.24 173.651 160.49 173.662C160.582 173.654 160.672 173.627 160.752 173.582C160.833 173.538 160.903 173.476 160.959 173.403C161.171 173.182 161.364 172.944 161.537 172.691C161.273 172.771 160.999 172.808 160.723 172.803C160.636 172.807 160.549 172.787 160.473 172.746C160.401 172.693 160.347 172.621 160.316 172.538C160.111 171.956 160.065 171.33 160.182 170.724C160.232 170.017 160.351 169.317 160.538 168.633C160.973 167.755 161.141 166.768 161.021 165.795C161.017 165.745 161.001 165.696 160.976 165.653C160.951 165.609 160.916 165.572 160.875 165.543C160.632 165.419 160.073 168.128 159.986 168.447Z" fill="#F7A98D"/>
<path d="M144.116 115.738C144.076 115.992 144.058 116.249 144.061 116.507C144.042 116.688 144.067 116.87 144.135 117.038C144.203 117.207 144.311 117.356 144.451 117.472C144.659 117.6 144.925 117.595 145.145 117.702C145.749 117.991 145.72 118.902 146.211 119.356C146.465 119.552 146.764 119.682 147.08 119.735L147.78 119.908C147.763 119.502 147.684 119.101 147.546 118.719C147.475 118.529 147.363 118.356 147.219 118.212C147.074 118.069 146.901 117.959 146.709 117.89C146.612 117.871 146.518 117.836 146.433 117.784C146.274 117.66 146.285 117.424 146.274 117.227C146.237 116.507 144.339 114.339 144.116 115.738Z" fill="#EA9E86"/>
<path d="M224.143 131.692C224.053 131.474 223.944 131.265 223.817 131.067C222.537 129.072 220.588 128.037 219.633 125.612C218.748 123.168 218.335 120.579 218.415 117.981C218.439 113.183 219.353 103.599 225.287 102.172C227.455 101.648 229.923 102.601 231.877 101.526C232.454 101.209 232.936 100.733 233.532 100.453C235.222 99.6545 237.177 100.622 238.789 101.566C240.33 102.339 241.706 103.407 242.837 104.709C244.929 107.466 244.547 111.278 244.921 114.719C244.925 114.915 244.984 115.105 245.093 115.268C245.46 115.722 246.159 115.32 246.707 115.116C248.6 114.407 250.372 116.898 249.949 118.878C249.526 120.859 247.891 122.296 246.561 123.819C243.48 127.41 241.623 131.889 241.259 136.606C241.298 137.469 241.243 138.334 241.096 139.186C240.808 140.128 240.36 141.013 239.771 141.803L236.274 147.09C236.144 147.288 235.972 147.508 235.736 147.504C235.575 147.484 235.427 147.407 235.316 147.288C233.888 146.053 232.48 144.913 230.974 143.745C228.893 142.19 226.9 140.522 225.002 138.748C223.796 137.577 223.457 137.363 223.926 135.742C224.461 134.457 224.538 133.027 224.143 131.692Z" fill="#B5745B"/>
<path d="M233.92 109.743C234.206 110.047 235.014 109.855 235.489 110.011C236.325 110.273 237.04 110.826 237.505 111.569C237.523 111.607 237.551 111.639 237.585 111.663C237.629 111.682 237.677 111.685 237.722 111.673C239.058 111.424 237.818 110.114 237.325 109.738C236.538 109.128 235.562 108.813 234.567 108.847C234.177 108.874 233.491 109.284 233.92 109.743Z" fill="#444560"/>
<path d="M232.241 114.277C232.717 114.052 233.238 113.938 233.764 113.943C234.027 113.951 234.28 114.046 234.484 114.213C234.687 114.38 234.83 114.61 234.889 114.866C234.888 114.934 234.906 115.001 234.942 115.059C235.026 115.159 235.193 115.106 235.286 115.016C235.405 114.883 235.476 114.714 235.488 114.537C235.501 114.359 235.455 114.182 235.356 114.033C235.152 113.74 234.853 113.524 234.51 113.422C233.782 113.18 232.992 113.201 232.277 113.479C232.074 113.549 231.767 113.598 231.689 113.831C231.573 114.192 231.95 114.392 232.241 114.277Z" fill="#111236"/>
<path d="M227.401 110.22C226.455 112.224 225.619 114.323 224.694 116.197C224.102 117.398 223.546 118.631 224.626 119.584C225.276 120.159 226.03 119.464 226.531 120.353C226.941 121.083 225.916 124.405 225.885 125.38C225.798 127.119 225.994 128.861 226.465 130.537C226.513 130.75 226.614 130.947 226.759 131.11C227.019 131.305 227.341 131.399 227.664 131.375C231.972 131.545 236.042 131.104 239.627 128.725C239.17 130.057 238.826 131.426 238.601 132.817C238.126 134.921 237.414 136.854 238.111 139.02C238.404 139.587 238.531 140.225 238.476 140.861C238.422 141.497 238.188 142.105 237.802 142.613C237.083 143.986 236.529 145.44 236.152 146.943C236.132 147.066 236.083 147.182 236.01 147.283C235.714 147.625 235.177 147.263 234.875 146.925C233.817 145.744 232.586 144.73 231.223 143.919C228.743 142.36 226.479 140.482 224.488 138.334C222.966 136.713 223.949 135.306 223.938 133.403C223.925 131.108 222.11 129.618 220.896 127.858C219.097 125.242 218.604 122.033 218.281 118.952C217.887 114.889 218.554 110.793 220.217 107.066C221.61 104.194 223.925 101.871 226.793 100.469C228.058 99.8882 231.211 98.4586 232.484 99.6544C234.526 101.575 230.779 104.604 229.801 105.965C228.873 107.307 228.07 108.732 227.401 110.22Z" fill="#8C4D38"/>
<path d="M233.718 122.856C233.791 122.811 233.861 122.762 233.929 122.709C233.961 122.685 233.999 122.658 234.041 122.669C234.056 122.676 234.07 122.686 234.082 122.698C234.093 122.711 234.102 122.726 234.107 122.742C234.195 122.954 234.229 123.185 234.206 123.413C234.184 123.642 234.107 123.861 233.98 124.053C233.722 124.435 233.379 124.751 232.978 124.978C232.175 125.503 231.301 125.913 230.383 126.194C229.608 126.543 228.769 126.728 227.918 126.737C227.385 126.654 227.109 125.823 227.012 125.371C226.953 125.065 226.936 124.751 226.963 124.44C228.36 124.429 229.747 124.189 231.067 123.731C231.989 123.572 232.882 123.277 233.718 122.856Z" fill="white"/>
<path d="M244.229 117.757C244.185 116.891 244.197 116.022 244.265 115.157C244.073 113.907 243.634 112.709 242.974 111.631C242.391 110.538 241.442 109.685 240.294 109.221C239.303 108.87 238.209 108.925 237.206 108.611C234.82 107.866 233.469 105.256 231.184 104.244C229.287 103.605 227.232 103.609 225.338 104.256C224.585 104.445 223.838 104.654 223.095 104.883C222.429 105.179 221.737 105.413 221.027 105.58C219.913 105.677 218.819 104.46 218.143 103.687C217.291 102.724 216.647 101.596 216.251 100.374C216.028 99.7247 215.981 99.7881 215.301 99.7135C214.785 99.6644 214.276 99.5591 213.783 99.3996C212.721 99.05 211.751 98.4637 210.948 97.685C210.145 96.9062 209.53 95.9553 209.148 94.9039C208.596 92.8118 208.782 90.5936 209.674 88.6225C211.296 84.8822 214.201 81.8443 217.864 80.0561C221.528 78.268 225.71 77.8472 229.656 78.8697C232.194 79.6123 234.623 80.9761 237.267 80.9461C239.516 80.9216 241.64 79.8795 243.881 79.6802C245.176 79.5736 246.478 79.7472 247.7 80.1891C248.921 80.6309 250.033 81.3307 250.96 82.2409C252.642 83.9109 253.733 86.3168 255.909 87.2687C257.876 88.1293 260.296 87.5693 262.162 88.6336C264.219 89.8071 264.834 92.6116 264.244 94.9062C263.477 97.1517 262.313 99.241 260.806 101.074C259.449 103.013 258.158 105.158 258.086 107.524C258.012 110.037 259.276 112.809 257.901 114.914C256.899 116.447 254.895 116.918 253.428 118.016C250.607 120.131 250.002 124.374 247.09 126.366C246.904 126.521 246.687 126.634 246.452 126.695C246.218 126.757 245.973 126.766 245.735 126.722C245.426 126.575 245.187 126.313 245.068 125.992C244.95 125.671 244.961 125.317 245.099 125.004C245.403 124.388 245.858 123.858 246.421 123.464C247.741 122.53 248.714 121.184 249.186 119.637C249.293 119.093 249.259 118.532 249.087 118.005C248.915 117.479 248.611 117.006 248.203 116.631C246.756 115.412 246.16 116.597 245.369 117.786C245.295 117.92 245.191 118.034 245.066 118.12C244.558 118.396 244.324 118.181 244.229 117.757Z" fill="#444560"/>
<path d="M222.765 108.884C222.501 108.917 222.24 108.973 221.985 109.051C221.809 109.108 221.547 109.344 221.402 109.369C221.045 109.432 221.056 108.924 221.235 108.612C221.388 108.371 221.605 108.179 221.863 108.056C222.726 107.652 223.698 107.546 224.627 107.753C224.825 107.761 225.018 107.817 225.189 107.916C225.36 108.015 225.505 108.154 225.61 108.322C225.701 108.531 225.722 109.031 225.47 109.123C225.295 109.187 224.824 108.933 224.637 108.894C224.019 108.781 223.385 108.778 222.765 108.884Z" fill="#444560"/>
<path d="M222.889 112.864C223.074 112.827 223.266 112.848 223.439 112.924C223.612 113.001 223.756 113.129 223.853 113.291C223.874 113.364 223.906 113.434 223.947 113.498C223.979 113.527 224.017 113.549 224.059 113.562C224.1 113.575 224.144 113.579 224.187 113.573C224.23 113.568 224.271 113.552 224.308 113.529C224.345 113.506 224.376 113.474 224.399 113.438C224.44 113.359 224.462 113.271 224.462 113.183C224.462 113.094 224.44 113.006 224.399 112.928C224.309 112.753 224.183 112.6 224.029 112.477C223.876 112.355 223.698 112.266 223.508 112.216C223.083 112.069 222.623 112.058 222.191 112.182C221.759 112.307 221.376 112.562 221.095 112.912C220.562 113.971 222.52 112.899 222.889 112.864Z" fill="#111236"/>
<path d="M220.301 172.082C219.522 170.428 218.935 168.689 218.552 166.901C218.467 166.344 218.208 165.83 217.81 165.431C217.372 165.085 216.564 165.184 216.434 165.727C216.376 166.356 216.351 166.988 216.36 167.62C216.415 169.949 216.795 172.258 217.49 174.482C217.817 175.619 218.215 176.734 218.682 177.822C218.798 178.027 218.869 178.255 218.888 178.49C218.907 178.725 218.875 178.962 218.793 179.183C218.636 179.676 218.382 180.132 218.045 180.525C217.466 181.162 216.798 181.711 216.06 182.156C215.981 182.196 215.917 182.26 215.876 182.339C215.853 182.444 215.865 182.553 215.909 182.65C215.983 182.909 215.993 183.183 215.938 183.447C215.883 183.711 215.764 183.957 215.593 184.165C216.126 183.72 216.661 183.263 217.237 182.867C217.555 182.639 217.898 182.448 218.26 182.298C219.014 182.053 219.806 181.942 220.598 181.971C220.681 181.96 220.765 181.976 220.839 182.017C220.894 182.062 220.935 182.123 220.958 182.191C221.08 182.554 221.225 182.91 221.39 183.256C221.569 183.565 221.775 183.868 221.977 184.163C222.398 184.778 222.864 185.36 223.374 185.904C224.384 186.983 225.567 187.886 226.874 188.576C227.418 188.861 234.03 190.635 233.917 190.075C234.115 191.053 232.581 191.931 233.065 192.806C233.231 193.053 233.482 193.231 233.771 193.306C235.45 193.884 237.276 193.227 238.927 192.577L257.323 185.34C257.388 185.327 257.45 185.301 257.505 185.263C257.56 185.225 257.606 185.176 257.642 185.12C257.677 185.063 257.7 185 257.71 184.934C257.72 184.868 257.716 184.801 257.699 184.736L257.505 179.243C257.516 179.036 257.47 178.829 257.37 178.646C257.14 178.312 256.647 178.328 256.239 178.355C254.829 178.434 253.42 178.167 252.136 177.578C250.852 176.988 249.732 176.094 248.872 174.972C248.065 173.897 247.301 172.492 245.961 172.382C245.503 172.37 245.048 172.446 244.618 172.604C240.276 173.934 236.097 175.779 231.663 176.795C229.727 177.24 227.578 177.839 225.699 177.079C224.005 176.283 222.518 175.104 221.357 173.635C220.949 173.159 220.594 172.638 220.301 172.082Z" fill="#4DC1B7"/>
<path d="M208.164 161.816C208.649 157.021 209.485 152.764 213.122 149.236C214.83 147.577 217.673 145.703 220.146 145.874C220.973 145.932 221.767 146.227 222.595 146.33C223.465 146.389 224.337 146.373 225.204 146.283C227.029 146.22 228.855 146.374 230.644 146.743C232.22 147.042 234.095 147.904 235.654 147.835C235.467 146.708 234.304 145.907 233.427 145.274C231.027 143.749 228.764 142.017 226.665 140.097C225.451 138.858 223.547 136.332 221.522 136.824C220.472 137.16 219.595 137.892 219.078 138.866C218.513 139.797 218.139 140.832 217.591 141.774C216.657 143.377 214.898 144.335 213.528 145.567C211.914 146.973 210.468 148.561 209.219 150.3C207.435 152.782 206.427 155.737 206.324 158.791C206.346 161.701 207.179 164.54 207.215 167.453C207.237 169.568 206.718 171.771 207.427 173.768C207.781 171.293 208.602 168.389 208.493 165.899C208.277 164.549 208.168 163.184 208.164 161.816Z" fill="#1AAFA2"/>
<path d="M245.432 140.15C246.057 142.654 244.834 145.954 243.184 147.803C243.282 147.882 243.394 147.94 243.515 147.974C243.635 148.009 243.761 148.019 243.886 148.003C244.014 147.958 244.132 147.884 244.229 147.788C245.261 146.807 246.359 145.898 247.516 145.067C248.926 144.26 250.38 143.53 251.869 142.881C251.987 142.823 252.119 142.747 252.144 142.618C252.184 142.417 251.947 142.284 251.75 142.221C250.539 142.018 249.304 142.003 248.088 142.177C248.572 141.4 248.774 140.479 248.658 139.57C248.543 138.662 248.119 137.821 247.456 137.188C246.795 136.54 246.023 136.015 245.177 135.638C244.327 135.183 243.395 134.905 242.435 134.82C242.245 134.848 242.065 134.925 241.913 135.041C241.761 135.158 241.641 135.312 241.564 135.488C241.491 135.667 241.459 135.86 241.469 136.052C241.48 136.245 241.535 136.433 241.628 136.602C241.687 136.72 241.774 136.823 241.881 136.901C242.018 136.982 242.169 137.038 242.326 137.068C243.081 137.237 243.773 137.616 244.323 138.161C244.872 138.707 245.257 139.396 245.432 140.15Z" fill="#93DBD2"/>
<path d="M230.884 201.92C239.195 197.321 247.987 193.651 257.101 190.979C257.528 190.854 258.103 190.79 258.311 191.186C258.393 191.41 258.387 191.657 258.292 191.876C257.651 193.97 256.165 196.146 257.056 198.147C257.62 199.179 258.545 199.966 259.654 200.357C261.54 201.173 263.601 201.481 265.554 202.107C269.598 203.398 273.073 206.003 276.465 208.553C270.362 210.882 263.725 211.321 257.204 211.718C247.407 212.316 237.405 212.857 227.93 210.293C227.069 210.081 226.23 209.782 225.428 209.402C222.75 208.059 223.889 206.852 225.747 205.283C227.345 203.996 229.066 202.869 230.884 201.92Z" fill="#05306D"/>
<path d="M288.724 222.515C290.115 225.247 290.137 228.443 290.77 231.442C291.855 235.664 293.651 239.67 296.083 243.288C297.142 243.288 296.125 245.354 295.901 245.609C295.186 246.423 294.082 247.168 293.28 247.947C293.076 248.173 292.83 248.357 292.556 248.488C291.759 248.804 290.92 248.18 290.308 247.577C288.099 245.398 286.19 242.934 284.63 240.251C284.372 239.869 284.205 239.433 284.14 238.977C284.138 238.613 284.198 238.252 284.319 237.909C285.47 233.912 286.903 230.005 287.907 225.99C288.069 225.351 289.005 223.065 288.724 222.515Z" fill="#042759"/>
<path d="M203.918 246.388C204.005 246.378 204.09 246.358 204.172 246.328L213.812 244.05L232.453 239.644L253.287 234.72L269.508 230.886C270.922 230.552 272.359 230.266 273.761 229.884C276.35 228.979 278.834 227.798 281.171 226.362C283.876 224.948 286.441 223.283 288.832 221.386L288.053 229.809C288.151 234.252 286.602 238.574 283.705 241.944C282.126 244.191 280.348 246.291 278.393 248.22C270.237 255.858 259.39 259.929 248.667 262.435C217.426 269.737 184.797 265.329 152.698 265.232C120.665 265.137 88.7664 269.373 57.8688 277.827C47.9602 280.539 11.0988 281.094 0.822754 281.094V270.81L16.3126 265.67L144.81 246.395L203.918 246.388Z" fill="#E18B96"/>
<path d="M286.332 207.197H36.4238L0.821655 270.808C11.0977 270.808 47.9635 270.252 57.8677 267.539C88.7655 259.087 120.664 254.851 152.697 254.945C184.799 255.046 217.428 259.451 248.666 252.148C260.553 249.364 272.478 244.62 280.649 235.64C288.82 226.66 292.385 217.69 286.332 207.197Z" fill="#F9E5E9"/>
<path d="M36.3158 243.721C36.2101 243.771 36.1054 243.824 36.003 243.88C35.2075 244.288 34.5686 244.947 34.1849 245.755C34.0316 246.063 33.9858 246.413 34.0547 246.75C34.2261 247.376 34.932 247.673 35.5621 247.829C38.5681 248.574 41.7278 248.079 44.8173 247.817C48.3565 247.516 51.9916 247.511 55.326 246.286C55.8239 246.122 56.2923 245.88 56.7132 245.568C56.8381 245.484 56.9438 245.374 57.0234 245.246C57.103 245.119 57.1547 244.975 57.1753 244.826C57.1931 244.374 56.7566 244.047 56.3558 243.837C55.0578 243.158 53.6226 242.784 52.1586 242.742C51.6754 242.728 51.1566 242.84 50.6834 242.779C49.7393 242.659 48.8264 242.507 47.8611 242.474C46.7177 242.435 45.5721 242.447 44.4287 242.503C42.4457 242.519 40.4674 242.697 38.5136 243.036C37.757 243.179 37.0195 243.408 36.3158 243.721Z" fill="#EFC2C8"/>
<path d="M43.2631 225.144C44.3764 223.649 47.9959 222.956 49.5245 222.749C51.9123 222.486 54.3252 222.561 56.6921 222.972C58.5992 223.256 60.611 223.826 60.5487 226.002C60.4752 228.528 60.5487 231.067 60.5487 233.594V239.577C60.5487 240.254 60.5409 240.932 60.5487 241.61C60.5743 242.133 60.4558 242.652 60.206 243.112C59.9562 243.572 59.5849 243.954 59.1325 244.217C57.6699 245.308 55.9921 246.076 54.2103 246.47C52.4286 246.863 50.5835 246.873 48.7975 246.5C47.4836 246.299 46.225 245.83 45.1001 245.123C44.5447 244.798 44.0653 244.359 43.6939 243.834C43.3225 243.309 43.0678 242.71 42.9469 242.079C42.899 241.331 43.076 240.434 43.076 239.656V229.413C43.076 228.424 42.663 226.343 43.076 225.463C43.1273 225.351 43.19 225.244 43.2631 225.144Z" fill="white"/>
<path d="M49.5745 228.359C51.8126 228.346 54.0463 228.156 56.2545 227.79C56.4293 227.77 56.6809 227.82 56.6653 227.996C54.5526 228.782 52.3694 229.363 50.1456 229.731C48.6159 229.985 46.9091 230.223 45.9339 231.427C44.8495 232.763 45.1345 234.723 45.6065 236.38C45.8165 237.189 46.1152 237.973 46.4972 238.718C47.0472 239.645 47.7037 240.504 48.4533 241.278C48.6292 241.474 48.8059 241.669 48.9833 241.863C49.7749 242.766 50.6522 243.59 51.603 244.324C52.0734 244.675 52.5776 244.978 53.1082 245.228C53.3697 245.361 53.6439 245.467 53.9265 245.545C54.2487 245.614 54.5401 245.785 54.7581 246.032C54.9808 246.375 54.4943 246.453 54.2627 246.508C53.5052 246.683 52.7269 246.753 51.9503 246.714C50.9105 246.662 49.8673 246.74 48.8241 246.673C47.4715 246.605 46.1364 246.337 44.8617 245.88C44.4797 245.755 44.1247 245.559 43.8152 245.303C42.9468 244.511 42.9323 243.05 42.8132 241.969C42.7672 241.557 42.7301 241.144 42.7019 240.732C42.6384 239.907 42.6005 239.078 42.5838 238.251C42.5248 235.401 42.7041 232.554 42.8833 229.712C42.9568 228.556 42.6718 227.46 42.8466 226.302C42.9085 225.728 43.1196 225.18 43.4589 224.713C43.7384 224.362 44.4075 223.8 44.8862 223.997C44.5066 224.186 44.1837 225.168 44.1314 225.591C44.0356 226.4 44.3062 226.695 44.9942 227.07C46.399 227.852 47.9678 228.294 49.5745 228.359Z" fill="#F1F2F8"/>
<path d="M238.8 239.042C237.961 239.3 237.151 239.645 236.383 240.07C235.619 240.499 234.811 241.263 235.06 242.101C235.246 242.728 235.936 243.038 236.56 243.232C240.845 244.56 245.461 244.02 249.899 243.366C252.135 243.134 254.327 242.59 256.412 241.75C257.047 241.462 257.748 240.988 257.748 240.29C257.731 239.982 257.62 239.688 257.429 239.446C257.196 239.117 256.882 238.854 256.519 238.679C256.155 238.505 255.753 238.427 255.351 238.45C254.323 238.442 253.274 238.286 252.219 238.185C249.884 237.985 247.537 237.952 245.197 238.089C243.033 238.135 240.884 238.455 238.8 239.042Z" fill="#EFC2C8"/>
<path d="M261.229 226.996C261.488 227.251 261.684 227.562 261.801 227.906C262.05 228.548 262.166 229.234 262.141 229.922C262.117 230.61 261.953 231.286 261.66 231.909C261.367 232.532 260.95 233.089 260.435 233.546C259.92 234.003 259.317 234.351 258.664 234.568L258.625 235.542C258.625 235.638 258.625 235.749 258.703 235.804C258.761 235.836 258.828 235.847 258.893 235.834C259.648 235.759 260.375 235.507 261.014 235.099C261.654 234.691 262.189 234.139 262.575 233.486C262.929 232.831 263.187 232.129 263.342 231.401C263.717 230.19 263.761 228.902 263.47 227.669C263.176 226.77 262.595 225.992 261.818 225.454C261.041 224.915 260.109 224.645 259.164 224.684C258.895 224.677 258.634 224.774 258.436 224.954C258.332 225.134 258.276 225.337 258.273 225.544C258.269 225.751 258.318 225.956 258.415 226.139C258.726 226.872 258.415 226.489 259.097 226.64C259.872 226.813 260.51 226.348 261.229 226.996Z" fill="white"/>
<path d="M259.842 239.812C258.729 241.306 255.109 241.999 253.58 242.206C251.192 242.471 248.78 242.398 246.413 241.989C244.505 241.705 242.493 241.135 242.556 238.957C242.629 236.432 242.556 233.892 242.556 231.366V225.382C242.556 224.705 242.564 224.027 242.556 223.35C242.531 222.828 242.649 222.308 242.899 221.848C243.149 221.388 243.52 221.006 243.973 220.743C245.435 219.652 247.113 218.884 248.894 218.491C250.676 218.097 252.521 218.087 254.307 218.461C255.621 218.66 256.88 219.128 258.005 219.837C258.56 220.161 259.04 220.6 259.411 221.125C259.782 221.65 260.037 222.249 260.157 222.88C260.206 223.63 260.029 224.525 260.029 225.303V235.546C260.029 236.535 260.441 238.616 260.029 239.496C259.978 239.607 259.915 239.713 259.842 239.812Z" fill="white"/>
<path d="M249.069 223.992C251.308 223.977 253.541 223.787 255.749 223.421C255.924 223.403 256.176 223.452 256.16 223.627C254.047 224.413 251.864 224.994 249.64 225.363C248.111 225.617 246.404 225.855 245.429 227.06C244.344 228.396 244.629 230.355 245.101 232.011C245.311 232.821 245.61 233.605 245.992 234.349C246.542 235.274 247.199 236.132 247.949 236.904C248.124 237.1 248.301 237.295 248.478 237.49C249.27 238.392 250.147 239.216 251.098 239.95C251.568 240.301 252.072 240.604 252.603 240.854C252.864 240.987 253.139 241.093 253.421 241.17C253.744 241.24 254.035 241.411 254.253 241.659C254.481 242.001 253.989 242.079 253.758 242.133C253 242.31 252.222 242.38 251.445 242.34C250.405 242.289 249.362 242.366 248.319 242.299C246.966 242.232 245.631 241.964 244.357 241.505C243.974 241.382 243.619 241.186 243.31 240.929C242.442 240.138 242.428 238.676 242.308 237.595C242.264 237.183 242.226 236.771 242.197 236.358C242.133 235.532 242.095 234.705 242.079 233.877C242.02 231.028 242.199 228.18 242.378 225.339L242.5 223.413C242.507 222.981 242.576 222.552 242.706 222.14C242.772 221.934 242.881 221.745 243.027 221.586C243.173 221.426 243.351 221.3 243.549 221.215C243.486 221.366 243.467 221.531 243.495 221.693C243.522 221.854 243.595 222.004 243.704 222.126C243.927 222.365 244.194 222.559 244.49 222.697C245.894 223.481 247.463 223.924 249.069 223.992Z" fill="#F1F2F8"/>
<path d="M306.296 243.355C306.343 242.92 305.994 242.55 305.836 242.142C305.512 241.299 305.269 240.427 304.931 239.581C304.58 238.714 304.152 237.739 303.086 237.662C302.319 237.676 301.572 237.904 300.927 238.319C298.853 239.416 296.842 240.629 294.903 241.951C293.378 242.948 291.958 244.098 290.665 245.382C290.05 245.921 289.643 246.659 289.515 247.467C289.388 248.275 289.548 249.103 289.967 249.805C290.38 250.712 290.924 251.554 291.582 252.302C292.034 252.77 292.753 253.527 293.46 253.437C293.808 253.36 294.124 253.179 294.365 252.918C295.153 252.198 295.813 251.354 296.549 250.58C299.108 248.113 302.031 246.054 305.216 244.475C305.614 244.3 305.954 244.016 306.198 243.656C306.25 243.563 306.283 243.461 306.296 243.355Z" fill="#6D9FEB"/>
<path d="M171.75 232.519C170.319 234.75 168.754 236.891 167.061 238.93C166.869 239.195 166.62 239.414 166.332 239.57C166.045 239.727 165.726 239.818 165.399 239.837C165.232 239.82 165.065 239.673 165.094 239.503C165.123 239.332 165.564 239.1 165.7 238.968C165.991 238.633 166.26 238.278 166.505 237.907C167.049 237.2 167.602 236.499 168.163 235.805C169.314 234.373 170.488 232.963 171.655 231.544C171.816 231.347 172.644 230.591 172.783 231.21C172.833 231.433 171.883 232.328 171.75 232.519Z" fill="#FFB192"/>
<path d="M298.952 248.337C297.671 250.081 296.125 251.614 294.37 252.879C293.992 253.161 293.543 253.331 293.074 253.37C292.2 253.379 291.535 252.621 291.016 251.923C289.95 250.481 288.901 248.773 289.247 247.014C289.655 245.672 290.484 244.497 291.611 243.663C292.513 242.789 293.542 242.057 294.664 241.492C295.402 241.158 295.312 242.389 295.453 242.861C295.666 243.572 295.945 244.26 296.286 244.919C296.448 245.227 298.779 248.549 298.952 248.337Z" fill="#042759"/>
<path d="M221.748 78.4989C219.911 78.6783 218.143 79.2907 216.589 80.2858C213.393 82.2342 210.478 84.9618 209.282 88.5067C208.086 92.0515 209.041 96.4871 212.177 98.5267C213.067 99.1023 214.076 99.4674 214.974 100.029C218.051 101.957 217.855 106.393 222.376 105.609C223.883 105.222 225.358 104.718 226.787 104.101C227.91 103.714 229.104 103.577 230.286 103.698C230.864 103.748 231.786 104.406 232.335 103.868C232.494 103.675 232.577 103.429 232.565 103.178C232.539 101.443 231.835 99.7868 230.604 98.5634C229.38 97.3604 228.082 96.2362 226.716 95.1978C225.9 94.5782 225.236 93.7804 224.774 92.8654C224.551 92.4044 224.46 91.8906 224.511 91.3811C224.562 90.8715 224.753 90.386 225.064 89.9785C225.494 89.5686 225.992 89.2361 226.535 88.9954C227.481 88.5464 228.306 87.8797 228.943 87.05C229.581 86.2203 230.012 85.2514 230.203 84.2226C230.37 82.6639 230.158 79.5755 228.696 78.6871C226.882 77.5849 224.487 78.3531 222.536 78.4455C222.27 78.4533 222.005 78.4733 221.748 78.4989Z" fill="#111236"/>
<path d="M154.809 103.553C154.878 103.098 155.065 102.669 155.351 102.309C156.371 100.842 157.733 99.6442 159.318 98.8196C159.574 98.686 159.901 98.568 160.132 98.7405C160.201 98.7982 160.259 98.8684 160.302 98.9476C160.44 99.1735 160.549 99.4164 160.625 99.6702C160.663 99.7726 160.675 99.8826 160.661 99.9908C160.614 100.226 160.369 100.356 160.157 100.468C158.645 101.458 157.368 102.766 156.417 104.303C156.257 104.514 156.035 104.748 155.776 104.691C155.631 104.641 155.507 104.543 155.426 104.412C155.195 104.111 154.996 103.788 154.831 103.447" fill="#FF9400"/>
<path d="M173.767 100.38C173.84 100.349 173.906 100.303 173.961 100.244C174.159 100.039 174.334 99.8115 174.483 99.5675C174.55 99.481 174.602 99.3835 174.636 99.2792C174.731 98.924 174.427 98.5945 174.13 98.3785C172.99 97.5552 171.587 97.1821 170.189 97.3308C169.912 97.3439 169.644 97.4274 169.409 97.5735C169.206 97.7798 169.051 98.0298 168.958 98.3044C168.865 98.5791 168.836 98.8713 168.873 99.1589C169.968 99.1293 171.061 99.2775 172.109 99.5976C172.572 99.7549 173.015 99.9633 173.432 100.219C173.622 100.333 173.68 100.403 173.767 100.38Z" fill="#FF9400"/>
<path d="M159.986 109.278C160.054 109.428 160.156 109.561 160.284 109.665C160.413 109.769 160.563 109.842 160.724 109.878C160.877 109.893 161.031 109.869 161.171 109.808C161.312 109.746 161.434 109.649 161.526 109.526C161.679 109.296 161.757 109.024 161.748 108.747C161.763 108.164 161.38 106.046 160.231 106.358C159.144 106.657 159.663 108.696 159.986 109.278Z" fill="#444560"/>
<path d="M171.303 106.506C171.325 106.809 171.407 107.105 171.545 107.376C171.682 107.648 171.872 107.889 172.103 108.086C172.178 108.158 172.267 108.212 172.366 108.244C172.464 108.276 172.568 108.286 172.67 108.272C172.74 108.247 172.804 108.209 172.859 108.16C172.914 108.111 172.959 108.051 172.991 107.985C173.195 107.581 173.313 107.139 173.337 106.687C173.362 106.235 173.292 105.783 173.133 105.359C173.097 105.185 173.028 105.02 172.928 104.873C172.828 104.727 172.701 104.601 172.552 104.503C171.301 103.822 171.252 105.983 171.303 106.506Z" fill="#444560"/>
<path d="M76.8345 119.732C77.3912 119.271 77.9612 118.833 78.5524 118.414C79.2474 117.87 80.0476 117.476 80.9026 117.256C81.3056 117.174 81.4693 117.076 81.3758 116.622C81.3493 116.439 81.2673 116.269 81.1409 116.134C81.0144 115.999 80.8496 115.907 80.6688 115.869C80.445 115.85 80.2197 115.879 80.0086 115.956C78.2958 116.468 76.7592 117.447 75.5709 118.783C75.5142 118.838 75.4702 118.906 75.4417 118.98C75.417 119.119 75.4431 119.262 75.5152 119.383L75.7601 119.927C75.8028 120.056 75.8855 120.169 75.9962 120.248C76.2544 120.393 76.6642 119.874 76.8345 119.732Z" fill="#5A489B"/>
<path d="M89.8138 116.652C90.2248 116.735 90.6463 116.753 91.0629 116.705C91.8668 116.73 92.6676 116.818 93.4577 116.968C93.8631 117.022 94.2533 117.159 94.6044 117.369C95.1132 117.712 95.1845 117.046 95.3548 116.654C95.4051 116.572 95.4368 116.481 95.4476 116.385C95.4584 116.29 95.448 116.194 95.4172 116.103C95.3464 115.995 95.2441 115.912 95.1244 115.865C93.6275 115.036 91.8866 114.76 90.2068 115.085C90.0256 115.128 89.8598 115.22 89.728 115.351C89.5879 115.552 89.5135 115.791 89.5154 116.036C89.4841 116.157 89.497 116.286 89.5516 116.399C89.6062 116.511 89.6991 116.601 89.8138 116.652Z" fill="#5A489B"/>
<path d="M79.2359 124.175C79.4064 124.022 79.5848 123.879 79.7703 123.746C80.5531 123.323 81.4474 123.152 82.331 123.256L82.4958 122.775C82.3607 122.648 82.1961 122.557 82.0168 122.51C81.8376 122.462 81.6494 122.461 81.4693 122.505C80.7865 122.576 80.1176 122.746 79.4831 123.008C79.124 123.113 78.8155 123.346 78.6147 123.661C78.5156 123.884 78.5123 124.402 78.8596 124.417C79.0009 124.364 79.1292 124.281 79.2359 124.175Z" fill="#444560"/>
<path d="M94.1724 122.99C94.2175 122.995 94.2631 122.989 94.3053 122.972C94.3475 122.956 94.3848 122.929 94.414 122.894C94.4893 122.788 94.5236 122.659 94.5107 122.53C94.4978 122.401 94.4385 122.28 94.3439 122.192C94.1482 122.019 93.9086 121.903 93.6514 121.858C92.8293 121.61 91.9555 121.59 91.123 121.8C90.9215 121.861 90.6866 122.01 90.7289 122.217C90.7567 122.353 90.8046 122.498 90.8291 122.626C91.3566 122.447 91.916 122.381 92.4706 122.433C93.0253 122.485 93.5627 122.653 94.0477 122.927C94.0855 122.955 94.1276 122.976 94.1724 122.99Z" fill="#444560"/>
<path d="M247.507 118.375C247.585 118.685 247.539 119.012 247.379 119.288C247.221 119.562 247.108 119.859 247.045 120.169C246.895 120.112 246.742 120.064 246.586 120.027C246.204 119.986 245.903 120.345 245.737 120.69C245.622 121.057 245.404 121.384 245.109 121.631C244.95 121.334 244.898 120.992 244.96 120.661C245.023 120.331 245.197 120.032 245.453 119.814C245.624 119.7 245.789 119.577 245.948 119.445C246.11 119.281 246.208 119.064 246.224 118.833C246.263 118.226 247.169 117.428 247.507 118.375Z" fill="#9E6452"/>
<path d="M169.291 118.65C169.587 119.079 166.932 120.675 166.55 120.802C165.58 121.091 164.539 121.023 163.615 120.61C162.947 120.326 161.569 119.614 161.343 118.884C162.067 118.946 162.781 119.091 163.471 119.318C164.163 119.408 164.863 119.436 165.56 119.401C166.176 119.41 166.79 119.351 167.392 119.225C167.735 119.135 168.951 118.504 169.241 118.613C169.261 118.62 169.279 118.633 169.291 118.65Z" fill="#D1435B"/>
<path d="M78.1983 134.379C79.1759 135.077 80.2815 135.575 81.4518 135.845C82.6222 136.115 83.8343 136.151 85.0186 135.951C84.4513 136.457 83.7809 136.834 83.0537 137.055C82.3265 137.277 81.5599 137.338 80.8069 137.234C80.056 137.111 79.3619 136.757 78.8204 136.223C78.2789 135.688 77.9169 134.998 77.7842 134.249" fill="white"/>
<path d="M64.2204 155.996C58.7623 158.892 54.0018 162.944 50.2715 167.87C47.5466 171.998 45.2363 176.386 43.3744 180.969C40.39 187.308 37.8126 193.831 35.6579 200.498C35.0376 202.037 34.9145 203.732 35.3061 205.344C35.9206 207.097 37.614 208.219 39.2706 209.06C46.7734 212.866 55.7001 214.149 64.0334 213.908C64.58 213.891 65.7925 214.109 65.8782 213.351C65.793 212.82 65.6274 212.305 65.3872 211.824L64.9419 210.43C64.3347 208.53 63.7283 206.63 63.1227 204.73C62.7063 203.425 62.8087 202.354 61.5351 201.621C60.0376 200.763 58.0604 200.508 56.4316 199.925C55.884 199.767 55.3766 199.494 54.9441 199.123C53.5491 197.751 54.6435 195.194 54.7927 193.542C55.0777 190.395 55.1011 187.256 55.5375 184.114C55.9628 181.049 56.6253 177.88 58.5435 175.452" fill="#92B7F0"/>
<path d="M57.3756 197.419C57.8619 197.762 58.4327 197.967 59.0267 198.011C61.053 198.319 63.4077 199.278 65.4651 199.006C67.6753 198.547 69.7189 197.494 71.3769 195.962C71.87 195.582 72.2822 195.107 72.5896 194.566C72.897 194.024 73.0933 193.427 73.1672 192.808C73.071 191.594 72.5967 190.44 71.8111 189.509L63.273 177.005C63.0737 176.712 62.8276 176.391 62.4758 176.358C61.8412 176.296 61.5618 177.128 61.5039 177.762C61.1443 181.658 61.2812 185.872 60.2592 189.658C59.6195 191.404 58.7267 193.048 57.6094 194.535C57.1251 195.309 56.633 196.291 57.0928 197.078C57.1678 197.206 57.2634 197.321 57.3756 197.419Z" fill="#2A69C5"/>
<path d="M59.0223 210.968C55.1805 210.101 51.5128 208.592 48.174 206.503C46.0252 205.161 41.8914 202.736 40.826 200.325C39.8373 198.089 41.2479 194.899 41.9003 192.466C44.9364 181.143 49.4966 169.148 58.9076 161.57C60.955 159.923 63.3721 158.392 64.2115 155.9C64.0033 156.517 60.1534 158.015 59.4375 158.488C57.8065 159.56 54.4031 160.926 52.9902 162.273C50.1312 164.996 48.8163 168.333 46.6966 171.625C45.4051 173.629 45.2492 175.533 44.2183 177.68C43.3656 179.587 42.6549 181.554 42.0918 183.565C41.3125 186.025 39.9019 188.371 38.989 190.802C38.2786 192.695 37.8756 194.818 37.0451 196.649C36.2222 198.145 35.5915 199.738 35.168 201.392C34.9523 202.299 34.91 203.239 35.0433 204.162C35.2902 205.26 35.8335 206.269 36.6142 207.08C38.6071 209.286 41.4973 210.433 44.3363 211.311C49.6754 212.96 55.2049 213.915 60.788 214.15C62.4413 214.219 65.3594 214.984 66.466 213.254C67.9134 210.985 64.1481 211.742 62.6696 211.584C61.4434 211.446 60.2257 211.24 59.0223 210.968Z" fill="#578DDE"/>
<path d="M131.521 223.169L72.1228 224.819V206.669H148.022L131.521 223.169Z" fill="#111236"/>
<path d="M126.572 218.219L77.0728 216.569V209.969H138.121L126.572 218.219Z" fill="#68697F"/>
<path d="M131.521 223.169H68.8218L56.937 184.536C56.785 184.043 56.751 183.521 56.8377 183.012C56.9244 182.503 57.1293 182.021 57.436 181.606C57.7427 181.19 58.1426 180.853 58.6036 180.62C59.0645 180.388 59.5736 180.267 60.0899 180.267H115.885C116.59 180.267 117.277 180.493 117.845 180.912C118.413 181.331 118.831 181.921 119.039 182.596L131.521 223.169Z" fill="#111236"/>
<path d="M236.472 170.626C236.277 170.56 236.068 170.542 235.864 170.571C235.688 170.647 235.541 170.776 235.443 170.94C234.196 172.647 233.32 174.598 232.874 176.665C232.603 177.666 232.6 178.72 232.864 179.723C233.174 180.542 233.651 181.287 234.265 181.911C234.546 182.329 234.928 182.67 235.376 182.901C235.824 183.132 236.322 183.247 236.826 183.233C237.202 183.135 237.557 182.967 237.872 182.739L241.507 180.429C241.781 180.321 242.007 180.119 242.146 179.86C242.285 179.6 242.328 179.3 242.266 179.012C242.16 176.899 242.038 174.786 241.9 172.673C241.833 171.666 241.76 169.569 240.473 169.302C239.019 169.004 237.966 170.897 236.472 170.626Z" fill="#B5745B"/>
<path d="M232.05 178.913C229.928 183.122 227.221 187.009 224.009 190.459C222.316 192.528 220.08 194.085 217.552 194.955C214.991 195.645 211.841 194.811 210.617 192.452C211.118 196.633 212.838 200.575 215.562 203.786C215.863 204.203 216.276 204.526 216.753 204.717C217.689 205.002 218.615 204.307 219.348 203.658C223.771 199.737 228.236 195.776 231.817 191.047C232.794 189.955 233.625 188.74 234.29 187.434C234.879 186.055 235.701 184.788 236.719 183.688C237.309 183.027 236.107 182.908 235.637 182.678C235.235 182.391 234.87 182.057 234.55 181.681C234.148 181.323 233.734 180.979 233.334 180.619C233.047 180.36 231.796 179.426 232.05 178.913Z" fill="#1AAFA2"/>
<path d="M212.718 187.747C211.298 189.856 210.48 192.151 211.779 193.693C212.451 194.401 213.203 195.028 214.02 195.561C214.429 195.959 214.916 196.268 215.451 196.469C215.985 196.669 216.555 196.757 217.124 196.726C218.012 196.549 218.848 196.17 219.566 195.619C221.033 194.642 222.463 193.612 223.855 192.529C225.901 190.962 227.815 189.228 229.575 187.345C230.482 186.356 231.299 185.288 232.016 184.153C232.339 183.626 232.689 183.116 233.066 182.626C233.339 182.282 234.104 181.775 234.133 181.321C234.132 181.175 234.099 181.032 234.037 180.9C233.617 179.796 233.289 178.66 233.055 177.502C232.951 176.839 232.972 176.163 233.117 175.508C232.979 175.339 232.711 175.413 232.512 175.508C231.579 175.986 230.674 176.519 229.804 177.103C226.39 179.18 223.666 181.742 219.487 182.218C219.013 182.244 218.544 182.329 218.09 182.469C217.7 182.631 217.336 182.851 217.011 183.121C215.364 184.448 213.918 186.006 212.718 187.747Z" fill="#87D7CD"/>
<path d="M241.356 177.007C241.36 177.517 241.28 178.024 241.119 178.509C240.885 179.02 240.565 179.488 240.173 179.891L237.827 182.597C237.667 182.821 237.444 182.994 237.187 183.092C236.982 183.133 236.77 183.118 236.573 183.048C236.049 182.878 235.563 182.606 235.143 182.248C234.724 181.889 234.381 181.451 234.132 180.959C233.639 179.969 233.406 178.871 233.454 177.766C233.448 177.664 233.466 177.562 233.506 177.468C233.651 177.187 234.053 177.229 234.369 177.236C235.611 177.262 236.584 176.116 237.807 175.9C238.135 175.886 238.457 175.807 238.754 175.67C238.997 175.473 239.185 175.216 239.298 174.925C239.719 174.094 240.247 173.322 240.869 172.629C241.556 171.862 241.376 173.749 241.384 174.093C241.406 175.063 241.397 176.034 241.356 177.007Z" fill="#8C4D38"/>
<path d="M233.861 161.108L232.938 161.754C232.814 161.841 232.784 162.011 232.87 162.135L242.128 175.376C242.215 175.5 242.386 175.531 242.51 175.444L243.433 174.798C243.557 174.712 243.587 174.541 243.501 174.417L234.243 161.176C234.156 161.052 233.985 161.022 233.861 161.108Z" fill="#5A489B"/>
<path d="M267.79 181.709L240.394 189.135C240.048 189.218 239.686 189.212 239.342 189.117C238.998 189.022 238.684 188.842 238.429 188.594C238.173 188.345 237.985 188.036 237.881 187.695C237.777 187.354 237.76 186.993 237.834 186.644L242.51 161.125C242.577 160.73 242.756 160.362 243.024 160.064C243.292 159.766 243.639 159.55 244.025 159.441L271.421 152.015C271.767 151.932 272.129 151.938 272.473 152.033C272.817 152.128 273.131 152.308 273.386 152.556C273.642 152.805 273.83 153.114 273.934 153.455C274.038 153.796 274.054 154.157 273.981 154.506L269.305 180.025C269.237 180.42 269.059 180.788 268.791 181.086C268.523 181.384 268.176 181.6 267.79 181.709Z" fill="#111236"/>
<path d="M272.41 167.658C272.456 167.681 272.502 167.706 272.548 167.734C273.156 168.073 273.607 168.636 273.805 169.302C273.936 169.861 273.957 170.44 273.868 171.007C273.693 172.522 273.286 174 272.66 175.39C272.202 176.417 272.267 177.67 271.219 178.358C271.05 178.47 270.867 178.559 270.696 178.666C270.265 178.931 269.901 179.3 269.449 179.527C269.185 179.66 268.89 179.718 268.596 179.695C268.302 179.672 268.019 179.569 267.779 179.398C267.396 179.064 267.494 178.413 267.577 177.969C267.676 177.446 268.155 177.412 268.586 177.174C269.46 176.614 270.212 175.884 270.798 175.028C271.507 174.192 272.043 173.223 272.375 172.178C272.578 171.439 272.543 170.655 272.273 169.937C272.051 169.38 271.345 169.046 271.312 168.41C271.263 167.42 271.653 167.265 272.41 167.658Z" fill="#73CEC6"/>
<path d="M273.931 170.779C273.931 170.651 273.918 170.523 273.908 170.396L273.759 170.365C273.436 171.353 272.933 172.274 272.276 173.08C272.164 173.191 272.037 173.293 271.935 173.414C271.825 173.553 271.727 173.702 271.643 173.859C271.201 174.677 270.607 175.402 269.892 175.997C269.554 176.259 269.183 176.475 268.788 176.639C268.362 176.772 267.974 177.006 267.658 177.321C267.18 177.9 267.473 178.731 267.687 179.357C267.7 179.407 267.724 179.454 267.758 179.494C267.799 179.528 267.848 179.552 267.9 179.563C268.186 179.668 268.491 179.71 268.794 179.687C269.098 179.664 269.393 179.576 269.659 179.429C270.249 179.052 271.636 178.965 272.157 178.497C272.669 177.98 273.105 177.391 273.45 176.749C273.989 175.761 274.351 174.686 274.521 173.573C274.668 172.633 273.972 171.741 273.931 170.779Z" fill="#1AAFA2"/>
<path d="M90.5051 128.551C90.5051 128.551 89.4174 123.986 89.0221 123.672C88.6269 123.358 89.0288 129.764 88.4744 131.211L90.5051 128.551Z" fill="#FFDBBD"/>
<path d="M93.372 135.775C93.372 135.775 91.496 141.565 90.4851 142.843C89.4742 144.121 86.3992 145.039 85.2123 145.084C83.1447 144.751 81.1062 144.257 79.1157 143.607C79.1157 143.607 85.5341 143.76 88.5523 142.238C91.5706 140.716 93.372 135.775 93.372 135.775Z" fill="#F2B06D"/>
<path d="M85.2992 129.585C86.17 130.061 87.1048 130.41 88.0747 130.62C89.1012 130.72 90.5051 128.551 90.5051 128.551C90.5051 128.551 89.8138 131.668 88.4677 132.066C87.1217 132.463 85.5374 130.669 85.2992 129.585Z" fill="#D8854C"/>
<path d="M59.4977 161.105C59.4977 161.105 63.8063 159.212 65.0388 159.212C66.2712 159.212 72.7508 160.47 73.6771 160.397C74.6034 160.323 76.6475 159.895 76.6475 159.895L64.422 155.949L58.8765 158.859" fill="#578DDE"/>
<path d="M272.502 169.908C272.451 169.679 272.342 169.467 272.186 169.292C272.03 169.116 271.832 168.984 271.611 168.906C271.323 168.648 271.026 168.399 270.808 168.177C270.236 167.59 269.686 166.952 269.074 166.408C268.628 165.908 268.059 165.535 267.424 165.326C267.183 165.287 266.94 165.276 266.697 165.292C265.664 165.325 264.631 165.376 263.598 165.447C263.452 165.441 263.309 165.485 263.191 165.57C262.544 166.168 264.281 167.053 264.667 167.152C265.183 167.285 265.72 167.308 266.245 167.401C266.777 167.466 267.277 167.689 267.681 168.041C267.728 168.08 267.761 168.132 267.777 168.191C267.78 168.236 267.77 168.28 267.749 168.32C267.728 168.359 267.696 168.392 267.658 168.414C267.384 168.609 266.99 168.487 266.682 168.465C266.211 168.437 265.742 168.38 265.277 168.295C264.882 168.216 264.498 168.102 264.095 168.039C263.732 167.989 263.366 167.96 262.999 167.952C262.443 167.93 261.893 167.92 261.338 167.92C260.523 167.85 259.703 167.858 258.889 167.944C258.332 168.008 256.524 168.032 256.637 168.932C256.653 169.018 256.688 169.099 256.739 169.17C256.791 169.24 256.858 169.299 256.935 169.34C257.09 169.422 257.257 169.478 257.429 169.507C258.988 169.81 260.563 170.026 262.145 170.154C262.415 170.155 262.678 170.239 262.899 170.395C262.948 170.433 262.984 170.485 263.005 170.544C263.018 170.612 263.008 170.683 262.976 170.745C262.944 170.806 262.893 170.856 262.83 170.886C262.702 170.942 262.563 170.967 262.424 170.961C261.554 170.969 260.685 170.928 259.82 170.84C258.521 170.708 257.215 170.67 255.911 170.729C255.532 170.718 255.159 170.831 254.85 171.05C254.293 171.532 254.757 172.275 255.316 172.54C255.707 172.697 256.125 172.779 256.546 172.78L262.08 173.151C262.232 173.149 262.383 173.188 262.516 173.262C262.581 173.302 262.628 173.364 262.648 173.437C262.669 173.51 262.662 173.588 262.628 173.655C262.462 173.9 261.976 173.786 261.737 173.786C261.257 173.786 260.777 173.81 260.298 173.822L258.057 173.88C257.423 173.783 256.774 173.867 256.186 174.124C256.025 174.229 255.909 174.389 255.859 174.573C255.809 174.758 255.828 174.955 255.914 175.126C256.066 175.319 256.282 175.452 256.522 175.502C258.192 176.007 260.019 175.511 261.741 175.818C262.019 175.847 262.282 175.957 262.498 176.134C262.57 176.187 262.626 176.258 262.661 176.34C262.696 176.421 262.708 176.511 262.697 176.6C262.686 176.688 262.651 176.772 262.597 176.842C262.542 176.912 262.47 176.967 262.387 177C261.634 177.452 260.844 177.841 260.026 178.161C259.564 178.299 259.134 178.53 258.764 178.839C257.594 179.998 260.1 179.715 260.479 179.636C261.787 179.172 263.126 178.8 264.487 178.523C266.053 178.425 268.025 179.26 269.177 177.823C270.172 176.648 271.039 175.371 271.765 174.014C272.305 172.935 273.101 171.119 272.502 169.908Z" fill="#B5745B"/>
<path d="M267.997 175.45C266.993 175.386 265.995 175.237 265.016 175.005C264.205 174.964 263.392 174.99 262.585 175.082C260.831 175.129 259.075 175.061 257.329 174.88C257.114 174.858 255.919 174.584 255.875 174.953C255.874 175 255.886 175.046 255.911 175.086C256.416 176.059 258.44 175.795 259.332 175.754C260.027 175.668 260.73 175.671 261.424 175.762C261.974 175.873 262.798 176.251 262.092 176.837C261.38 177.36 260.605 177.792 259.785 178.122C259.406 178.305 257.649 179.305 258.774 179.606C259.323 179.712 259.888 179.701 260.433 179.575C261.08 179.504 261.72 179.388 262.35 179.228C262.945 179.001 263.554 178.815 264.174 178.671C265.527 178.448 267.058 179.169 268.345 178.524C268.971 178.069 269.507 177.5 269.924 176.847C270.406 176.253 270.845 175.625 271.239 174.969C271.436 174.635 271.598 174.292 271.788 173.962C271.864 173.83 271.962 173.714 272.03 173.58C272.083 173.474 272.09 173.246 272.154 173.169C271.655 173.814 271.029 174.35 270.313 174.743C269.598 175.135 268.81 175.376 267.997 175.45Z" fill="#8C4D38"/>
<path d="M167.694 114.091C167.216 113.903 166.738 113.715 166.269 113.509C166.025 113.397 165.784 113.286 165.546 113.175C165.395 113.099 165.013 112.977 164.941 112.82C164.958 112.806 164.977 112.796 164.998 112.791C165.019 112.787 165.041 112.788 165.062 112.794C165.583 112.911 166.091 113.078 166.611 113.193C167.03 113.285 167.455 113.344 167.881 113.395C168.063 113.416 168.215 113.469 168.373 113.365C168.531 113.262 168.683 113.158 168.835 113.048C169.145 112.825 169.447 112.589 169.757 112.363C169.831 112.31 170.67 111.756 170.672 111.763C170.708 111.885 170.699 112.016 170.645 112.132C170.402 112.714 170.046 113.244 169.6 113.69C169.39 113.997 169.076 114.217 168.717 114.309C168.363 114.321 168.012 114.246 167.694 114.091Z" fill="#F7A98D"/>
<path d="M177.219 226.347C175.808 228.233 174.664 230.306 173.82 232.505C173.74 232.665 173.712 232.845 173.74 233.021C173.812 233.202 173.937 233.357 174.099 233.466L176.953 235.863C177.322 236.193 177.722 236.488 178.147 236.743C178.665 237.008 179.209 237.219 179.77 237.374L181.059 237.775C182.603 238.257 182.883 236.759 183.452 235.771C184.082 234.588 184.892 233.51 185.853 232.575C187.635 231.003 189.326 229.33 190.918 227.565C194.361 222.221 204.3 207.154 204.5 207.178C203.554 207.108 202.604 207.094 201.656 207.135C200.738 207.095 199.819 207.154 198.914 207.312C198.209 207.857 198.811 208.091 198.106 208.641C196.094 210.2 194.389 212.064 192.377 213.623L183.349 220.613C181.198 222.118 179.25 223.895 177.553 225.899C177.442 226.045 177.331 226.194 177.219 226.347Z" fill="#F1CBD0"/>
<path d="M164.963 238.699C164.89 238.94 164.89 239.198 164.963 239.439C164.997 239.578 165.069 239.704 165.17 239.805C165.25 239.87 165.344 239.917 165.444 239.942C165.544 239.968 165.648 239.972 165.75 239.955C166.078 239.865 166.385 239.709 166.651 239.496C166.917 239.283 167.137 239.018 167.296 238.717L170.302 234.486L171.809 232.371C171.882 232.268 172.95 230.949 172.767 231.703C172.633 232.091 172.457 232.465 172.243 232.816C171.272 234.752 170.136 236.601 169.202 238.555C168.804 239.345 168.476 240.17 168.224 241.018C168.127 241.273 168.119 241.552 168.199 241.813C168.291 241.985 168.44 242.119 168.621 242.194C168.801 242.269 169.002 242.279 169.189 242.222C169.562 242.097 169.879 241.845 170.085 241.51C172.002 238.771 173.49 235.774 175.383 233.022C175.542 232.791 175.959 232.068 176.31 232.328C176.782 232.679 176.011 234.282 175.872 234.7C175.279 236.495 174.582 238.262 174.164 240.11C174.059 240.412 174.072 240.742 174.201 241.033C174.342 241.21 174.546 241.325 174.769 241.356C174.993 241.387 175.22 241.33 175.403 241.198C175.762 240.919 176.033 240.542 176.183 240.113C176.487 239.426 176.753 238.721 176.997 238.011C177.572 236.293 178.302 234.631 179.177 233.045C179.338 232.758 179.604 232.428 179.921 232.517C180.107 233.108 180.107 233.742 179.921 234.332C179.643 235.73 179.443 237.143 179.322 238.563C179.267 238.87 179.303 239.187 179.425 239.475C179.826 240.222 180.612 239.546 180.898 239.088C181.604 237.617 182.144 236.071 182.508 234.479C183.819 230.707 187.006 227.943 189.219 224.618C190.5 222.526 191.655 220.36 192.678 218.13C195.391 212.764 198.808 207.784 202.838 203.323C200.074 200.562 196.579 198.648 192.765 197.804C192.416 197.68 192.045 197.635 191.677 197.674C191.309 197.712 190.955 197.833 190.639 198.026C190.348 198.315 190.128 198.668 189.999 199.057C187.27 205.556 184.705 212.151 181.847 218.592C180.898 220.733 179.371 221.911 177.55 223.347C175.03 225.295 172.719 227.5 170.654 229.926C168.782 232.243 167.128 234.729 165.713 237.35C165.414 237.771 165.162 238.223 164.963 238.699Z" fill="#FFCCB6"/>
<path d="M199.537 200.602C199.319 200.462 199.062 200.395 198.803 200.411C198.535 200.486 198.299 200.65 198.135 200.877C195.716 203.594 194.311 207.268 192.756 210.515C192.368 211.324 191.999 212.141 191.631 212.964C190.212 216.551 188.419 219.979 186.282 223.191C185.19 224.74 183.853 226.1 182.324 227.219C180.729 228.332 178.775 228.701 177.592 230.427C177.348 230.794 177.14 231.185 176.97 231.592C176.851 231.787 176.765 232 176.714 232.222C176.714 232.427 176.505 233.094 176.38 232.938C176.296 232.827 176.332 232.667 176.257 232.552C176.21 232.496 176.145 232.457 176.072 232.444C176 232.431 175.925 232.444 175.861 232.48C175.734 232.556 175.629 232.663 175.554 232.79C173.644 235.507 172.214 238.538 170.29 241.244C170.102 241.541 169.862 241.802 169.583 242.015C169.442 242.121 169.278 242.191 169.105 242.219C168.931 242.248 168.754 242.234 168.587 242.179C168.447 242.123 168.308 241.988 168.35 241.845C168.379 241.747 168.477 241.691 168.565 241.641C169.675 240.867 170.563 239.815 171.14 238.592L172.543 236.183C173.221 234.902 174.05 233.709 175.014 232.628C175.241 232.356 175.539 232.152 175.876 232.039C176.148 231.97 176.628 232.022 176.666 232.359C176.697 232.636 176.377 233.162 176.276 233.418C175.96 234.221 175.599 235.005 175.281 235.806C174.75 236.932 174.312 238.1 173.971 239.297C173.841 239.898 173.791 241.065 174.572 241.279C174.777 241.32 174.989 241.305 175.187 241.237C175.384 241.169 175.56 241.05 175.697 240.892C175.967 240.572 176.174 240.205 176.309 239.81C176.865 238.445 177.368 237.061 177.947 235.707C178.232 235.039 178.534 234.387 178.868 233.747C178.996 233.499 179.547 232.098 179.951 232.649C180.01 232.752 180.033 232.873 180.016 232.991C179.945 234.832 179.366 236.553 179.148 238.369C179.086 238.872 179.13 239.519 179.604 239.7C179.723 239.736 179.849 239.745 179.973 239.725C180.096 239.706 180.213 239.659 180.315 239.588C180.751 239.245 181.066 238.772 181.215 238.238C181.822 236.998 182.328 235.712 182.728 234.391C183.112 233.184 183.66 232.036 184.358 230.979C185.893 228.994 187.622 227.101 189.081 225.055C190.356 223.07 191.461 220.98 192.384 218.808C194.088 215.272 196.126 211.906 198.471 208.758C199.162 207.83 199.969 206.998 200.732 206.13C201.433 205.333 201.956 204.368 202.699 203.634C202.755 203.588 202.798 203.528 202.825 203.461C202.87 203.314 202.758 203.169 202.653 203.055C202.254 202.528 201.799 202.045 201.295 201.617C201.008 201.418 200.711 201.235 200.404 201.068C200.206 200.95 199.767 200.602 199.537 200.602Z" fill="#FFB192"/>
<path d="M69.0523 137.301C69.0523 137.301 69.6746 142.659 69.2338 143.635C68.7929 144.61 67.6551 143.746 67.6551 143.746C67.6551 143.746 68.3052 143.258 68.2585 142.771C68.2117 142.283 66.3658 140.171 65.8604 138.475C65.571 137.564 65.3938 136.62 65.3326 135.665" fill="#042759"/>
<path d="M80.3526 160.402C77.8186 160.402 74.9218 159.424 72.468 158.831C70.2313 158.291 67.3889 157.908 65.3426 156.864C64.9308 156.69 64.6014 156.364 64.4219 155.955C64.3317 155.594 64.3386 155.216 64.4419 154.859C64.757 153.336 65.3627 148.865 67.4401 149.213L80.1032 151.338C82.5525 151.75 81.8166 152.408 81.2555 154.481C80.8184 156.431 80.5167 158.41 80.3526 160.402Z" fill="#DAE8FA"/>
<path d="M76.6452 150.758C74.3291 151.502 72.0689 152.41 69.8817 153.475C68.3096 154.355 67.0085 155.648 66.1197 157.215C66.1197 157.215 63.9799 156.941 64.2115 155.9C64.4431 154.859 65.0231 150.462 66.0875 149.194C66.0875 149.194 68.8764 148.592 76.6452 150.758Z" fill="#A8C2E2"/>
<path d="M64.7114 153.475C64.7114 153.475 61.9782 155.18 60.4228 155.996C58.8675 156.812 52.9902 162.272 52.9902 162.272L64.7114 156.772C64.4784 156.254 64.358 155.692 64.358 155.124C64.358 154.555 64.4784 153.994 64.7114 153.475Z" fill="#578DDE"/>
</svg>
