<svg width="211" height="197" viewBox="0 0 211 197" fill="none" xmlns="http://www.w3.org/2000/svg">
<path opacity="0.2" d="M166.194 37.9964C165.736 40.7533 165.517 43.3709 164.861 45.879C161.518 58.4992 145.672 64.8192 134.451 58.0812C126.632 53.3934 124.891 43.5998 130.581 36.2447C134.162 31.6266 139.146 29.1384 144.498 27.2474C145.493 26.899 146.497 26.5606 147.572 26.1924C138.43 15.7618 106.07 13.2438 91.3667 21.3155C93.3662 27.0981 95.8631 32.6418 97.1762 38.4642C99.3249 47.9691 94.5102 53.9607 84.7713 54.5579C76.5942 55.0655 69.402 52.4778 63.6622 46.5459C56.2312 38.8723 56.4401 28.4616 64.0302 20.8975C65.2339 19.6932 66.5669 18.6183 68.1187 17.2249C63.115 14.677 58.0118 13.4528 52.6699 14.0201C40.2352 15.3338 29.5811 20.3899 21.3045 29.9346C13.2369 39.2405 16.1516 53.0749 27.2732 58.5788C28.7256 59.2954 30.2874 59.803 31.7199 60.5594C34.7539 62.1518 34.9827 64.6899 32.2073 66.7103C28.8649 69.1487 25.0449 69.5567 21.0757 68.7705C5.83575 65.7647 -3.9131 48.5364 1.51838 33.4977C3.05034 29.2578 5.56716 25.1672 8.45201 21.6838C18.8375 9.15316 32.3267 1.9971 48.5117 0.225498C59.4742 -0.96884 69.1931 2.67388 77.977 8.9541C79.8174 10.2778 81.2797 10.3973 83.3886 9.68067C97.7433 4.85355 112.396 1.77814 127.597 4.36587C140.738 6.60525 152.088 12.2883 160.613 22.9477C161.329 23.8335 163.08 24.2317 164.373 24.2715C181.275 24.7791 193.52 32.4328 200.434 47.9691C204.473 57.0461 204.005 66.4813 201.508 75.8768C200.772 78.6636 199.877 81.4305 198.783 84.0978C198.116 85.7201 198.355 86.6059 199.678 87.7505C201.568 89.4026 203.349 91.2539 204.851 93.2644C211.088 101.655 211.944 110.662 207.308 120.057C203.279 128.239 197.539 135.026 190.039 140.232C188.467 141.326 188.268 142.143 188.954 143.934C193.411 155.639 191.591 166.278 183.155 175.664C182.488 176.4 181.802 177.137 181.046 177.774C167.437 189.19 151.73 195.36 134.023 196.286C131.277 196.425 128.432 195.888 125.736 195.251C123.806 194.803 121.976 193.728 121.499 191.887C138.529 187.876 154.237 181.605 168.293 171.563C171.058 169.592 173.694 167.254 175.863 164.656C180.011 159.679 180.28 152.772 176.987 147.766C173.346 148.721 169.735 149.836 166.045 150.593C162.225 151.379 158.455 150.881 154.993 148.99C150.735 146.651 148.099 143.108 148.049 138.122C147.999 133.185 150.387 129.473 154.575 126.975C159.041 124.307 163.906 124.028 168.711 125.651C171.924 126.736 174.868 128.597 178.002 129.97C178.838 130.339 180.17 130.558 180.847 130.149C187.333 126.258 192.555 121.063 196.017 114.295C199.012 108.452 196.883 102.152 192.416 99.5645C189.372 101.933 186.607 103.974 183.961 106.173C180.22 109.278 176.271 111.896 171.297 112.493C164.543 113.299 158.902 110.333 156.047 104.521C153.252 98.818 154.276 92.2193 159.012 87.5315C164.682 81.9182 171.824 80.0172 179.594 80.057C180.946 80.0669 182.379 80.0172 183.622 80.4551C186.209 81.3509 187.084 80.0868 187.88 77.9271C189.84 72.6123 191.123 67.2079 190.835 61.5049C190.218 48.616 179.076 37.9367 166.194 37.9964ZM88.641 41.7884C87.9944 35.5181 84.8509 30.6015 80.5734 25.7843C78.6535 27.4564 76.8529 28.8299 75.3209 30.4422C74.7638 31.0294 74.3958 32.383 74.6744 33.0797C76.3555 37.2599 83.7666 42.6941 88.641 41.7884ZM143.016 44.2368C145.821 46.725 150.665 47.3819 153.252 45.8193C155.321 44.5752 156.216 41.659 155.401 38.5438C150.884 39.5889 146.428 40.6538 143.016 44.2368Z" fill="#4F9CF9"/>
</svg>
