<svg width="223" height="183" viewBox="0 0 223 183" fill="none" xmlns="http://www.w3.org/2000/svg">
<path opacity="0.2" d="M65.7289 161.931C65.2695 159.174 64.6294 156.627 64.4389 154.041C63.5168 141.018 76.4652 129.91 89.2631 132.653C98.1784 134.558 102.995 143.261 99.9919 152.062C98.0982 157.59 94.1879 161.558 89.7362 165.079C88.9077 165.731 88.0666 166.376 87.1692 167.072C99.1951 173.982 130.628 165.891 141.927 153.496C138.164 148.671 134.007 144.234 130.88 139.15C125.771 130.852 128.387 123.625 137.409 119.908C144.981 116.781 152.624 116.902 159.975 120.656C169.489 125.512 172.661 135.43 167.928 145.043C167.179 146.572 166.265 148.021 165.248 149.842C170.807 150.633 176.032 150.14 180.902 147.874C192.243 142.606 200.687 134.374 205.429 122.664C210.05 111.248 202.815 99.1017 190.51 97.4937C188.904 97.2857 187.262 97.3109 185.662 97.0589C182.276 96.5341 181.238 94.2068 183.21 91.3968C185.583 88.0078 189.066 86.3854 193.076 85.8447C208.468 83.7562 223.268 96.9018 222.997 112.889C222.919 117.397 221.862 122.082 220.26 126.311C214.489 141.529 204.042 152.665 189.302 159.58C179.316 164.258 168.941 163.957 158.597 160.858C156.427 160.201 155.005 160.561 153.242 161.922C141.222 171.135 128.353 178.788 113.133 181.259C99.975 183.393 87.3961 181.69 75.8798 174.363C74.9154 173.757 73.13 173.947 71.8935 174.328C55.7377 179.318 41.6739 176.039 30.1039 163.577C23.3447 156.296 20.7333 147.217 20.0549 137.519C19.8494 134.644 19.801 131.736 19.973 128.858C20.0786 127.108 19.566 126.347 17.9437 125.692C15.6207 124.741 13.3367 123.565 11.2647 122.149C2.64763 116.229 -1.07713 107.984 0.268123 97.5937C1.43222 88.5489 4.66626 80.2687 10.0784 72.9159C11.2112 71.3713 11.1353 70.5348 9.90601 69.0618C1.90105 59.4297 0.179956 48.7736 5.12394 37.1631C5.51619 36.2505 5.92726 35.3315 6.43643 34.4841C15.6177 19.2782 28.4826 8.35567 44.9369 1.74888C47.4896 0.728424 50.3555 0.316171 53.1124 0.0463376C55.0833 -0.154509 57.1631 0.270119 58.2108 1.85773C43.3951 11.1649 30.5625 22.1815 20.5131 36.2327C18.5343 38.9924 16.7971 42.0586 15.5859 45.2183C13.2716 51.2695 15.2531 57.8919 19.9889 61.563C23.1245 59.4805 26.1804 57.2571 29.4276 55.3469C32.7875 53.3666 36.5158 52.6172 40.4033 53.286C45.1888 54.121 48.8298 56.6203 50.4908 61.3221C52.1356 65.9769 51.0781 70.2622 47.9241 73.9814C44.5613 77.9508 40.0489 79.7889 34.9776 79.809C31.5864 79.8225 28.1979 79.0145 24.7885 78.7291C23.8786 78.6512 22.5465 78.8754 22.0386 79.4805C17.1613 85.2618 13.9013 91.8678 12.8163 99.3919C11.8741 105.889 15.9274 111.161 20.9911 112.164C23.1046 108.937 25.0608 106.112 26.8526 103.174C29.3866 99.0253 32.2761 95.2704 36.7889 93.0955C42.919 90.1466 49.2158 91.1273 53.7983 95.7029C58.289 100.194 59.4553 106.769 56.4922 112.737C52.944 119.884 46.8012 123.994 39.4373 126.471C38.154 126.899 36.8147 127.41 35.4964 127.398C32.7593 127.388 32.3401 128.867 32.2862 131.168C32.1521 136.831 32.6871 142.36 34.8058 147.663C39.5609 159.658 53.5592 166.157 65.7289 161.931ZM137.88 133.242C140.521 138.966 145.087 142.601 150.693 145.774C151.969 143.57 153.228 141.688 154.156 139.667C154.493 138.931 154.403 137.531 153.914 136.962C150.97 133.551 142.199 130.808 137.88 133.242ZM85.6398 148.524C82.1802 147.078 77.3838 148.025 75.4424 150.34C73.8873 152.187 73.984 155.236 75.7641 157.92C79.6991 155.469 83.5711 153.019 85.6398 148.524Z" fill="#4F9CF9"/>
</svg>
